<svg width="351" height="261" viewBox="0 0 351 261" fill="none" xmlns="http://www.w3.org/2000/svg">
<g filter="url(#filter0_d_237_9)">
<path d="M153.046 30.0836C160.088 42.2801 134.39 70.2998 95.6481 92.6673C56.9064 115.035 19.7916 123.28 12.75 111.084C5.70837 98.8872 31.4064 70.8675 70.1481 48.5C108.89 26.1325 146.004 17.8872 153.046 30.0836Z" fill="#539FAD"/>
</g>
<g filter="url(#filter1_d_237_9)">
<path d="M32.4191 98.212L33.0791 99.3551L53.9936 87.2801L53.3336 86.137L32.4191 98.212ZM37.2181 100.464L37.8631 101.581L52.0486 93.3914L53.5786 96.0414L39.4711 104.186L42.0211 108.603L43.3201 107.853L41.4001 104.528L55.5336 96.3676L52.7286 91.5092L37.2181 100.464ZM41.7961 108.213L42.4411 109.331L58.6271 99.9856L57.9821 98.8684L41.7961 108.213ZM37.1369 83.8834L37.6169 84.7148C39.3719 87.7546 35.5825 92.4712 32.1962 94.9459L33.2898 95.7001C37.1357 92.8215 40.961 87.807 38.786 84.0398L38.306 83.2084L37.1369 83.8834ZM37.4226 83.7184L37.9027 84.5498C40.0627 88.291 46.3589 87.4965 50.7489 85.6201L50.6165 84.3109C46.7802 86.0062 40.7858 86.9036 39.0458 83.8898L38.5658 83.0584L37.4226 83.7184ZM29.0467 87.9308L29.6917 89.0479L46.787 79.1779L46.142 78.0608L29.0467 87.9308ZM75.7336 59.6597L82.9186 72.1045L84.2436 71.3395L77.0586 58.8947L75.7336 59.6597ZM73.6358 69.0461L74.2958 70.1893L80.2194 66.7693L79.5594 65.6261L73.6358 69.0461ZM69.5259 65.2875L69.8259 65.8072C72.5259 70.4837 70.6088 76.1632 65.4333 81.299L66.5829 82.0902C72.203 76.5244 74.1798 70.0484 70.9548 64.4625L69.5259 65.2875ZM60.6664 70.4025L61.3264 71.5457L71.0952 65.9057L70.4352 64.7625L60.6664 70.4025ZM70.2845 81.0615L75.5495 90.1808L90.2286 81.7058L84.9636 72.5865L83.6386 73.3515L85.5736 76.7031L73.5705 83.6331L71.6355 80.2815L70.2845 81.0615ZM74.2005 84.7242L86.2036 77.7942L88.2586 81.3536L76.2555 88.2836L74.2005 84.7242ZM106.181 42.0808L119.561 65.2557L120.886 64.4907L107.506 41.3158L106.181 42.0808ZM112.684 51.0048L113.359 52.1739L117.75 49.6389L117.075 48.4698L112.684 51.0048ZM100.308 66.9489L100.983 68.1181L102.698 67.1281C107.271 64.4881 110.116 62.6372 113.338 59.8767L112.481 58.8125C109.374 61.4721 106.544 63.3489 102.023 65.9589L100.308 66.9489ZM92.3583 53.1791L100.578 67.4166L101.877 66.6666L94.3023 53.5463L103.707 48.1163L103.062 46.9991L92.3583 53.1791ZM127.956 32.721L133.375 47.5403L131.862 48.4138L126.213 33.7278L127.956 32.721ZM135.102 53.9612C134.745 54.1672 134.379 54.2146 134.003 54.1035C133.627 53.9925 133.34 53.7647 133.141 53.4202C132.945 53.0661 132.907 52.6945 133.027 52.3055C133.146 51.9165 133.375 51.6243 133.714 51.429C134.058 51.2301 134.424 51.1827 134.813 51.2867C135.201 51.3906 135.486 51.6153 135.669 51.9607C135.792 52.2016 135.85 52.451 135.843 52.7092C135.836 52.9673 135.766 53.2086 135.633 53.4329C135.507 53.6537 135.33 53.8298 135.102 53.9612Z" fill="white"/>
<path d="M32.4191 98.212L31.9191 97.346L31.0531 97.846L31.5531 98.712L32.4191 98.212ZM33.0791 99.3551L32.2131 99.8551L32.7131 100.721L33.5791 100.221L33.0791 99.3551ZM53.9936 87.2801L54.4936 88.1462L55.3596 87.6462L54.8596 86.7801L53.9936 87.2801ZM53.3336 86.137L54.1996 85.637L53.6996 84.771L52.8336 85.271L53.3336 86.137ZM37.2181 100.464L36.7181 99.5982L35.8521 100.098L36.3521 100.964L37.2181 100.464ZM37.8631 101.581L36.9971 102.081L37.4971 102.947L38.3631 102.447L37.8631 101.581ZM52.0486 93.3914L52.9147 92.8914L52.4147 92.0253L51.5486 92.5253L52.0486 93.3914ZM53.5786 96.0414L54.0786 96.9074L54.9447 96.4074L54.4447 95.5414L53.5786 96.0414ZM39.4711 104.186L38.9711 103.32L38.1051 103.82L38.6051 104.686L39.4711 104.186ZM42.0211 108.603L41.1551 109.103L41.6551 109.969L42.5211 109.469L42.0211 108.603ZM43.3201 107.853L43.8201 108.719L44.6861 108.219L44.1861 107.353L43.3201 107.853ZM41.4001 104.528L40.9001 103.662L40.0341 104.162L40.5341 105.028L41.4001 104.528ZM55.5336 96.3676L56.0336 97.2336L56.8997 96.7336L56.3997 95.8676L55.5336 96.3676ZM52.7286 91.5092L53.5947 91.0092L53.0947 90.1432L52.2286 90.6432L52.7286 91.5092ZM41.7961 108.213L41.2961 107.347L40.4301 107.847L40.9301 108.713L41.7961 108.213ZM42.4411 109.331L41.5751 109.831L42.0751 110.697L42.9411 110.197L42.4411 109.331ZM58.6271 99.9856L59.1271 100.852L59.9931 100.352L59.4931 99.4856L58.6271 99.9856ZM57.9821 98.8684L58.8481 98.3684L58.3481 97.5024L57.4821 98.0024L57.9821 98.8684ZM37.1369 83.8834L36.6369 83.0174L35.7708 83.5174L36.2708 84.3834L37.1369 83.8834ZM32.1962 94.9459L31.6061 94.1385L30.469 94.9695L31.6284 95.7691L32.1962 94.9459ZM33.2898 95.7001L32.7221 96.5233L33.3137 96.9313L33.889 96.5007L33.2898 95.7001ZM38.306 83.2084L39.172 82.7084L38.672 81.8424L37.806 82.3424L38.306 83.2084ZM37.4226 83.7184L36.9226 82.8524L36.0566 83.3524L36.5566 84.2184L37.4226 83.7184ZM50.7489 85.6201L51.1419 86.5396L51.8177 86.2508L51.7438 85.5195L50.7489 85.6201ZM50.6165 84.3109L51.6114 84.2103L51.4728 82.8392L50.2123 83.3962L50.6165 84.3109ZM38.5658 83.0584L39.4318 82.5584L38.9318 81.6924L38.0658 82.1924L38.5658 83.0584ZM29.0467 87.9308L28.5467 87.0647L27.6806 87.5647L28.1806 88.4308L29.0467 87.9308ZM29.6917 89.0479L28.8256 89.5479L29.3256 90.414L30.1917 89.914L29.6917 89.0479ZM46.787 79.1779L47.287 80.044L48.153 79.544L47.653 78.6779L46.787 79.1779ZM46.142 78.0608L47.008 77.5608L46.508 76.6947L45.642 77.1947L46.142 78.0608ZM31.5531 98.712L32.2131 99.8551L33.9451 98.8551L33.2851 97.712L31.5531 98.712ZM33.5791 100.221L54.4936 88.1462L53.4936 86.4141L32.5791 98.4891L33.5791 100.221ZM54.8596 86.7801L54.1996 85.637L52.4676 86.637L53.1276 87.7801L54.8596 86.7801ZM52.8336 85.271L31.9191 97.346L32.9191 99.078L53.8336 87.003L52.8336 85.271ZM36.3521 100.964L36.9971 102.081L38.7292 101.081L38.0842 99.9642L36.3521 100.964ZM38.3631 102.447L52.5486 94.2574L51.5486 92.5253L37.3631 100.715L38.3631 102.447ZM51.1826 93.8914L52.7126 96.5414L54.4447 95.5414L52.9147 92.8914L51.1826 93.8914ZM53.0786 95.1754L38.9711 103.32L39.9711 105.052L54.0786 96.9074L53.0786 95.1754ZM38.6051 104.686L41.1551 109.103L42.8871 108.103L40.3371 103.686L38.6051 104.686ZM42.5211 109.469L43.8201 108.719L42.8201 106.987L41.5211 107.737L42.5211 109.469ZM44.1861 107.353L42.2661 104.028L40.5341 105.028L42.4541 108.353L44.1861 107.353ZM41.9001 105.394L56.0336 97.2336L55.0336 95.5016L40.9001 103.662L41.9001 105.394ZM56.3997 95.8676L53.5947 91.0092L51.8626 92.0092L54.6676 96.8676L56.3997 95.8676ZM52.2286 90.6432L36.7181 99.5982L37.7181 101.33L53.2286 92.3752L52.2286 90.6432ZM40.9301 108.713L41.5751 109.831L43.3071 108.831L42.6621 107.713L40.9301 108.713ZM42.9411 110.197L59.1271 100.852L58.1271 99.1196L41.9411 108.465L42.9411 110.197ZM59.4931 99.4856L58.8481 98.3684L57.1161 99.3684L57.7611 100.486L59.4931 99.4856ZM57.4821 98.0024L41.2961 107.347L42.2961 109.079L58.4821 99.7344L57.4821 98.0024ZM36.2708 84.3834L36.7508 85.2148L38.4829 84.2148L38.0029 83.3834L36.2708 84.3834ZM36.7508 85.2148C37.3367 86.2295 37.0904 87.7207 35.9831 89.5177C34.9127 91.2549 33.2165 92.9617 31.6061 94.1385L32.7862 95.7532C34.5622 94.4554 36.4538 92.5664 37.6859 90.5668C38.8812 88.6269 39.652 86.2399 38.4829 84.2148L36.7508 85.2148ZM31.6284 95.7691L32.7221 96.5233L33.8575 94.8769L32.7639 94.1227L31.6284 95.7691ZM33.889 96.5007C35.891 95.0023 37.9175 92.9293 39.1686 90.6911C40.4116 88.4676 40.9945 85.865 39.652 83.5398L37.92 84.5398C38.7525 85.9819 38.5103 87.77 37.4229 89.7152C36.3437 91.6458 34.5346 93.5193 32.6906 94.8995L33.889 96.5007ZM39.652 83.5398L39.172 82.7084L37.44 83.7084L37.92 84.5398L39.652 83.5398ZM37.806 82.3424L36.6369 83.0174L37.6369 84.7495L38.806 84.0745L37.806 82.3424ZM36.5566 84.2184L37.0366 85.0498L38.7687 84.0498L38.2887 83.2184L36.5566 84.2184ZM37.0366 85.0498C38.3732 87.3648 40.9283 88.1548 43.4751 88.1914C46.0423 88.2284 48.8542 87.5174 51.1419 86.5396L50.3558 84.7006C48.2535 85.5991 45.7223 86.2236 43.5039 86.1917C41.2651 86.1594 39.5921 85.4761 38.7687 84.0498L37.0366 85.0498ZM51.7438 85.5195L51.6114 84.2103L49.6216 84.4114L49.7539 85.7207L51.7438 85.5195ZM50.2123 83.3962C48.3901 84.2015 46.0605 84.8112 44.0179 84.8666C41.9024 84.924 40.4896 84.3905 39.9118 83.3898L38.1798 84.3898C39.3421 86.4029 41.7964 86.9276 44.0721 86.8659C46.4208 86.8022 49.0066 86.1156 51.0207 85.2255L50.2123 83.3962ZM39.9118 83.3898L39.4318 82.5584L37.6998 83.5584L38.1798 84.3898L39.9118 83.3898ZM38.0658 82.1924L36.9226 82.8524L37.9226 84.5845L39.0658 83.9245L38.0658 82.1924ZM28.1806 88.4308L28.8256 89.5479L30.5577 88.5479L29.9127 87.4308L28.1806 88.4308ZM30.1917 89.914L47.287 80.044L46.287 78.3119L29.1917 88.1819L30.1917 89.914ZM47.653 78.6779L47.008 77.5608L45.276 78.5608L45.921 79.6779L47.653 78.6779ZM45.642 77.1947L28.5467 87.0647L29.5467 88.7968L46.642 78.9268L45.642 77.1947ZM75.7336 59.6597L75.2336 58.7936L74.3676 59.2936L74.8676 60.1597L75.7336 59.6597ZM82.9186 72.1045L82.0526 72.6045L82.5526 73.4705L83.4186 72.9705L82.9186 72.1045ZM84.2436 71.3395L84.7436 72.2055L85.6097 71.7055L85.1097 70.8395L84.2436 71.3395ZM77.0586 58.8947L77.9247 58.3947L77.4247 57.5286L76.5586 58.0286L77.0586 58.8947ZM73.6358 69.0461L73.1358 68.1801L72.2698 68.6801L72.7698 69.5461L73.6358 69.0461ZM74.2958 70.1893L73.4298 70.6893L73.9298 71.5553L74.7958 71.0553L74.2958 70.1893ZM80.2194 66.7693L80.7194 67.6353L81.5854 67.1353L81.0854 66.2693L80.2194 66.7693ZM79.5594 65.6261L80.4254 65.1261L79.9254 64.2601L79.0594 64.7601L79.5594 65.6261ZM69.5259 65.2875L69.0259 64.4215L68.1599 64.9215L68.6599 65.7875L69.5259 65.2875ZM65.4333 81.299L64.7289 80.5891L63.8726 81.4388L64.8664 82.1227L65.4333 81.299ZM66.5829 82.0902L66.016 82.9139L66.6981 83.3834L67.2866 82.8007L66.5829 82.0902ZM70.9548 64.4625L71.8208 63.9625L71.3208 63.0965L70.4548 63.5965L70.9548 64.4625ZM60.6664 70.4025L60.1664 69.5365L59.3004 70.0365L59.8004 70.9025L60.6664 70.4025ZM61.3264 71.5457L60.4604 72.0457L60.9604 72.9117L61.8264 72.4117L61.3264 71.5457ZM71.0952 65.9057L71.5952 66.7717L72.4612 66.2717L71.9612 65.4057L71.0952 65.9057ZM70.4352 64.7625L71.3012 64.2625L70.8012 63.3965L69.9352 63.8965L70.4352 64.7625ZM70.2845 81.0615L69.7845 80.1955L68.9185 80.6955L69.4185 81.5615L70.2845 81.0615ZM75.5495 90.1808L74.6835 90.6808L75.1835 91.5468L76.0495 91.0468L75.5495 90.1808ZM90.2286 81.7058L90.7286 82.5718L91.5947 82.0718L91.0947 81.2058L90.2286 81.7058ZM84.9636 72.5865L85.8297 72.0865L85.3297 71.2205L84.4636 71.7205L84.9636 72.5865ZM83.6386 73.3515L83.1386 72.4855L82.2726 72.9855L82.7726 73.8515L83.6386 73.3515ZM85.5736 76.7031L86.0736 77.5691L86.9397 77.0691L86.4397 76.2031L85.5736 76.7031ZM73.5705 83.6331L72.7045 84.1331L73.2045 84.9991L74.0705 84.4991L73.5705 83.6331ZM71.6355 80.2815L72.5015 79.7815L72.0015 78.9155L71.1355 79.4155L71.6355 80.2815ZM74.2005 84.7242L73.7005 83.8582L72.8345 84.3582L73.3345 85.2242L74.2005 84.7242ZM86.2036 77.7942L87.0697 77.2942L86.5697 76.4282L85.7036 76.9282L86.2036 77.7942ZM88.2586 81.3536L88.7586 82.2196L89.6247 81.7196L89.1247 80.8536L88.2586 81.3536ZM76.2555 88.2836L75.3895 88.7836L75.8895 89.6496L76.7555 89.1496L76.2555 88.2836ZM74.8676 60.1597L82.0526 72.6045L83.7847 71.6045L76.5997 59.1597L74.8676 60.1597ZM83.4186 72.9705L84.7436 72.2055L83.7436 70.4734L82.4186 71.2384L83.4186 72.9705ZM85.1097 70.8395L77.9247 58.3947L76.1926 59.3947L83.3776 71.8395L85.1097 70.8395ZM76.5586 58.0286L75.2336 58.7936L76.2336 60.5257L77.5586 59.7607L76.5586 58.0286ZM72.7698 69.5461L73.4298 70.6893L75.1618 69.6893L74.5018 68.5461L72.7698 69.5461ZM74.7958 71.0553L80.7194 67.6353L79.7194 65.9033L73.7958 69.3233L74.7958 71.0553ZM81.0854 66.2693L80.4254 65.1261L78.6934 66.1261L79.3534 67.2693L81.0854 66.2693ZM79.0594 64.7601L73.1358 68.1801L74.1358 69.9122L80.0594 66.4922L79.0594 64.7601ZM68.6599 65.7875L68.9599 66.3072L70.6919 65.3072L70.3919 64.7875L68.6599 65.7875ZM68.9599 66.3072C71.3148 70.386 69.7877 75.5691 64.7289 80.5891L66.1377 82.0088C71.4298 76.7572 73.737 70.5813 70.6919 65.3072L68.9599 66.3072ZM64.8664 82.1227L66.016 82.9139L67.1498 81.2664L66.0002 80.4752L64.8664 82.1227ZM67.2866 82.8007C73.0694 77.0739 75.369 70.108 71.8208 63.9625L70.0888 64.9625C72.9907 69.9888 71.3366 75.975 65.8792 81.3796L67.2866 82.8007ZM70.4548 63.5965L69.0259 64.4215L70.0259 66.1536L71.4548 65.3286L70.4548 63.5965ZM59.8004 70.9025L60.4604 72.0457L62.1925 71.0457L61.5325 69.9025L59.8004 70.9025ZM61.8264 72.4117L71.5952 66.7717L70.5952 65.0397L60.8264 70.6797L61.8264 72.4117ZM71.9612 65.4057L71.3012 64.2625L69.5692 65.2625L70.2292 66.4057L71.9612 65.4057ZM69.9352 63.8965L60.1664 69.5365L61.1664 71.2686L70.9352 65.6286L69.9352 63.8965ZM69.4185 81.5615L74.6835 90.6808L76.4155 89.6808L71.1505 80.5615L69.4185 81.5615ZM76.0495 91.0468L90.7286 82.5718L89.7286 80.8398L75.0495 89.3148L76.0495 91.0468ZM91.0947 81.2058L85.8297 72.0865L84.0976 73.0865L89.3626 82.2058L91.0947 81.2058ZM84.4636 71.7205L83.1386 72.4855L84.1386 74.2176L85.4636 73.4526L84.4636 71.7205ZM82.7726 73.8515L84.7076 77.2031L86.4397 76.2031L84.5047 72.8515L82.7726 73.8515ZM85.0736 75.837L73.0705 82.767L74.0705 84.4991L86.0736 77.5691L85.0736 75.837ZM74.4365 83.1331L72.5015 79.7815L70.7695 80.7815L72.7045 84.1331L74.4365 83.1331ZM71.1355 79.4155L69.7845 80.1955L70.7845 81.9276L72.1355 81.1476L71.1355 79.4155ZM74.7005 85.5903L86.7036 78.6603L85.7036 76.9282L73.7005 83.8582L74.7005 85.5903ZM85.3376 78.2942L87.3926 81.8536L89.1247 80.8536L87.0697 77.2942L85.3376 78.2942ZM87.7586 80.4876L75.7555 87.4176L76.7555 89.1496L88.7586 82.2196L87.7586 80.4876ZM77.1215 87.7836L75.0665 84.2242L73.3345 85.2242L75.3895 88.7836L77.1215 87.7836ZM106.181 42.0808L105.681 41.2148L104.815 41.7148L105.315 42.5808L106.181 42.0808ZM119.561 65.2557L118.695 65.7557L119.195 66.6217L120.061 66.1217L119.561 65.2557ZM120.886 64.4907L121.386 65.3567L122.252 64.8567L121.752 63.9907L120.886 64.4907ZM107.506 41.3158L108.372 40.8158L107.872 39.9498L107.006 40.4498L107.506 41.3158ZM112.684 51.0048L112.184 50.1388L111.318 50.6388L111.818 51.5048L112.684 51.0048ZM113.359 52.1739L112.493 52.6739L112.993 53.54L113.859 53.04L113.359 52.1739ZM117.75 49.6389L118.25 50.505L119.116 50.005L118.616 49.1389L117.75 49.6389ZM117.075 48.4698L117.941 47.9698L117.441 47.1038L116.575 47.6038L117.075 48.4698ZM100.308 66.9489L99.8083 66.0829L98.9423 66.5829L99.4423 67.4489L100.308 66.9489ZM100.983 68.1181L100.117 68.6181L100.617 69.4841L101.483 68.9841L100.983 68.1181ZM113.338 59.8767L113.988 60.636L114.725 60.0049L114.117 59.2495L113.338 59.8767ZM112.481 58.8125L113.26 58.1854L112.613 57.3827L111.831 58.0529L112.481 58.8125ZM92.3583 53.1791L91.8583 52.3131L90.9923 52.8131L91.4923 53.6791L92.3583 53.1791ZM100.578 67.4166L99.7123 67.9166L100.212 68.7826L101.078 68.2826L100.578 67.4166ZM101.877 66.6666L102.377 67.5326L103.243 67.0326L102.743 66.1666L101.877 66.6666ZM94.3023 53.5463L93.8023 52.6803L92.9363 53.1803L93.4363 54.0463L94.3023 53.5463ZM103.707 48.1163L104.207 48.9823L105.073 48.4823L104.573 47.6163L103.707 48.1163ZM103.062 46.9991L103.928 46.4991L103.428 45.6331L102.562 46.1331L103.062 46.9991ZM105.315 42.5808L118.695 65.7557L120.427 64.7557L107.047 41.5808L105.315 42.5808ZM120.061 66.1217L121.386 65.3567L120.386 63.6247L119.061 64.3897L120.061 66.1217ZM121.752 63.9907L108.372 40.8158L106.64 41.8158L120.02 64.9907L121.752 63.9907ZM107.006 40.4498L105.681 41.2148L106.681 42.9469L108.006 42.1819L107.006 40.4498ZM111.818 51.5048L112.493 52.6739L114.225 51.6739L113.55 50.5048L111.818 51.5048ZM113.859 53.04L118.25 50.505L117.25 48.7729L112.859 51.3079L113.859 53.04ZM118.616 49.1389L117.941 47.9698L116.209 48.9698L116.884 50.1389L118.616 49.1389ZM116.575 47.6038L112.184 50.1388L113.184 51.8708L117.575 49.3358L116.575 47.6038ZM99.4423 67.4489L100.117 68.6181L101.849 67.6181L101.174 66.4489L99.4423 67.4489ZM101.483 68.9841L103.198 67.9941L102.198 66.262L100.483 67.252L101.483 68.9841ZM103.198 67.9941C107.795 65.34 110.7 63.4538 113.988 60.636L112.687 59.1173C109.533 61.8206 106.746 63.6361 102.198 66.262L103.198 67.9941ZM114.117 59.2495L113.26 58.1854L111.702 59.4397L112.559 60.5038L114.117 59.2495ZM111.831 58.0529C108.788 60.6573 106.015 62.4994 101.523 65.0929L102.523 66.8249C107.072 64.1985 109.961 62.2868 113.131 59.5722L111.831 58.0529ZM101.523 65.0929L99.8083 66.0829L100.808 67.8149L102.523 66.8249L101.523 65.0929ZM91.4923 53.6791L99.7123 67.9166L101.444 66.9166L93.2243 52.6791L91.4923 53.6791ZM101.078 68.2826L102.377 67.5326L101.377 65.8005L100.078 66.5505L101.078 68.2826ZM102.743 66.1666L95.1683 53.0463L93.4363 54.0463L101.011 67.1666L102.743 66.1666ZM94.8023 54.4123L104.207 48.9823L103.207 47.2503L93.8023 52.6803L94.8023 54.4123ZM104.573 47.6163L103.928 46.4991L102.196 47.4991L102.841 48.6163L104.573 47.6163ZM102.562 46.1331L91.8583 52.3131L92.8583 54.0451L103.562 47.8651L102.562 46.1331ZM127.956 32.721L128.896 32.3776L128.487 31.2601L127.456 31.855L127.956 32.721ZM133.375 47.5403L133.875 48.4063L134.603 47.9861L134.315 47.1968L133.375 47.5403ZM131.862 48.4138L130.929 48.7729L131.349 49.8649L132.362 49.2799L131.862 48.4138ZM126.213 33.7278L125.713 32.8618L124.972 33.2891L125.279 34.0868L126.213 33.7278ZM134.003 54.1035L134.287 53.1446L134.287 53.1446L134.003 54.1035ZM133.141 53.4202L132.267 53.905L132.271 53.9127L132.275 53.9202L133.141 53.4202ZM133.027 52.3055L133.982 52.5999L133.982 52.5999L133.027 52.3055ZM134.813 51.2867L135.071 50.3207L135.071 50.3207L134.813 51.2867ZM135.669 51.9607L136.56 51.5069L136.557 51.4997L136.553 51.4925L135.669 51.9607ZM135.633 53.4329L134.773 52.9232L134.766 52.9351L135.633 53.4329ZM127.017 33.0645L132.436 47.8837L134.315 47.1968L128.896 32.3776L127.017 33.0645ZM132.875 46.6742L131.362 47.5478L132.362 49.2799L133.875 48.4063L132.875 46.6742ZM132.796 48.0548L127.146 33.3687L125.279 34.0868L130.929 48.7729L132.796 48.0548ZM126.713 34.5938L128.456 33.5871L127.456 31.855L125.713 32.8618L126.713 34.5938ZM134.602 53.0952C134.469 53.172 134.385 53.1736 134.287 53.1446L133.72 55.0625C134.373 55.2557 135.021 55.1624 135.602 54.8272L134.602 53.0952ZM134.287 53.1446C134.161 53.1074 134.08 53.0464 134.007 52.9202L132.275 53.9202C132.6 54.483 133.094 54.8775 133.72 55.0625L134.287 53.1446ZM134.016 52.9355C133.952 52.8207 133.942 52.7306 133.982 52.5999L132.071 52.0111C131.871 52.6585 131.938 53.3115 132.267 53.905L134.016 52.9355ZM133.982 52.5999C134.031 52.4409 134.104 52.3584 134.214 52.295L133.214 50.563C132.647 50.8902 132.262 51.392 132.071 52.0111L133.982 52.5999ZM134.214 52.295C134.326 52.2303 134.419 52.2165 134.554 52.2526L135.071 50.3207C134.43 50.1489 133.79 50.23 133.214 50.563L134.214 52.295ZM134.554 52.2526C134.682 52.2869 134.737 52.3367 134.786 52.4289L136.553 51.4925C136.236 50.894 135.719 50.4944 135.071 50.3207L134.554 52.2526ZM134.778 52.4145C134.829 52.514 134.846 52.5992 134.843 52.6829L136.843 52.7354C136.854 52.3029 136.755 51.8891 136.56 51.5069L134.778 52.4145ZM134.843 52.6829C134.841 52.769 134.82 52.844 134.773 52.9233L136.494 53.9426C136.713 53.5731 136.831 53.1657 136.843 52.7354L134.843 52.6829ZM134.766 52.9351C134.73 52.9978 134.682 53.049 134.602 53.0952L135.602 54.8272C135.977 54.6106 136.283 54.3096 136.501 53.9308L134.766 52.9351Z" fill="white"/>
</g>
<g filter="url(#filter2_d_237_9)">
<ellipse cx="257" cy="227.5" rx="81" ry="25.5" fill="#539FAD"/>
</g>
<g filter="url(#filter3_d_237_9)">
<path d="M210.206 213.613V235.889H211.481V213.613H210.206ZM211.181 222.664V223.814H215.406V222.664H211.181ZM195.606 215.563V230.414H205.706V215.563H204.431V221.739H196.881V215.563H195.606ZM196.881 222.814H204.431V229.289H196.881V222.814ZM242.479 213.613V230.439H243.704V213.613H242.479ZM232.754 220.988V222.089H238.829V220.988H232.754ZM238.129 214.089V229.764H239.354V214.089H238.129ZM233.604 215.814V216.113C233.604 220.689 230.579 224.464 225.429 226.689L226.104 227.664C231.704 225.189 234.854 220.964 234.854 215.814H233.604ZM226.254 215.814V216.889H234.079V215.814H226.254ZM229.504 234.214V235.314H244.479V234.214H229.504ZM229.504 228.339V234.689H230.804V228.339H229.504ZM264.352 221.889V222.989H269.027V221.889H264.352ZM260.602 215.814V220.389C260.602 224.214 258.352 228.214 255.427 229.864L256.302 230.839C259.327 228.989 261.652 224.739 261.652 220.389V215.814H260.602ZM260.802 215.814V220.339C260.802 224.364 263.027 228.564 266.027 230.364L266.827 229.364C264.002 227.739 261.827 223.864 261.827 220.339V215.814H260.802ZM273.127 213.588V235.864H274.377V213.588H273.127ZM268.602 214.163V234.689H269.827V214.163H268.602ZM292.325 214.513C289.05 214.513 286.7 216.488 286.7 219.363C286.7 222.239 289.05 224.189 292.325 224.189C295.6 224.189 297.95 222.239 297.95 219.363C297.95 216.488 295.6 214.513 292.325 214.513ZM292.325 215.614C294.825 215.614 296.7 217.239 296.7 219.363C296.7 221.514 294.825 223.114 292.325 223.114C289.825 223.114 287.95 221.514 287.95 219.363C287.95 217.239 289.825 215.614 292.325 215.614ZM302.875 213.613V225.189H304.175V213.613H302.875ZM290.05 226.389V227.489H302.9V230.314H290.125V235.114H291.375V231.339H304.175V226.389H290.05ZM290.125 234.464V235.539H305.05V234.464H290.125ZM321.315 215.907L319.051 228.859H317.595L319.637 215.907H321.315ZM317.622 234.213C317.278 234.213 316.994 234.094 316.769 233.858C316.545 233.621 316.432 233.337 316.432 233.005C316.438 232.668 316.565 232.384 316.814 232.153C317.062 231.922 317.349 231.807 317.675 231.807C318.006 231.807 318.291 231.925 318.527 232.162C318.764 232.399 318.876 232.68 318.865 233.005C318.853 233.23 318.791 233.435 318.678 233.618C318.566 233.801 318.415 233.946 318.225 234.053C318.042 234.16 317.841 234.213 317.622 234.213Z" fill="white"/>
<path d="M210.206 213.613V212.613H209.206V213.613H210.206ZM210.206 235.889H209.206V236.889H210.206V235.889ZM211.481 235.889V236.889H212.481V235.889H211.481ZM211.481 213.613H212.481V212.613H211.481V213.613ZM211.181 222.664V221.664H210.181V222.664H211.181ZM211.181 223.814H210.181V224.814H211.181V223.814ZM215.406 223.814V224.814H216.406V223.814H215.406ZM215.406 222.664H216.406V221.664H215.406V222.664ZM195.606 215.563V214.563H194.606V215.563H195.606ZM195.606 230.414H194.606V231.414H195.606V230.414ZM205.706 230.414V231.414H206.706V230.414H205.706ZM205.706 215.563H206.706V214.563H205.706V215.563ZM204.431 215.563V214.563H203.431V215.563H204.431ZM204.431 221.739V222.739H205.431V221.739H204.431ZM196.881 221.739H195.881V222.739H196.881V221.739ZM196.881 215.563H197.881V214.563H196.881V215.563ZM196.881 222.814V221.814H195.881V222.814H196.881ZM204.431 222.814H205.431V221.814H204.431V222.814ZM204.431 229.289V230.289H205.431V229.289H204.431ZM196.881 229.289H195.881V230.289H196.881V229.289ZM209.206 213.613V235.889H211.206V213.613H209.206ZM210.206 236.889H211.481V234.889H210.206V236.889ZM212.481 235.889V213.613H210.481V235.889H212.481ZM211.481 212.613H210.206V214.613H211.481V212.613ZM210.181 222.664V223.814H212.181V222.664H210.181ZM211.181 224.814H215.406V222.814H211.181V224.814ZM216.406 223.814V222.664H214.406V223.814H216.406ZM215.406 221.664H211.181V223.664H215.406V221.664ZM194.606 215.563V230.414H196.606V215.563H194.606ZM195.606 231.414H205.706V229.414H195.606V231.414ZM206.706 230.414V215.563H204.706V230.414H206.706ZM205.706 214.563H204.431V216.563H205.706V214.563ZM203.431 215.563V221.739H205.431V215.563H203.431ZM204.431 220.739H196.881V222.739H204.431V220.739ZM197.881 221.739V215.563H195.881V221.739H197.881ZM196.881 214.563H195.606V216.563H196.881V214.563ZM196.881 223.814H204.431V221.814H196.881V223.814ZM203.431 222.814V229.289H205.431V222.814H203.431ZM204.431 228.289H196.881V230.289H204.431V228.289ZM197.881 229.289V222.814H195.881V229.289H197.881ZM242.479 213.613V212.613H241.479V213.613H242.479ZM242.479 230.439H241.479V231.439H242.479V230.439ZM243.704 230.439V231.439H244.704V230.439H243.704ZM243.704 213.613H244.704V212.613H243.704V213.613ZM232.754 220.988V219.988H231.754V220.988H232.754ZM232.754 222.089H231.754V223.089H232.754V222.089ZM238.829 222.089V223.089H239.829V222.089H238.829ZM238.829 220.988H239.829V219.988H238.829V220.988ZM238.129 214.089V213.089H237.129V214.089H238.129ZM238.129 229.764H237.129V230.764H238.129V229.764ZM239.354 229.764V230.764H240.354V229.764H239.354ZM239.354 214.089H240.354V213.089H239.354V214.089ZM233.604 215.814V214.814H232.604V215.814H233.604ZM225.429 226.689L225.032 225.771L223.912 226.254L224.607 227.258L225.429 226.689ZM226.104 227.664L225.282 228.233L225.752 228.912L226.508 228.578L226.104 227.664ZM234.854 215.814H235.854V214.814H234.854V215.814ZM226.254 215.814V214.814H225.254V215.814H226.254ZM226.254 216.889H225.254V217.889H226.254V216.889ZM234.079 216.889V217.889H235.079V216.889H234.079ZM234.079 215.814H235.079V214.814H234.079V215.814ZM229.504 234.214V233.214H228.504V234.214H229.504ZM229.504 235.314H228.504V236.314H229.504V235.314ZM244.479 235.314V236.314H245.479V235.314H244.479ZM244.479 234.214H245.479V233.214H244.479V234.214ZM229.504 228.339V227.339H228.504V228.339H229.504ZM229.504 234.689H228.504V235.689H229.504V234.689ZM230.804 234.689V235.689H231.804V234.689H230.804ZM230.804 228.339H231.804V227.339H230.804V228.339ZM241.479 213.613V230.439H243.479V213.613H241.479ZM242.479 231.439H243.704V229.439H242.479V231.439ZM244.704 230.439V213.613H242.704V230.439H244.704ZM243.704 212.613H242.479V214.613H243.704V212.613ZM231.754 220.988V222.089H233.754V220.988H231.754ZM232.754 223.089H238.829V221.089H232.754V223.089ZM239.829 222.089V220.988H237.829V222.089H239.829ZM238.829 219.988H232.754V221.988H238.829V219.988ZM237.129 214.089V229.764H239.129V214.089H237.129ZM238.129 230.764H239.354V228.764H238.129V230.764ZM240.354 229.764V214.089H238.354V229.764H240.354ZM239.354 213.089H238.129V215.089H239.354V213.089ZM232.604 215.814V216.113H234.604V215.814H232.604ZM232.604 216.113C232.604 220.168 229.942 223.649 225.032 225.771L225.826 227.606C231.216 225.278 234.604 221.209 234.604 216.113H232.604ZM224.607 227.258L225.282 228.233L226.926 227.094L226.251 226.119L224.607 227.258ZM226.508 228.578C232.379 225.983 235.854 221.45 235.854 215.814H233.854C233.854 220.477 231.029 224.394 225.7 226.749L226.508 228.578ZM234.854 214.814H233.604V216.814H234.854V214.814ZM225.254 215.814V216.889H227.254V215.814H225.254ZM226.254 217.889H234.079V215.889H226.254V217.889ZM235.079 216.889V215.814H233.079V216.889H235.079ZM234.079 214.814H226.254V216.814H234.079V214.814ZM228.504 234.214V235.314H230.504V234.214H228.504ZM229.504 236.314H244.479V234.314H229.504V236.314ZM245.479 235.314V234.214H243.479V235.314H245.479ZM244.479 233.214H229.504V235.214H244.479V233.214ZM228.504 228.339V234.689H230.504V228.339H228.504ZM229.504 235.689H230.804V233.689H229.504V235.689ZM231.804 234.689V228.339H229.804V234.689H231.804ZM230.804 227.339H229.504V229.339H230.804V227.339ZM264.352 221.889V220.889H263.352V221.889H264.352ZM264.352 222.989H263.352V223.989H264.352V222.989ZM269.027 222.989V223.989H270.027V222.989H269.027ZM269.027 221.889H270.027V220.889H269.027V221.889ZM260.602 215.814V214.814H259.602V215.814H260.602ZM255.427 229.864L254.936 228.993L253.851 229.604L254.683 230.531L255.427 229.864ZM256.302 230.839L255.558 231.506L256.114 232.126L256.824 231.692L256.302 230.839ZM261.652 215.814H262.652V214.814H261.652V215.814ZM260.802 215.814V214.814H259.802V215.814H260.802ZM266.027 230.364L265.512 231.221L266.262 231.671L266.808 230.988L266.027 230.364ZM266.827 229.364L267.608 229.988L268.336 229.078L267.326 228.497L266.827 229.364ZM261.827 215.814H262.827V214.814H261.827V215.814ZM273.127 213.588V212.588H272.127V213.588H273.127ZM273.127 235.864H272.127V236.864H273.127V235.864ZM274.377 235.864V236.864H275.377V235.864H274.377ZM274.377 213.588H275.377V212.588H274.377V213.588ZM268.602 214.163V213.163H267.602V214.163H268.602ZM268.602 234.689H267.602V235.689H268.602V234.689ZM269.827 234.689V235.689H270.827V234.689H269.827ZM269.827 214.163H270.827V213.163H269.827V214.163ZM263.352 221.889V222.989H265.352V221.889H263.352ZM264.352 223.989H269.027V221.989H264.352V223.989ZM270.027 222.989V221.889H268.027V222.989H270.027ZM269.027 220.889H264.352V222.889H269.027V220.889ZM259.602 215.814V220.389H261.602V215.814H259.602ZM259.602 220.389C259.602 223.892 257.514 227.538 254.936 228.993L255.918 230.734C259.19 228.889 261.602 224.535 261.602 220.389H259.602ZM254.683 230.531L255.558 231.506L257.046 230.171L256.171 229.196L254.683 230.531ZM256.824 231.692C260.184 229.637 262.652 225.04 262.652 220.389H260.652C260.652 224.437 258.47 228.34 255.78 229.985L256.824 231.692ZM262.652 220.389V215.814H260.652V220.389H262.652ZM261.652 214.814H260.602V216.814H261.652V214.814ZM259.802 215.814V220.339H261.802V215.814H259.802ZM259.802 220.339C259.802 224.663 262.169 229.215 265.512 231.221L266.541 229.506C263.884 227.912 261.802 224.064 261.802 220.339H259.802ZM266.808 230.988L267.608 229.988L266.046 228.739L265.246 229.739L266.808 230.988ZM267.326 228.497C266.104 227.794 264.971 226.569 264.142 225.077C263.314 223.589 262.827 221.905 262.827 220.339H260.827C260.827 222.297 261.428 224.313 262.394 226.05C263.358 227.783 264.725 229.308 266.328 230.23L267.326 228.497ZM262.827 220.339V215.814H260.827V220.339H262.827ZM261.827 214.814H260.802V216.814H261.827V214.814ZM272.127 213.588V235.864H274.127V213.588H272.127ZM273.127 236.864H274.377V234.864H273.127V236.864ZM275.377 235.864V213.588H273.377V235.864H275.377ZM274.377 212.588H273.127V214.588H274.377V212.588ZM267.602 214.163V234.689H269.602V214.163H267.602ZM268.602 235.689H269.827V233.689H268.602V235.689ZM270.827 234.689V214.163H268.827V234.689H270.827ZM269.827 213.163H268.602V215.163H269.827V213.163ZM302.875 213.613V212.613H301.875V213.613H302.875ZM302.875 225.189H301.875V226.189H302.875V225.189ZM304.175 225.189V226.189H305.175V225.189H304.175ZM304.175 213.613H305.175V212.613H304.175V213.613ZM290.05 226.389V225.389H289.05V226.389H290.05ZM290.05 227.489H289.05V228.489H290.05V227.489ZM302.9 227.489H303.9V226.489H302.9V227.489ZM302.9 230.314V231.314H303.9V230.314H302.9ZM290.125 230.314V229.314H289.125V230.314H290.125ZM290.125 235.114H289.125V236.114H290.125V235.114ZM291.375 235.114V236.114H292.375V235.114H291.375ZM291.375 231.339V230.339H290.375V231.339H291.375ZM304.175 231.339V232.339H305.175V231.339H304.175ZM304.175 226.389H305.175V225.389H304.175V226.389ZM290.125 234.464V233.464H289.125V234.464H290.125ZM290.125 235.539H289.125V236.539H290.125V235.539ZM305.05 235.539V236.539H306.05V235.539H305.05ZM305.05 234.464H306.05V233.464H305.05V234.464ZM292.325 213.513C290.49 213.513 288.841 214.068 287.634 215.101C286.415 216.144 285.7 217.634 285.7 219.363H287.7C287.7 218.218 288.16 217.283 288.935 216.62C289.721 215.947 290.885 215.513 292.325 215.513V213.513ZM285.7 219.363C285.7 221.094 286.416 222.579 287.637 223.616C288.845 224.643 290.494 225.189 292.325 225.189V223.189C290.881 223.189 289.717 222.759 288.932 222.092C288.159 221.435 287.7 220.508 287.7 219.363H285.7ZM292.325 225.189C294.156 225.189 295.805 224.643 297.013 223.616C298.234 222.579 298.95 221.094 298.95 219.363H296.95C296.95 220.508 296.491 221.435 295.718 222.092C294.933 222.759 293.769 223.189 292.325 223.189V225.189ZM298.95 219.363C298.95 217.634 298.235 216.144 297.016 215.101C295.809 214.068 294.16 213.513 292.325 213.513V215.513C293.765 215.513 294.929 215.947 295.715 216.62C296.49 217.283 296.95 218.218 296.95 219.363H298.95ZM292.325 216.614C294.42 216.614 295.7 217.927 295.7 219.363H297.7C297.7 216.55 295.23 214.614 292.325 214.614V216.614ZM295.7 219.363C295.7 220.821 294.424 222.114 292.325 222.114V224.114C295.226 224.114 297.7 222.206 297.7 219.363H295.7ZM292.325 222.114C290.226 222.114 288.95 220.821 288.95 219.363H286.95C286.95 222.206 289.424 224.114 292.325 224.114V222.114ZM288.95 219.363C288.95 217.927 290.23 216.614 292.325 216.614V214.614C289.42 214.614 286.95 216.55 286.95 219.363H288.95ZM301.875 213.613V225.189H303.875V213.613H301.875ZM302.875 226.189H304.175V224.189H302.875V226.189ZM305.175 225.189V213.613H303.175V225.189H305.175ZM304.175 212.613H302.875V214.613H304.175V212.613ZM289.05 226.389V227.489H291.05V226.389H289.05ZM290.05 228.489H302.9V226.489H290.05V228.489ZM301.9 227.489V230.314H303.9V227.489H301.9ZM302.9 229.314H290.125V231.314H302.9V229.314ZM289.125 230.314V235.114H291.125V230.314H289.125ZM290.125 236.114H291.375V234.114H290.125V236.114ZM292.375 235.114V231.339H290.375V235.114H292.375ZM291.375 232.339H304.175V230.339H291.375V232.339ZM305.175 231.339V226.389H303.175V231.339H305.175ZM304.175 225.389H290.05V227.389H304.175V225.389ZM289.125 234.464V235.539H291.125V234.464H289.125ZM290.125 236.539H305.05V234.539H290.125V236.539ZM306.05 235.539V234.464H304.05V235.539H306.05ZM305.05 233.464H290.125V235.464H305.05V233.464ZM321.315 215.907L322.3 216.079L322.505 214.907H321.315V215.907ZM319.051 228.859V229.859H319.891L320.036 229.032L319.051 228.859ZM317.595 228.859L316.607 228.704L316.425 229.859H317.595V228.859ZM319.637 215.907V214.907H318.782L318.649 215.751L319.637 215.907ZM316.769 233.858L317.494 233.169L317.494 233.169L316.769 233.858ZM316.432 233.005L315.432 232.988L315.432 232.997V233.005H316.432ZM316.814 232.153L317.494 232.886L317.494 232.886L316.814 232.153ZM318.527 232.162L319.234 231.455L319.234 231.455L318.527 232.162ZM318.865 233.005L319.863 233.058L319.864 233.05L319.864 233.042L318.865 233.005ZM318.225 234.053L317.735 233.181L317.723 233.188L318.225 234.053ZM320.33 215.735L318.066 228.687L320.036 229.032L322.3 216.079L320.33 215.735ZM319.051 227.859H317.595V229.859H319.051V227.859ZM318.583 229.015L320.625 216.062L318.649 215.751L316.607 228.704L318.583 229.015ZM319.637 216.907H321.315V214.907H319.637V216.907ZM317.622 233.213C317.567 233.213 317.543 233.204 317.536 233.201C317.53 233.199 317.517 233.193 317.494 233.169L316.044 234.546C316.469 234.993 317.02 235.213 317.622 235.213V233.213ZM317.494 233.169C317.449 233.121 317.432 233.085 317.432 233.005H315.432C315.432 233.589 315.64 234.121 316.044 234.546L317.494 233.169ZM317.432 233.023C317.433 232.978 317.441 232.957 317.445 232.948C317.449 232.939 317.459 232.918 317.494 232.886L316.133 231.42C315.687 231.835 315.443 232.377 315.432 232.988L317.432 233.023ZM317.494 232.886C317.566 232.819 317.613 232.807 317.675 232.807V230.807C317.086 230.807 316.558 231.026 316.133 231.42L317.494 232.886ZM317.675 232.807C317.738 232.807 317.769 232.818 317.82 232.869L319.234 231.455C318.812 231.033 318.275 230.807 317.675 230.807V232.807ZM317.82 232.869C317.853 232.902 317.86 232.92 317.861 232.922C317.861 232.923 317.867 232.935 317.865 232.969L319.864 233.042C319.886 232.43 319.661 231.882 319.234 231.455L317.82 232.869ZM317.866 232.953C317.862 233.019 317.847 233.061 317.826 233.095L319.531 234.141C319.734 233.808 319.843 233.441 319.863 233.058L317.866 232.953ZM317.826 233.095C317.803 233.132 317.778 233.158 317.735 233.181L318.716 234.925C319.052 234.735 319.328 234.471 319.531 234.141L317.826 233.095ZM317.723 233.188C317.697 233.203 317.67 233.213 317.622 233.213V235.213C318.011 235.213 318.386 235.116 318.728 234.918L317.723 233.188Z" fill="white"/>
</g>
<g filter="url(#filter4_d_237_9)">
<path d="M265.551 15.0206L275.888 41.0571L313.963 33.2535L297.579 55.026L340.568 63.3302L303.72 72.5223L335.202 93.7625L291.966 86.863L299.915 112.926L266.805 92.5706L248.186 113.501L237.849 87.4648L199.773 95.2684L216.157 73.4959L173.169 65.1917L210.016 55.9996L178.535 34.7594L221.771 41.6589L213.821 15.5958L246.932 35.9514L265.551 15.0206Z" fill="white"/>
<path d="M265.385 15.9588L275.423 41.2416L275.578 41.6311L275.988 41.5469L312.77 34.0086L297.18 54.7253L296.698 55.365L297.485 55.5169L338.253 63.3924L303.599 72.0371L302.51 72.3089L303.441 72.9367L333.048 92.9124L292.044 86.3693L291.254 86.2431L291.487 87.0089L299.051 111.808L267.067 92.1446L266.71 91.9252L266.431 92.2382L248.351 112.563L238.313 87.2803L238.159 86.8908L237.748 86.975L200.967 94.5133L216.557 73.7966L217.038 73.1569L216.252 73.005L175.483 65.1296L210.137 56.4848L211.226 56.213L210.296 55.5852L180.689 35.6095L221.692 42.1526L222.483 42.2788L222.249 41.513L214.685 16.7137L246.67 36.3773L247.027 36.5967L247.305 36.2837L265.385 15.9588Z" stroke="#539FAD"/>
</g>
<g filter="url(#filter5_d_237_9)">
<path d="M229.407 70.1221L227.487 69.7836L239.081 49.6732L241.064 50.0228L245.081 72.8859L243.161 72.5474L239.723 52.2311L239.586 52.2071L229.407 70.1221ZM232.437 62.197L243.023 64.0636L242.733 65.7108L232.147 63.8442L232.437 62.197ZM258.872 53.1629L255.084 74.6497L253.258 74.3278L257.047 52.8411L258.872 53.1629ZM271.222 55.3406L268.397 70.6256L266.666 70.3203L269.24 54.991L271.222 55.3406ZM266.411 76.7985C266.019 76.7294 265.708 76.5303 265.478 76.2012C265.248 75.8721 265.167 75.5117 265.236 75.12C265.306 74.7213 265.506 74.4068 265.835 74.1763C266.164 73.9459 266.525 73.8652 266.916 73.9343C267.315 74.0046 267.629 74.2043 267.86 74.5334C268.09 74.8625 268.17 75.2264 268.1 75.625C268.054 75.8838 267.946 76.1099 267.775 76.3033C267.611 76.4979 267.409 76.6426 267.168 76.7373C266.929 76.8249 266.677 76.8453 266.411 76.7985ZM283.675 57.5363L280.85 72.8213L279.119 72.516L281.692 57.1867L283.675 57.5363ZM278.864 78.9942C278.472 78.9251 278.161 78.726 277.93 78.3969C277.7 78.0678 277.619 77.7074 277.688 77.3157C277.759 76.917 277.958 76.6025 278.287 76.372C278.617 76.1416 278.977 76.0609 279.369 76.13C279.767 76.2003 280.082 76.4 280.312 76.7291C280.543 77.0582 280.623 77.4221 280.553 77.8207C280.507 78.0795 280.399 78.3056 280.227 78.499C280.063 78.6936 279.861 78.8383 279.621 78.933C279.382 79.0206 279.129 79.041 278.864 78.9942Z" fill="#539FAD"/>
</g>
<g filter="url(#filter6_d_237_9)">
<path d="M72.479 129L62.5004 92.6364H65.6609L74.0415 124.241H74.3079L82.6353 92.6364H86.2575L94.5849 124.241H94.8512L103.232 92.6364H106.392L96.4137 129H93.0756L84.5529 97.7855H84.3398L75.8171 129H72.479ZM116.815 129.604C115.181 129.604 113.69 129.284 112.341 128.645C110.991 128.006 109.914 127.076 109.109 125.857C108.316 124.638 107.919 123.152 107.919 121.401C107.919 120.098 108.162 118.992 108.647 118.08C109.133 117.169 109.831 116.417 110.743 115.825C111.666 115.222 112.767 114.742 114.045 114.387C115.335 114.02 116.779 113.742 118.377 113.553C119.881 113.363 121.165 113.197 122.23 113.055C123.296 112.913 124.113 112.688 124.681 112.381C125.249 112.061 125.533 111.552 125.533 110.854V110.126C125.533 108.232 124.965 106.74 123.828 105.651C122.692 104.562 121.076 104.018 118.981 104.018C117.016 104.018 115.406 104.45 114.152 105.314C112.897 106.178 112.015 107.214 111.506 108.421L108.701 107.391C109.292 105.947 110.121 104.781 111.186 103.893C112.264 103.006 113.465 102.361 114.791 101.958C116.128 101.544 117.496 101.337 118.892 101.337C119.97 101.337 121.07 101.485 122.195 101.781C123.319 102.065 124.355 102.544 125.302 103.219C126.261 103.893 127.03 104.817 127.61 105.989C128.202 107.149 128.498 108.611 128.498 110.374V129H125.533V124.561H125.338C124.947 125.413 124.367 126.224 123.598 126.994C122.84 127.763 121.893 128.39 120.757 128.876C119.632 129.361 118.318 129.604 116.815 129.604ZM117.206 126.905C118.886 126.905 120.348 126.526 121.591 125.768C122.846 124.999 123.817 123.975 124.503 122.697C125.19 121.406 125.533 119.98 125.533 118.418V114.476C125.284 114.701 124.888 114.902 124.343 115.08C123.799 115.257 123.177 115.417 122.479 115.559C121.781 115.689 121.076 115.802 120.366 115.896C119.656 115.991 119.011 116.074 118.431 116.145C116.797 116.346 115.418 116.66 114.294 117.086C113.169 117.5 112.317 118.068 111.737 118.79C111.169 119.513 110.885 120.424 110.885 121.525C110.885 123.229 111.482 124.555 112.678 125.502C113.885 126.437 115.395 126.905 117.206 126.905ZM139.986 111.83V129H137.003V101.727H139.897V106.024H140.164C140.803 104.616 141.803 103.491 143.164 102.651C144.538 101.798 146.218 101.372 148.207 101.372C150.042 101.372 151.652 101.757 153.037 102.526C154.433 103.296 155.516 104.414 156.286 105.882C157.067 107.35 157.458 109.149 157.458 111.28V129H154.493V111.44C154.493 109.191 153.853 107.403 152.575 106.077C151.308 104.752 149.61 104.089 147.479 104.089C146.035 104.089 144.745 104.402 143.608 105.03C142.484 105.657 141.596 106.551 140.945 107.711C140.306 108.871 139.986 110.244 139.986 111.83ZM176.439 101.727V104.32H163.637V101.727H176.439ZM167.703 95.1932H170.668V122.004C170.668 123.141 170.869 124.04 171.272 124.703C171.674 125.354 172.195 125.822 172.834 126.106C173.473 126.39 174.16 126.532 174.894 126.532C175.308 126.532 175.663 126.502 175.959 126.443C176.255 126.384 176.516 126.325 176.74 126.266L177.397 128.947C177.078 129.065 176.699 129.172 176.261 129.266C175.823 129.361 175.284 129.408 174.645 129.408C173.485 129.408 172.373 129.154 171.307 128.645C170.254 128.136 169.39 127.384 168.715 126.39C168.04 125.384 167.703 124.153 167.703 122.697V95.1932ZM194.443 129.568C191.922 129.568 189.732 128.97 187.873 127.775C186.027 126.579 184.594 124.928 183.576 122.821C182.57 120.702 182.067 118.27 182.067 115.523C182.067 112.777 182.57 110.339 183.576 108.208C184.594 106.066 185.997 104.385 187.784 103.165C189.572 101.946 191.632 101.337 193.963 101.337C195.455 101.337 196.887 101.615 198.26 102.171C199.633 102.728 200.859 103.562 201.936 104.675C203.025 105.787 203.883 107.178 204.51 108.847C205.138 110.516 205.451 112.464 205.451 114.689V116.216H184.091V113.588H202.451C202.451 111.789 202.084 110.173 201.35 108.741C200.628 107.297 199.627 106.154 198.349 105.314C197.071 104.473 195.609 104.053 193.963 104.053C192.212 104.053 190.667 104.527 189.329 105.474C188.003 106.409 186.962 107.658 186.204 109.22C185.447 110.771 185.062 112.475 185.05 114.334V115.843C185.05 118.033 185.429 119.956 186.186 121.614C186.956 123.259 188.039 124.543 189.436 125.467C190.844 126.39 192.513 126.852 194.443 126.852C195.78 126.852 196.946 126.638 197.941 126.212C198.935 125.786 199.764 125.23 200.426 124.543C201.089 123.857 201.598 123.123 201.953 122.342L204.741 123.283C204.327 124.372 203.658 125.396 202.735 126.354C201.811 127.313 200.651 128.089 199.255 128.68C197.87 129.272 196.266 129.568 194.443 129.568ZM222.222 129.568C219.996 129.568 218.049 128.976 216.38 127.793C214.711 126.597 213.409 124.94 212.474 122.821C211.539 120.702 211.071 118.24 211.071 115.435C211.071 112.641 211.539 110.191 212.474 108.084C213.409 105.965 214.717 104.314 216.398 103.13C218.079 101.934 220.038 101.337 222.275 101.337C223.92 101.337 225.293 101.633 226.394 102.224C227.507 102.816 228.406 103.556 229.093 104.444C229.791 105.332 230.324 106.219 230.691 107.107H230.957V92.6364H233.94V129H231.046V123.762H230.691C230.312 124.662 229.774 125.561 229.075 126.461C228.377 127.349 227.465 128.089 226.341 128.68C225.228 129.272 223.855 129.568 222.222 129.568ZM222.577 126.852C224.352 126.852 225.867 126.36 227.122 125.378C228.377 124.395 229.336 123.04 229.999 121.312C230.673 119.584 231.011 117.613 231.011 115.399C231.011 113.186 230.679 111.227 230.016 109.522C229.353 107.817 228.395 106.48 227.14 105.509C225.885 104.539 224.364 104.053 222.577 104.053C220.742 104.053 219.191 104.556 217.925 105.562C216.658 106.557 215.693 107.912 215.031 109.629C214.379 111.333 214.054 113.257 214.054 115.399C214.054 117.542 214.379 119.483 215.031 121.223C215.693 122.951 216.658 124.324 217.925 125.342C219.203 126.348 220.754 126.852 222.577 126.852ZM91.7294 152.86V206.32H94.7894V152.86H91.7294ZM52.7294 159.1V161.74H83.1494V159.1H52.7294ZM51.8294 192.4C61.6694 192.4 74.8094 192.28 86.5094 190.48L86.2694 188.14C74.8094 189.52 61.4894 189.64 51.4094 189.64L51.8294 192.4ZM59.5094 160.96V190.36H62.5094V160.96H59.5094ZM73.3694 160.96V190.36H76.4294V160.96H73.3694ZM113.205 182.5V185.08H149.325V182.5H113.205ZM106.605 196.24V198.88H155.085V196.24H106.605ZM113.205 157.9V183.4H116.265V160.48H148.665V157.9H113.205ZM115.245 169.9V172.48H147.585V169.9H115.245ZM201.94 152.8V206.26H204.94V152.8H201.94ZM165.58 158.14V191.2H168.58V158.14H165.58ZM165.58 189.34V192.1H169.72C178.36 192.1 186.58 191.44 195.94 189.52L195.52 186.76C186.34 188.68 178.06 189.34 169.72 189.34H165.58ZM239.435 156.88V161.14C239.435 171.22 227.195 179.08 219.575 180.7L221.015 183.28C229.595 181 242.135 172.78 242.135 161.14V156.88H239.435ZM239.915 156.88V161.14C239.915 172.78 252.575 181.06 261.035 183.28L262.595 180.7C255.035 179.14 242.615 171.1 242.615 161.14V156.88H239.915ZM216.995 196V198.64H265.475V196H216.995Z" fill="white"/>
<path d="M72.479 129L71.5147 129.265C71.6339 129.699 72.0287 130 72.479 130V129ZM62.5004 92.6364V91.6364C62.1884 91.6364 61.8943 91.7819 61.7052 92.03C61.516 92.278 61.4535 92.6002 61.536 92.901L62.5004 92.6364ZM65.6609 92.6364L66.6275 92.3801C66.5112 91.9416 66.1144 91.6364 65.6609 91.6364V92.6364ZM74.0415 124.241L73.075 124.498C73.1912 124.936 73.588 125.241 74.0415 125.241V124.241ZM74.3079 124.241V125.241C74.762 125.241 75.1592 124.935 75.2749 124.496L74.3079 124.241ZM82.6353 92.6364V91.6364C82.1811 91.6364 81.784 91.9424 81.6683 92.3816L82.6353 92.6364ZM86.2575 92.6364L87.2245 92.3816C87.1087 91.9424 86.7116 91.6364 86.2575 91.6364V92.6364ZM94.5849 124.241L93.6179 124.496C93.7336 124.935 94.1307 125.241 94.5849 125.241V124.241ZM94.8512 124.241V125.241C95.3048 125.241 95.7015 124.936 95.8178 124.498L94.8512 124.241ZM103.232 92.6364V91.6364C102.778 91.6364 102.382 91.9416 102.265 92.3801L103.232 92.6364ZM106.392 92.6364L107.357 92.901C107.439 92.6002 107.377 92.278 107.188 92.03C106.998 91.7819 106.704 91.6364 106.392 91.6364V92.6364ZM96.4137 129V130C96.8641 130 97.2589 129.699 97.3781 129.265L96.4137 129ZM93.0756 129L92.111 129.263C92.2297 129.698 92.6248 130 93.0756 130V129ZM84.5529 97.7855L85.5176 97.5221C85.3988 97.0872 85.0038 96.7855 84.5529 96.7855V97.7855ZM84.3398 97.7855V96.7855C83.889 96.7855 83.4939 97.0872 83.3752 97.5221L84.3398 97.7855ZM75.8171 129V130C76.268 130 76.6631 129.698 76.7818 129.263L75.8171 129ZM73.4434 128.735L63.4647 92.3717L61.536 92.901L71.5147 129.265L73.4434 128.735ZM62.5004 93.6364H65.6609V91.6364H62.5004V93.6364ZM64.6943 92.8927L73.075 124.498L75.0081 123.985L66.6275 92.3801L64.6943 92.8927ZM74.0415 125.241H74.3079V123.241H74.0415V125.241ZM75.2749 124.496L83.6023 92.8911L81.6683 92.3816L73.3409 123.987L75.2749 124.496ZM82.6353 93.6364H86.2575V91.6364H82.6353V93.6364ZM85.2905 92.8911L93.6179 124.496L95.5519 123.987L87.2245 92.3816L85.2905 92.8911ZM94.5849 125.241H94.8512V123.241H94.5849V125.241ZM95.8178 124.498L104.198 92.8927L102.265 92.3801L93.8846 123.985L95.8178 124.498ZM103.232 93.6364H106.392V91.6364H103.232V93.6364ZM105.428 92.3717L95.4494 128.735L97.3781 129.265L107.357 92.901L105.428 92.3717ZM96.4137 128H93.0756V130H96.4137V128ZM94.0403 128.737L85.5176 97.5221L83.5882 98.0489L92.111 129.263L94.0403 128.737ZM84.5529 96.7855H84.3398V98.7855H84.5529V96.7855ZM83.3752 97.5221L74.8524 128.737L76.7818 129.263L85.3045 98.0489L83.3752 97.5221ZM75.8171 128H72.479V130H75.8171V128ZM112.341 128.645L111.912 129.549L111.912 129.549L112.341 128.645ZM109.109 125.857L108.271 126.403L108.274 126.408L109.109 125.857ZM108.647 118.08L109.53 118.55L109.53 118.55L108.647 118.08ZM110.743 115.825L111.287 116.664L111.29 116.662L110.743 115.825ZM114.045 114.387L114.313 115.351L114.319 115.349L114.045 114.387ZM118.377 113.553L118.495 114.546L118.502 114.545L118.377 113.553ZM122.23 113.055L122.098 112.064L122.098 112.064L122.23 113.055ZM124.681 112.381L125.157 113.26C125.162 113.257 125.166 113.255 125.171 113.252L124.681 112.381ZM123.828 105.651L123.137 106.373L123.137 106.373L123.828 105.651ZM114.152 105.314L114.719 106.138L114.719 106.138L114.152 105.314ZM111.506 108.421L111.161 109.36C111.663 109.544 112.22 109.302 112.428 108.81L111.506 108.421ZM108.701 107.391L107.775 107.012C107.672 107.263 107.676 107.546 107.786 107.795C107.895 108.043 108.101 108.236 108.356 108.33L108.701 107.391ZM111.186 103.893L110.55 103.122L110.546 103.125L111.186 103.893ZM114.791 101.958L115.081 102.915L115.087 102.913L114.791 101.958ZM122.195 101.781L121.94 102.748L121.95 102.75L122.195 101.781ZM125.302 103.219L124.722 104.033L124.727 104.037L125.302 103.219ZM127.61 105.989L126.714 106.432L126.72 106.443L127.61 105.989ZM128.498 129V130C129.051 130 129.498 129.552 129.498 129H128.498ZM125.533 129H124.533C124.533 129.552 124.981 130 125.533 130V129ZM125.533 124.561H126.533C126.533 124.009 126.085 123.561 125.533 123.561V124.561ZM125.338 124.561V123.561C124.947 123.561 124.592 123.789 124.429 124.144L125.338 124.561ZM123.598 126.994L122.891 126.286L122.885 126.292L123.598 126.994ZM120.757 128.876L120.364 127.956L120.36 127.958L120.757 128.876ZM121.591 125.768L122.112 126.622L122.114 126.621L121.591 125.768ZM124.503 122.697L125.384 123.17L125.386 123.166L124.503 122.697ZM125.533 114.476H126.533C126.533 114.08 126.3 113.722 125.939 113.562C125.577 113.401 125.155 113.469 124.862 113.734L125.533 114.476ZM124.343 115.08L124.653 116.03L124.653 116.03L124.343 115.08ZM122.479 115.559L122.662 116.542C122.668 116.541 122.673 116.54 122.678 116.539L122.479 115.559ZM120.366 115.896L120.234 114.905L120.234 114.905L120.366 115.896ZM118.431 116.145L118.309 115.152L118.308 115.152L118.431 116.145ZM114.294 117.086L114.639 118.024L114.648 118.021L114.294 117.086ZM111.737 118.79L110.957 118.164L110.951 118.172L111.737 118.79ZM112.678 125.502L112.057 126.286L112.066 126.293L112.678 125.502ZM116.815 128.604C115.315 128.604 113.972 128.311 112.769 127.741L111.912 129.549C113.408 130.257 115.048 130.604 116.815 130.604V128.604ZM112.769 127.741C111.581 127.178 110.645 126.369 109.944 125.306L108.274 126.408C109.182 127.783 110.402 128.833 111.912 129.549L112.769 127.741ZM109.947 125.312C109.28 124.286 108.919 122.999 108.919 121.401H106.919C106.919 123.306 107.352 124.99 108.271 126.403L109.947 125.312ZM108.919 121.401C108.919 120.221 109.139 119.284 109.53 118.55L107.765 117.61C107.185 118.699 106.919 119.976 106.919 121.401H108.919ZM109.53 118.55C109.932 117.796 110.51 117.169 111.287 116.664L110.198 114.987C109.152 115.666 108.334 116.541 107.765 117.61L109.53 118.55ZM111.29 116.662C112.112 116.125 113.114 115.684 114.313 115.351L113.777 113.424C112.419 113.801 111.22 114.318 110.195 114.988L111.29 116.662ZM114.319 115.349C115.549 114.999 116.94 114.73 118.495 114.546L118.26 112.56C116.619 112.754 115.122 113.041 113.772 113.425L114.319 115.349ZM118.502 114.545C120.007 114.355 121.294 114.189 122.363 114.047L122.098 112.064C121.036 112.206 119.754 112.371 118.252 112.56L118.502 114.545ZM122.363 114.047C123.479 113.898 124.434 113.652 125.157 113.26L124.204 111.501C123.791 111.725 123.112 111.929 122.098 112.064L122.363 114.047ZM125.171 113.252C126.081 112.741 126.533 111.882 126.533 110.854H124.533C124.533 111.222 124.417 111.382 124.19 111.509L125.171 113.252ZM126.533 110.854V110.126H124.533V110.854H126.533ZM126.533 110.126C126.533 108.019 125.893 106.245 124.52 104.929L123.137 106.373C124.037 107.236 124.533 108.445 124.533 110.126H126.533ZM124.52 104.929C123.143 103.609 121.247 103.018 118.981 103.018V105.018C120.906 105.018 122.241 105.515 123.137 106.373L124.52 104.929ZM118.981 103.018C116.872 103.018 115.048 103.482 113.584 104.49L114.719 106.138C115.764 105.417 117.16 105.018 118.981 105.018V103.018ZM113.584 104.49C112.199 105.445 111.179 106.622 110.585 108.033L112.428 108.81C112.851 107.805 113.595 106.911 114.719 106.138L113.584 104.49ZM111.851 107.482L109.045 106.453L108.356 108.33L111.161 109.36L111.851 107.482ZM109.626 107.771C110.164 106.458 110.902 105.432 111.827 104.662L110.546 103.125C109.341 104.13 108.421 105.436 107.775 107.012L109.626 107.771ZM111.822 104.665C112.799 103.861 113.883 103.279 115.081 102.915L114.5 101.001C113.047 101.442 111.729 102.151 110.55 103.122L111.822 104.665ZM115.087 102.913C116.329 102.529 117.596 102.337 118.892 102.337V100.337C117.395 100.337 115.928 100.559 114.495 101.003L115.087 102.913ZM118.892 102.337C119.877 102.337 120.892 102.472 121.94 102.748L122.449 100.813C121.248 100.497 120.062 100.337 118.892 100.337V102.337ZM121.95 102.75C122.954 103.004 123.876 103.43 124.722 104.033L125.882 102.404C124.835 101.658 123.685 101.126 122.44 100.811L121.95 102.75ZM124.727 104.037C125.534 104.605 126.2 105.392 126.714 106.432L128.507 105.545C127.861 104.241 126.988 103.182 125.878 102.401L124.727 104.037ZM126.72 106.443C127.219 107.422 127.498 108.715 127.498 110.374H129.498C129.498 108.506 129.186 106.876 128.501 105.534L126.72 106.443ZM127.498 110.374V129H129.498V110.374H127.498ZM128.498 128H125.533V130H128.498V128ZM126.533 129V124.561H124.533V129H126.533ZM125.533 123.561H125.338V125.561H125.533V123.561ZM124.429 124.144C124.095 124.873 123.589 125.588 122.891 126.287L124.305 127.701C125.145 126.861 125.799 125.954 126.247 124.978L124.429 124.144ZM122.885 126.292C122.231 126.956 121.398 127.515 120.364 127.956L121.15 129.795C122.389 129.266 123.449 128.57 124.31 127.695L122.885 126.292ZM120.36 127.958C119.386 128.378 118.212 128.604 116.815 128.604V130.604C118.424 130.604 119.878 130.344 121.153 129.794L120.36 127.958ZM117.206 127.905C119.041 127.905 120.689 127.489 122.112 126.622L121.071 124.915C120.008 125.563 118.732 125.905 117.206 125.905V127.905ZM122.114 126.621C123.517 125.76 124.613 124.607 125.384 123.17L123.622 122.224C123.021 123.344 122.175 124.238 121.069 124.916L122.114 126.621ZM125.386 123.166C126.155 121.722 126.533 120.132 126.533 118.418H124.533C124.533 119.828 124.225 121.091 123.62 122.227L125.386 123.166ZM126.533 118.418V114.476H124.533V118.418H126.533ZM124.862 113.734C124.767 113.821 124.526 113.968 124.033 114.129L124.653 116.03C125.25 115.836 125.802 115.581 126.204 115.217L124.862 113.734ZM124.033 114.129C123.533 114.292 122.949 114.443 122.28 114.579L122.678 116.539C123.406 116.391 124.065 116.222 124.653 116.03L124.033 114.129ZM122.296 114.576C121.614 114.703 120.927 114.813 120.234 114.905L120.498 116.888C121.225 116.791 121.947 116.675 122.662 116.542L122.296 114.576ZM120.234 114.905C119.527 114.999 118.885 115.082 118.309 115.152L118.552 117.137C119.137 117.066 119.785 116.983 120.498 116.888L120.234 114.905ZM118.308 115.152C116.623 115.36 115.16 115.688 113.939 116.151L114.648 118.021C115.676 117.631 116.972 117.332 118.553 117.137L118.308 115.152ZM113.948 116.148C112.702 116.607 111.68 117.265 110.957 118.164L112.516 119.417C112.954 118.872 113.636 118.394 114.639 118.024L113.948 116.148ZM110.951 118.172C110.218 119.103 109.885 120.246 109.885 121.525H111.885C111.885 120.602 112.119 119.922 112.523 119.409L110.951 118.172ZM109.885 121.525C109.885 123.494 110.592 125.125 112.057 126.286L113.299 124.718C112.373 123.985 111.885 122.965 111.885 121.525H109.885ZM112.066 126.293C113.479 127.388 115.216 127.905 117.206 127.905V125.905C115.574 125.905 114.291 125.487 113.29 124.712L112.066 126.293ZM139.986 129V130C140.538 130 140.986 129.552 140.986 129H139.986ZM137.003 129H136.003C136.003 129.552 136.451 130 137.003 130V129ZM137.003 101.727V100.727C136.451 100.727 136.003 101.175 136.003 101.727H137.003ZM139.897 101.727H140.897C140.897 101.175 140.45 100.727 139.897 100.727V101.727ZM139.897 106.024H138.897C138.897 106.576 139.345 107.024 139.897 107.024V106.024ZM140.164 106.024V107.024C140.556 107.024 140.912 106.795 141.074 106.437L140.164 106.024ZM143.164 102.651L143.69 103.501L143.692 103.5L143.164 102.651ZM153.037 102.526L152.551 103.4L152.554 103.402L153.037 102.526ZM156.286 105.882L155.4 106.346L155.403 106.352L156.286 105.882ZM157.458 129V130C158.01 130 158.458 129.552 158.458 129H157.458ZM154.493 129H153.493C153.493 129.552 153.94 130 154.493 130V129ZM152.575 106.077L151.852 106.768L151.855 106.772L152.575 106.077ZM143.608 105.03L143.125 104.154L143.121 104.157L143.608 105.03ZM140.945 107.711L140.073 107.222L140.069 107.228L140.945 107.711ZM138.986 111.83V129H140.986V111.83H138.986ZM139.986 128H137.003V130H139.986V128ZM138.003 129V101.727H136.003V129H138.003ZM137.003 102.727H139.897V100.727H137.003V102.727ZM138.897 101.727V106.024H140.897V101.727H138.897ZM139.897 107.024H140.164V105.024H139.897V107.024ZM141.074 106.437C141.629 105.216 142.491 104.241 143.69 103.501L142.639 101.8C141.115 102.741 139.977 104.015 139.253 105.611L141.074 106.437ZM143.692 103.5C144.874 102.767 146.362 102.372 148.207 102.372V100.372C146.075 100.372 144.201 100.83 142.637 101.801L143.692 103.5ZM148.207 102.372C149.899 102.372 151.337 102.726 152.551 103.4L153.522 101.652C151.967 100.788 150.185 100.372 148.207 100.372V102.372ZM152.554 103.402C153.772 104.073 154.718 105.045 155.4 106.346L157.172 105.418C156.315 103.783 155.095 102.518 153.519 101.65L152.554 103.402ZM155.403 106.352C156.089 107.64 156.458 109.268 156.458 111.28H158.458C158.458 109.03 158.045 107.06 157.169 105.412L155.403 106.352ZM156.458 111.28V129H158.458V111.28H156.458ZM157.458 128H154.493V130H157.458V128ZM155.493 129V111.44H153.493V129H155.493ZM155.493 111.44C155.493 108.992 154.791 106.935 153.295 105.383L151.855 106.772C152.916 107.871 153.493 109.389 153.493 111.44H155.493ZM153.298 105.387C151.812 103.831 149.835 103.089 147.479 103.089V105.089C149.385 105.089 150.805 105.672 151.852 106.768L153.298 105.387ZM147.479 103.089C145.885 103.089 144.425 103.436 143.125 104.154L144.092 105.905C145.064 105.369 146.185 105.089 147.479 105.089V103.089ZM143.121 104.157C141.83 104.877 140.811 105.906 140.073 107.222L141.817 108.2C142.381 107.196 143.138 106.437 144.096 105.903L143.121 104.157ZM140.069 107.228C139.334 108.563 138.986 110.109 138.986 111.83H140.986C140.986 110.38 141.278 109.179 141.821 108.194L140.069 107.228ZM176.439 101.727H177.439C177.439 101.175 176.991 100.727 176.439 100.727V101.727ZM176.439 104.32V105.32C176.991 105.32 177.439 104.872 177.439 104.32H176.439ZM163.637 104.32H162.637C162.637 104.872 163.084 105.32 163.637 105.32V104.32ZM163.637 101.727V100.727C163.084 100.727 162.637 101.175 162.637 101.727H163.637ZM167.703 95.1932V94.1932C167.15 94.1932 166.703 94.6409 166.703 95.1932H167.703ZM170.668 95.1932H171.668C171.668 94.6409 171.22 94.1932 170.668 94.1932V95.1932ZM171.272 124.703L170.417 125.222L170.421 125.229L171.272 124.703ZM172.834 126.106L173.24 125.192L173.24 125.192L172.834 126.106ZM175.959 126.443L175.763 125.463L175.763 125.463L175.959 126.443ZM176.74 126.266L177.712 126.028C177.648 125.767 177.482 125.543 177.252 125.406C177.021 125.269 176.745 125.23 176.486 125.299L176.74 126.266ZM177.397 128.947L177.745 129.884C178.221 129.708 178.49 129.202 178.369 128.709L177.397 128.947ZM176.261 129.266L176.472 130.244L176.472 130.244L176.261 129.266ZM171.307 128.645L170.872 129.545L170.876 129.547L171.307 128.645ZM168.715 126.39L167.884 126.947L167.887 126.951L168.715 126.39ZM175.439 101.727V104.32H177.439V101.727H175.439ZM176.439 103.32H163.637V105.32H176.439V103.32ZM164.637 104.32V101.727H162.637V104.32H164.637ZM163.637 102.727H176.439V100.727H163.637V102.727ZM167.703 96.1932H170.668V94.1932H167.703V96.1932ZM169.668 95.1932V122.004H171.668V95.1932H169.668ZM169.668 122.004C169.668 123.244 169.885 124.346 170.417 125.222L172.126 124.184C171.853 123.734 171.668 123.038 171.668 122.004H169.668ZM170.421 125.229C170.919 126.034 171.588 126.646 172.428 127.02L173.24 125.192C172.802 124.997 172.429 124.674 172.122 124.177L170.421 125.229ZM172.428 127.02C173.201 127.363 174.027 127.532 174.894 127.532V125.532C174.293 125.532 173.745 125.416 173.24 125.192L172.428 127.02ZM174.894 127.532C175.351 127.532 175.776 127.5 176.155 127.424L175.763 125.463C175.551 125.505 175.265 125.532 174.894 125.532V127.532ZM176.155 127.424C176.465 127.362 176.746 127.298 176.995 127.233L176.486 125.299C176.285 125.351 176.045 125.406 175.763 125.463L176.155 127.424ZM175.769 126.504L176.426 129.185L178.369 128.709L177.712 126.028L175.769 126.504ZM177.05 128.009C176.786 128.107 176.455 128.201 176.05 128.289L176.472 130.244C176.943 130.142 177.369 130.023 177.745 129.884L177.05 128.009ZM176.05 128.289C175.704 128.364 175.241 128.408 174.645 128.408V130.408C175.328 130.408 175.942 130.358 176.472 130.244L176.05 128.289ZM174.645 128.408C173.637 128.408 172.671 128.188 171.738 127.743L170.876 129.547C172.074 130.119 173.333 130.408 174.645 130.408V128.408ZM171.742 127.744C170.851 127.314 170.121 126.681 169.542 125.828L167.887 126.951C168.658 128.087 169.656 128.958 170.872 129.545L171.742 127.744ZM169.545 125.833C169.002 125.022 168.703 123.995 168.703 122.697H166.703C166.703 124.31 167.078 125.745 167.884 126.947L169.545 125.833ZM168.703 122.697V95.1932H166.703V122.697H168.703ZM187.873 127.775L187.33 128.614L187.332 128.616L187.873 127.775ZM183.576 122.821L182.673 123.25L182.676 123.256L183.576 122.821ZM183.576 108.208L182.673 107.779L182.672 107.781L183.576 108.208ZM187.784 103.165L187.221 102.339L187.221 102.339L187.784 103.165ZM198.26 102.171L198.636 101.244L198.636 101.244L198.26 102.171ZM201.936 104.675L201.217 105.37L201.221 105.374L201.936 104.675ZM204.51 108.847L205.446 108.495L205.446 108.495L204.51 108.847ZM205.451 116.216V117.216C206.004 117.216 206.451 116.768 206.451 116.216H205.451ZM184.091 116.216H183.091C183.091 116.768 183.539 117.216 184.091 117.216V116.216ZM184.091 113.588V112.588C183.539 112.588 183.091 113.036 183.091 113.588H184.091ZM202.451 113.588V114.588C203.003 114.588 203.451 114.14 203.451 113.588H202.451ZM201.35 108.741L200.455 109.188L200.46 109.197L201.35 108.741ZM198.349 105.314L197.8 106.15L197.8 106.15L198.349 105.314ZM189.329 105.474L189.906 106.291L189.907 106.29L189.329 105.474ZM186.204 109.22L187.103 109.659L187.104 109.656L186.204 109.22ZM185.05 114.334L184.05 114.327V114.334H185.05ZM186.186 121.614L185.277 122.029L185.281 122.037L186.186 121.614ZM189.436 125.467L188.884 126.301L188.888 126.303L189.436 125.467ZM197.941 126.212L198.335 127.132L198.335 127.132L197.941 126.212ZM200.426 124.543L201.146 125.238L201.146 125.238L200.426 124.543ZM201.953 122.342L202.273 121.394C201.787 121.23 201.255 121.461 201.043 121.928L201.953 122.342ZM204.741 123.283L205.676 123.638C205.772 123.384 205.761 123.102 205.646 122.856C205.53 122.61 205.318 122.422 205.061 122.335L204.741 123.283ZM202.735 126.354L203.455 127.048L203.455 127.048L202.735 126.354ZM199.255 128.68L198.864 127.76L198.862 127.761L199.255 128.68ZM194.443 128.568C192.086 128.568 190.089 128.012 188.414 126.934L187.332 128.616C189.374 129.929 191.757 130.568 194.443 130.568V128.568ZM188.417 126.935C186.734 125.846 185.42 124.339 184.477 122.386L182.676 123.256C183.768 125.517 185.319 127.313 187.33 128.614L188.417 126.935ZM184.48 122.392C183.547 120.428 183.067 118.146 183.067 115.523H181.067C181.067 118.393 181.593 120.976 182.673 123.25L184.48 122.392ZM183.067 115.523C183.067 112.901 183.547 110.612 184.481 108.635L182.672 107.781C181.593 110.066 181.067 112.654 181.067 115.523H183.067ZM184.48 108.637C185.429 106.639 186.721 105.101 188.348 103.992L187.221 102.339C185.273 103.668 183.76 105.492 182.673 107.779L184.48 108.637ZM188.348 103.992C189.956 102.895 191.816 102.337 193.963 102.337V100.337C191.447 100.337 189.187 100.998 187.221 102.339L188.348 103.992ZM193.963 102.337C195.327 102.337 196.632 102.59 197.885 103.098L198.636 101.244C197.143 100.639 195.583 100.337 193.963 100.337V102.337ZM197.885 103.098C199.123 103.6 200.233 104.353 201.217 105.37L202.654 103.979C201.485 102.771 200.144 101.855 198.636 101.244L197.885 103.098ZM201.221 105.374C202.2 106.374 202.989 107.641 203.574 109.199L205.446 108.495C204.777 106.715 203.85 105.201 202.65 103.975L201.221 105.374ZM203.574 109.199C204.15 110.732 204.451 112.555 204.451 114.689H206.451C206.451 112.372 206.125 110.301 205.446 108.495L203.574 109.199ZM204.451 114.689V116.216H206.451V114.689H204.451ZM205.451 115.216H184.091V117.216H205.451V115.216ZM185.091 116.216V113.588H183.091V116.216H185.091ZM184.091 114.588H202.451V112.588H184.091V114.588ZM203.451 113.588C203.451 111.649 203.054 109.874 202.24 108.285L200.46 109.197C201.113 110.472 201.451 111.928 201.451 113.588H203.451ZM202.244 108.294C201.448 106.701 200.332 105.421 198.898 104.478L197.8 106.15C198.923 106.888 199.808 107.892 200.455 109.188L202.244 108.294ZM198.898 104.478C197.444 103.522 195.789 103.053 193.963 103.053V105.053C195.429 105.053 196.697 105.425 197.8 106.15L198.898 104.478ZM193.963 103.053C192.02 103.053 190.27 103.583 188.751 104.658L189.907 106.29C191.064 105.471 192.403 105.053 193.963 105.053V103.053ZM188.753 104.657C187.279 105.696 186.13 107.08 185.304 108.784L187.104 109.656C187.793 108.235 188.728 107.122 189.906 106.291L188.753 104.657ZM185.306 108.781C184.477 110.477 184.063 112.331 184.05 114.327L186.05 114.34C186.061 112.62 186.416 111.065 187.103 109.659L185.306 108.781ZM184.05 114.334V115.843H186.05V114.334H184.05ZM184.05 115.843C184.05 118.148 184.449 120.218 185.277 122.029L187.096 121.198C186.409 119.695 186.05 117.918 186.05 115.843H184.05ZM185.281 122.037C186.121 123.835 187.321 125.267 188.884 126.301L189.987 124.632C188.757 123.819 187.791 122.683 187.092 121.19L185.281 122.037ZM188.888 126.303C190.482 127.348 192.348 127.852 194.443 127.852V125.852C192.679 125.852 191.207 125.432 189.984 124.63L188.888 126.303ZM194.443 127.852C195.885 127.852 197.19 127.622 198.335 127.132L197.547 125.293C196.703 125.655 195.676 125.852 194.443 125.852V127.852ZM198.335 127.132C199.435 126.66 200.379 126.032 201.146 125.238L199.707 123.849C199.148 124.428 198.435 124.913 197.547 125.293L198.335 127.132ZM201.146 125.238C201.879 124.478 202.457 123.651 202.864 122.755L201.043 121.928C200.74 122.594 200.3 123.235 199.707 123.849L201.146 125.238ZM201.634 123.289L204.421 124.23L205.061 122.335L202.273 121.394L201.634 123.289ZM203.806 122.927C203.446 123.873 202.857 124.785 202.014 125.661L203.455 127.048C204.459 126.006 205.207 124.87 205.676 123.638L203.806 122.927ZM202.014 125.661C201.197 126.51 200.154 127.213 198.864 127.76L199.645 129.601C201.149 128.964 202.426 128.117 203.455 127.048L202.014 125.661ZM198.862 127.761C197.624 128.29 196.158 128.568 194.443 128.568V130.568C196.373 130.568 198.115 130.255 199.648 129.6L198.862 127.761ZM216.38 127.793L215.798 128.606L215.801 128.608L216.38 127.793ZM212.474 122.821L213.389 122.417L213.389 122.417L212.474 122.821ZM212.474 108.084L213.388 108.489L213.389 108.488L212.474 108.084ZM216.398 103.13L216.974 103.948L216.977 103.945L216.398 103.13ZM226.394 102.224L225.921 103.105L225.925 103.107L226.394 102.224ZM229.093 104.444L228.302 105.056L228.307 105.062L229.093 104.444ZM230.691 107.107L229.767 107.489C229.921 107.863 230.286 108.107 230.691 108.107V107.107ZM230.957 107.107V108.107C231.51 108.107 231.957 107.66 231.957 107.107H230.957ZM230.957 92.6364V91.6364C230.405 91.6364 229.957 92.0841 229.957 92.6364H230.957ZM233.94 92.6364H234.94C234.94 92.0841 234.493 91.6364 233.94 91.6364V92.6364ZM233.94 129V130C234.493 130 234.94 129.552 234.94 129H233.94ZM231.046 129H230.046C230.046 129.552 230.494 130 231.046 130V129ZM231.046 123.762H232.046C232.046 123.21 231.598 122.762 231.046 122.762V123.762ZM230.691 123.762V122.762C230.289 122.762 229.926 123.003 229.769 123.374L230.691 123.762ZM229.075 126.461L229.861 127.079L229.865 127.074L229.075 126.461ZM226.341 128.68L225.875 127.795L225.871 127.798L226.341 128.68ZM227.122 125.378L226.506 124.59L226.506 124.59L227.122 125.378ZM229.999 121.312L229.067 120.948L229.065 120.954L229.999 121.312ZM230.016 109.522L229.084 109.884L229.084 109.884L230.016 109.522ZM227.14 105.509L226.528 106.3L226.528 106.3L227.14 105.509ZM217.925 105.562L218.542 106.349L218.547 106.346L217.925 105.562ZM215.031 109.629L214.098 109.268L214.096 109.272L215.031 109.629ZM215.031 121.223L214.094 121.573L214.097 121.581L215.031 121.223ZM217.925 125.342L217.298 126.122L217.306 126.128L217.925 125.342ZM222.222 128.568C220.184 128.568 218.443 128.03 216.958 126.977L215.801 128.608C217.655 129.923 219.808 130.568 222.222 130.568V128.568ZM216.962 126.98C215.457 125.901 214.261 124.394 213.389 122.417L211.559 123.225C212.557 125.486 213.965 127.293 215.798 128.606L216.962 126.98ZM213.389 122.417C212.52 120.45 212.071 118.13 212.071 115.435H210.071C210.071 118.35 210.557 120.955 211.559 123.225L213.389 122.417ZM212.071 115.435C212.071 112.752 212.52 110.445 213.388 108.489L211.56 107.678C210.557 109.937 210.071 112.53 210.071 115.435H212.071ZM213.389 108.488C214.26 106.513 215.459 105.014 216.974 103.948L215.822 102.312C213.974 103.613 212.558 105.417 211.559 107.68L213.389 108.488ZM216.977 103.945C218.474 102.88 220.227 102.337 222.275 102.337V100.337C219.848 100.337 217.683 100.989 215.818 102.315L216.977 103.945ZM222.275 102.337C223.805 102.337 225.004 102.612 225.921 103.105L226.868 101.344C225.583 100.653 224.035 100.337 222.275 100.337V102.337ZM225.925 103.107C226.928 103.641 227.712 104.293 228.302 105.056L229.884 103.832C229.101 102.819 228.086 101.992 226.864 101.342L225.925 103.107ZM228.307 105.062C228.958 105.89 229.44 106.7 229.767 107.489L231.615 106.725C231.208 105.739 230.624 104.773 229.879 103.826L228.307 105.062ZM230.691 108.107H230.957V106.107H230.691V108.107ZM231.957 107.107V92.6364H229.957V107.107H231.957ZM230.957 93.6364H233.94V91.6364H230.957V93.6364ZM232.94 92.6364V129H234.94V92.6364H232.94ZM233.94 128H231.046V130H233.94V128ZM232.046 129V123.762H230.046V129H232.046ZM231.046 122.762H230.691V124.762H231.046V122.762ZM229.769 123.374C229.43 124.181 228.939 125.006 228.285 125.848L229.865 127.074C230.608 126.117 231.195 125.142 231.613 124.15L229.769 123.374ZM228.289 125.843C227.688 126.607 226.891 127.261 225.875 127.795L226.807 129.565C228.04 128.916 229.066 128.09 229.861 127.079L228.289 125.843ZM225.871 127.798C224.94 128.293 223.738 128.568 222.222 128.568V130.568C223.972 130.568 225.517 130.251 226.811 129.563L225.871 127.798ZM222.577 127.852C224.549 127.852 226.288 127.301 227.739 126.165L226.506 124.59C225.447 125.419 224.156 125.852 222.577 125.852V127.852ZM227.739 126.165C229.158 125.054 230.215 123.54 230.932 121.67L229.065 120.954C228.456 122.54 227.596 123.737 226.506 124.59L227.739 126.165ZM230.93 121.675C231.658 119.811 232.011 117.714 232.011 115.399H230.011C230.011 117.512 229.689 119.356 229.067 120.948L230.93 121.675ZM232.011 115.399C232.011 113.087 231.665 111.001 230.948 109.16L229.084 109.884C229.694 111.452 230.011 113.284 230.011 115.399H232.011ZM230.948 109.16C230.23 107.312 229.171 105.816 227.752 104.718L226.528 106.3C227.618 107.144 228.477 108.323 229.084 109.884L230.948 109.16ZM227.752 104.718C226.3 103.595 224.556 103.053 222.577 103.053V105.053C224.172 105.053 225.47 105.482 226.528 106.3L227.752 104.718ZM222.577 103.053C220.548 103.053 218.77 103.614 217.303 104.779L218.547 106.346C219.613 105.499 220.936 105.053 222.577 105.053V103.053ZM217.307 104.776C215.88 105.896 214.816 107.408 214.098 109.268L215.963 109.989C216.571 108.416 217.436 107.217 218.542 106.349L217.307 104.776ZM214.096 109.272C213.395 111.108 213.054 113.156 213.054 115.399H215.054C215.054 113.358 215.364 111.558 215.965 109.985L214.096 109.272ZM213.054 115.399C213.054 117.643 213.395 119.706 214.094 121.573L215.967 120.873C215.364 119.26 215.054 117.44 215.054 115.399H213.054ZM214.097 121.581C214.814 123.451 215.876 124.978 217.298 126.122L218.551 124.563C217.441 123.67 216.573 122.451 215.964 120.865L214.097 121.581ZM217.306 126.128C218.782 127.29 220.558 127.852 222.577 127.852V125.852C220.95 125.852 219.624 125.407 218.543 124.557L217.306 126.128ZM91.7294 152.86V151.86C91.1771 151.86 90.7294 152.308 90.7294 152.86H91.7294ZM91.7294 206.32H90.7294C90.7294 206.872 91.1771 207.32 91.7294 207.32V206.32ZM94.7894 206.32V207.32C95.3417 207.32 95.7894 206.872 95.7894 206.32H94.7894ZM94.7894 152.86H95.7894C95.7894 152.308 95.3417 151.86 94.7894 151.86V152.86ZM52.7294 159.1V158.1C52.1771 158.1 51.7294 158.548 51.7294 159.1H52.7294ZM52.7294 161.74H51.7294C51.7294 162.292 52.1771 162.74 52.7294 162.74V161.74ZM83.1494 161.74V162.74C83.7017 162.74 84.1494 162.292 84.1494 161.74H83.1494ZM83.1494 159.1H84.1494C84.1494 158.548 83.7017 158.1 83.1494 158.1V159.1ZM51.8294 192.4L50.8408 192.55C50.9151 193.039 51.3352 193.4 51.8294 193.4V192.4ZM86.5094 190.48L86.6614 191.468C87.1879 191.387 87.5585 190.908 87.5042 190.378L86.5094 190.48ZM86.2694 188.14L87.2642 188.038C87.2368 187.771 87.1033 187.526 86.8938 187.359C86.6842 187.191 86.4162 187.115 86.1498 187.147L86.2694 188.14ZM51.4094 189.64V188.64C51.1179 188.64 50.8409 188.767 50.6509 188.988C50.461 189.209 50.3769 189.502 50.4208 189.79L51.4094 189.64ZM59.5094 160.96V159.96C58.9571 159.96 58.5094 160.408 58.5094 160.96H59.5094ZM59.5094 190.36H58.5094C58.5094 190.912 58.9571 191.36 59.5094 191.36V190.36ZM62.5094 190.36V191.36C63.0617 191.36 63.5094 190.912 63.5094 190.36H62.5094ZM62.5094 160.96H63.5094C63.5094 160.408 63.0617 159.96 62.5094 159.96V160.96ZM73.3694 160.96V159.96C72.8171 159.96 72.3694 160.408 72.3694 160.96H73.3694ZM73.3694 190.36H72.3694C72.3694 190.912 72.8171 191.36 73.3694 191.36V190.36ZM76.4294 190.36V191.36C76.9817 191.36 77.4294 190.912 77.4294 190.36H76.4294ZM76.4294 160.96H77.4294C77.4294 160.408 76.9817 159.96 76.4294 159.96V160.96ZM90.7294 152.86V206.32H92.7294V152.86H90.7294ZM91.7294 207.32H94.7894V205.32H91.7294V207.32ZM95.7894 206.32V152.86H93.7894V206.32H95.7894ZM94.7894 151.86H91.7294V153.86H94.7894V151.86ZM51.7294 159.1V161.74H53.7294V159.1H51.7294ZM52.7294 162.74H83.1494V160.74H52.7294V162.74ZM84.1494 161.74V159.1H82.1494V161.74H84.1494ZM83.1494 158.1H52.7294V160.1H83.1494V158.1ZM51.8294 193.4C61.6653 193.4 74.8764 193.281 86.6614 191.468L86.3573 189.492C74.7423 191.279 61.6734 191.4 51.8294 191.4V193.4ZM87.5042 190.378L87.2642 188.038L85.2746 188.242L85.5146 190.582L87.5042 190.378ZM86.1498 187.147C74.7567 188.519 61.4923 188.64 51.4094 188.64V190.64C61.4865 190.64 74.862 190.521 86.3889 189.133L86.1498 187.147ZM50.4208 189.79L50.8408 192.55L52.818 192.25L52.398 189.49L50.4208 189.79ZM58.5094 160.96V190.36H60.5094V160.96H58.5094ZM59.5094 191.36H62.5094V189.36H59.5094V191.36ZM63.5094 190.36V160.96H61.5094V190.36H63.5094ZM62.5094 159.96H59.5094V161.96H62.5094V159.96ZM72.3694 160.96V190.36H74.3694V160.96H72.3694ZM73.3694 191.36H76.4294V189.36H73.3694V191.36ZM77.4294 190.36V160.96H75.4294V190.36H77.4294ZM76.4294 159.96H73.3694V161.96H76.4294V159.96ZM113.205 182.5V181.5C112.652 181.5 112.205 181.948 112.205 182.5H113.205ZM113.205 185.08H112.205C112.205 185.632 112.652 186.08 113.205 186.08V185.08ZM149.325 185.08V186.08C149.877 186.08 150.325 185.632 150.325 185.08H149.325ZM149.325 182.5H150.325C150.325 181.948 149.877 181.5 149.325 181.5V182.5ZM106.605 196.24V195.24C106.052 195.24 105.605 195.688 105.605 196.24H106.605ZM106.605 198.88H105.605C105.605 199.432 106.052 199.88 106.605 199.88V198.88ZM155.085 198.88V199.88C155.637 199.88 156.085 199.432 156.085 198.88H155.085ZM155.085 196.24H156.085C156.085 195.688 155.637 195.24 155.085 195.24V196.24ZM113.205 157.9V156.9C112.652 156.9 112.205 157.348 112.205 157.9H113.205ZM113.205 183.4H112.205C112.205 183.952 112.652 184.4 113.205 184.4V183.4ZM116.265 183.4V184.4C116.817 184.4 117.265 183.952 117.265 183.4H116.265ZM116.265 160.48V159.48C115.712 159.48 115.265 159.928 115.265 160.48H116.265ZM148.665 160.48V161.48C149.217 161.48 149.665 161.032 149.665 160.48H148.665ZM148.665 157.9H149.665C149.665 157.348 149.217 156.9 148.665 156.9V157.9ZM115.245 169.9V168.9C114.692 168.9 114.245 169.348 114.245 169.9H115.245ZM115.245 172.48H114.245C114.245 173.032 114.692 173.48 115.245 173.48V172.48ZM147.585 172.48V173.48C148.137 173.48 148.585 173.032 148.585 172.48H147.585ZM147.585 169.9H148.585C148.585 169.348 148.137 168.9 147.585 168.9V169.9ZM112.205 182.5V185.08H114.205V182.5H112.205ZM113.205 186.08H149.325V184.08H113.205V186.08ZM150.325 185.08V182.5H148.325V185.08H150.325ZM149.325 181.5H113.205V183.5H149.325V181.5ZM105.605 196.24V198.88H107.605V196.24H105.605ZM106.605 199.88H155.085V197.88H106.605V199.88ZM156.085 198.88V196.24H154.085V198.88H156.085ZM155.085 195.24H106.605V197.24H155.085V195.24ZM112.205 157.9V183.4H114.205V157.9H112.205ZM113.205 184.4H116.265V182.4H113.205V184.4ZM117.265 183.4V160.48H115.265V183.4H117.265ZM116.265 161.48H148.665V159.48H116.265V161.48ZM149.665 160.48V157.9H147.665V160.48H149.665ZM148.665 156.9H113.205V158.9H148.665V156.9ZM114.245 169.9V172.48H116.245V169.9H114.245ZM115.245 173.48H147.585V171.48H115.245V173.48ZM148.585 172.48V169.9H146.585V172.48H148.585ZM147.585 168.9H115.245V170.9H147.585V168.9ZM201.94 152.8V151.8C201.388 151.8 200.94 152.248 200.94 152.8H201.94ZM201.94 206.26H200.94C200.94 206.812 201.388 207.26 201.94 207.26V206.26ZM204.94 206.26V207.26C205.492 207.26 205.94 206.812 205.94 206.26H204.94ZM204.94 152.8H205.94C205.94 152.248 205.492 151.8 204.94 151.8V152.8ZM165.58 158.14V157.14C165.028 157.14 164.58 157.588 164.58 158.14H165.58ZM165.58 191.2H164.58C164.58 191.752 165.028 192.2 165.58 192.2V191.2ZM168.58 191.2V192.2C169.132 192.2 169.58 191.752 169.58 191.2H168.58ZM168.58 158.14H169.58C169.58 157.588 169.132 157.14 168.58 157.14V158.14ZM165.58 189.34V188.34C165.028 188.34 164.58 188.788 164.58 189.34H165.58ZM165.58 192.1H164.58C164.58 192.652 165.028 193.1 165.58 193.1V192.1ZM195.94 189.52L196.141 190.5C196.662 190.393 197.009 189.896 196.929 189.37L195.94 189.52ZM195.52 186.76L196.509 186.61C196.467 186.338 196.316 186.095 196.09 185.939C195.865 185.782 195.584 185.725 195.315 185.781L195.52 186.76ZM200.94 152.8V206.26H202.94V152.8H200.94ZM201.94 207.26H204.94V205.26H201.94V207.26ZM205.94 206.26V152.8H203.94V206.26H205.94ZM204.94 151.8H201.94V153.8H204.94V151.8ZM164.58 158.14V191.2H166.58V158.14H164.58ZM165.58 192.2H168.58V190.2H165.58V192.2ZM169.58 191.2V158.14H167.58V191.2H169.58ZM168.58 157.14H165.58V159.14H168.58V157.14ZM164.58 189.34V192.1H166.58V189.34H164.58ZM165.58 193.1H169.72V191.1H165.58V193.1ZM169.72 193.1C178.417 193.1 186.706 192.435 196.141 190.5L195.739 188.54C186.454 190.445 178.303 191.1 169.72 191.1V193.1ZM196.929 189.37L196.509 186.61L194.531 186.91L194.951 189.67L196.929 189.37ZM195.315 185.781C186.213 187.685 178.003 188.34 169.72 188.34V190.34C178.117 190.34 186.467 189.675 195.725 187.739L195.315 185.781ZM169.72 188.34H165.58V190.34H169.72V188.34ZM239.435 156.88V155.88C238.883 155.88 238.435 156.328 238.435 156.88H239.435ZM219.575 180.7L219.367 179.722C219.057 179.788 218.796 179.998 218.665 180.287C218.533 180.576 218.547 180.91 218.702 181.187L219.575 180.7ZM221.015 183.28L220.142 183.767C220.365 184.167 220.83 184.364 221.272 184.246L221.015 183.28ZM242.135 156.88H243.135C243.135 156.328 242.688 155.88 242.135 155.88V156.88ZM239.915 156.88V155.88C239.363 155.88 238.915 156.328 238.915 156.88H239.915ZM261.035 183.28L260.781 184.247C261.21 184.36 261.662 184.177 261.891 183.797L261.035 183.28ZM262.595 180.7L263.451 181.217C263.619 180.94 263.642 180.597 263.512 180.3C263.382 180.002 263.115 179.786 262.797 179.721L262.595 180.7ZM242.615 156.88H243.615C243.615 156.328 243.168 155.88 242.615 155.88V156.88ZM216.995 196V195C216.443 195 215.995 195.448 215.995 196H216.995ZM216.995 198.64H215.995C215.995 199.192 216.443 199.64 216.995 199.64V198.64ZM265.475 198.64V199.64C266.028 199.64 266.475 199.192 266.475 198.64H265.475ZM265.475 196H266.475C266.475 195.448 266.028 195 265.475 195V196ZM238.435 156.88V161.14H240.435V156.88H238.435ZM238.435 161.14C238.435 165.763 235.619 169.995 231.713 173.332C227.817 176.66 223.001 178.949 219.367 179.722L219.783 181.678C223.769 180.831 228.884 178.38 233.012 174.853C237.131 171.335 240.435 166.597 240.435 161.14H238.435ZM218.702 181.187L220.142 183.767L221.889 182.793L220.449 180.213L218.702 181.187ZM221.272 184.246C225.708 183.068 231.131 180.369 235.463 176.463C239.794 172.556 243.135 167.342 243.135 161.14H241.135C241.135 166.578 238.207 171.294 234.123 174.977C230.04 178.661 224.903 181.212 220.758 182.314L221.272 184.246ZM243.135 161.14V156.88H241.135V161.14H243.135ZM242.135 155.88H239.435V157.88H242.135V155.88ZM238.915 156.88V161.14H240.915V156.88H238.915ZM238.915 161.14C238.915 167.344 242.289 172.573 246.634 176.486C250.979 180.399 256.402 183.098 260.781 184.247L261.289 182.313C257.208 181.242 252.072 178.691 247.972 174.999C243.871 171.307 240.915 166.576 240.915 161.14H238.915ZM261.891 183.797L263.451 181.217L261.74 180.183L260.18 182.763L261.891 183.797ZM262.797 179.721C259.201 178.979 254.356 176.663 250.419 173.309C246.469 169.944 243.615 165.697 243.615 161.14H241.615C241.615 166.543 244.972 171.296 249.122 174.831C253.284 178.377 258.429 180.861 262.393 181.679L262.797 179.721ZM243.615 161.14V156.88H241.615V161.14H243.615ZM242.615 155.88H239.915V157.88H242.615V155.88ZM215.995 196V198.64H217.995V196H215.995ZM216.995 199.64H265.475V197.64H216.995V199.64ZM266.475 198.64V196H264.475V198.64H266.475ZM265.475 195H216.995V197H265.475V195Z" fill="white"/>
</g>
<defs>
<filter id="filter0_d_237_9" x="7.58832" y="24.4454" width="150.619" height="100.277" filterUnits="userSpaceOnUse" color-interpolation-filters="sRGB">
<feFlood flood-opacity="0" result="BackgroundImageFix"/>
<feColorMatrix in="SourceAlpha" type="matrix" values="0 0 0 0 0 0 0 0 0 0 0 0 0 0 0 0 0 0 127 0" result="hardAlpha"/>
<feOffset dy="4"/>
<feGaussianBlur stdDeviation="2"/>
<feComposite in2="hardAlpha" operator="out"/>
<feColorMatrix type="matrix" values="0 0 0 0 0 0 0 0 0 0 0 0 0 0 0 0 0 0 0.25 0"/>
<feBlend mode="normal" in2="BackgroundImageFix" result="effect1_dropShadow_237_9"/>
<feBlend mode="normal" in="SourceGraphic" in2="effect1_dropShadow_237_9" result="shape"/>
</filter>
<filter id="filter1_d_237_9" x="22.5541" y="30.3119" width="121.391" height="88.9164" filterUnits="userSpaceOnUse" color-interpolation-filters="sRGB">
<feFlood flood-opacity="0" result="BackgroundImageFix"/>
<feColorMatrix in="SourceAlpha" type="matrix" values="0 0 0 0 0 0 0 0 0 0 0 0 0 0 0 0 0 0 127 0" result="hardAlpha"/>
<feOffset dy="4"/>
<feGaussianBlur stdDeviation="2"/>
<feComposite in2="hardAlpha" operator="out"/>
<feColorMatrix type="matrix" values="0 0 0 0 0 0 0 0 0 0 0 0 0 0 0 0 0 0 0.25 0"/>
<feBlend mode="normal" in2="BackgroundImageFix" result="effect1_dropShadow_237_9"/>
<feBlend mode="normal" in="SourceGraphic" in2="effect1_dropShadow_237_9" result="shape"/>
</filter>
<filter id="filter2_d_237_9" x="172" y="202" width="170" height="59" filterUnits="userSpaceOnUse" color-interpolation-filters="sRGB">
<feFlood flood-opacity="0" result="BackgroundImageFix"/>
<feColorMatrix in="SourceAlpha" type="matrix" values="0 0 0 0 0 0 0 0 0 0 0 0 0 0 0 0 0 0 127 0" result="hardAlpha"/>
<feOffset dy="4"/>
<feGaussianBlur stdDeviation="2"/>
<feComposite in2="hardAlpha" operator="out"/>
<feColorMatrix type="matrix" values="0 0 0 0 0 0 0 0 0 0 0 0 0 0 0 0 0 0 0.25 0"/>
<feBlend mode="normal" in2="BackgroundImageFix" result="effect1_dropShadow_237_9"/>
<feBlend mode="normal" in="SourceGraphic" in2="effect1_dropShadow_237_9" result="shape"/>
</filter>
<filter id="filter3_d_237_9" x="191.606" y="213.589" width="133.709" height="30.3" filterUnits="userSpaceOnUse" color-interpolation-filters="sRGB">
<feFlood flood-opacity="0" result="BackgroundImageFix"/>
<feColorMatrix in="SourceAlpha" type="matrix" values="0 0 0 0 0 0 0 0 0 0 0 0 0 0 0 0 0 0 127 0" result="hardAlpha"/>
<feOffset dy="4"/>
<feGaussianBlur stdDeviation="2"/>
<feComposite in2="hardAlpha" operator="out"/>
<feColorMatrix type="matrix" values="0 0 0 0 0 0 0 0 0 0 0 0 0 0 0 0 0 0 0.25 0"/>
<feBlend mode="normal" in2="BackgroundImageFix" result="effect1_dropShadow_237_9"/>
<feBlend mode="normal" in="SourceGraphic" in2="effect1_dropShadow_237_9" result="shape"/>
</filter>
<filter id="filter4_d_237_9" x="169.169" y="15.0206" width="175.399" height="106.481" filterUnits="userSpaceOnUse" color-interpolation-filters="sRGB">
<feFlood flood-opacity="0" result="BackgroundImageFix"/>
<feColorMatrix in="SourceAlpha" type="matrix" values="0 0 0 0 0 0 0 0 0 0 0 0 0 0 0 0 0 0 127 0" result="hardAlpha"/>
<feOffset dy="4"/>
<feGaussianBlur stdDeviation="2"/>
<feComposite in2="hardAlpha" operator="out"/>
<feColorMatrix type="matrix" values="0 0 0 0 0 0 0 0 0 0 0 0 0 0 0 0 0 0 0.25 0"/>
<feBlend mode="normal" in2="BackgroundImageFix" result="effect1_dropShadow_237_9"/>
<feBlend mode="normal" in="SourceGraphic" in2="effect1_dropShadow_237_9" result="shape"/>
</filter>
<filter id="filter5_d_237_9" x="223.461" y="48.2969" width="64.6548" height="38.9507" filterUnits="userSpaceOnUse" color-interpolation-filters="sRGB">
<feFlood flood-opacity="0" result="BackgroundImageFix"/>
<feColorMatrix in="SourceAlpha" type="matrix" values="0 0 0 0 0 0 0 0 0 0 0 0 0 0 0 0 0 0 127 0" result="hardAlpha"/>
<feOffset dy="4"/>
<feGaussianBlur stdDeviation="2"/>
<feComposite in2="hardAlpha" operator="out"/>
<feColorMatrix type="matrix" values="0 0 0 0 0 0 0 0 0 0 0 0 0 0 0 0 0 0 0.25 0"/>
<feBlend mode="normal" in2="BackgroundImageFix" result="effect1_dropShadow_237_9"/>
<feBlend mode="normal" in="SourceGraphic" in2="effect1_dropShadow_237_9" result="shape"/>
</filter>
<filter id="filter6_d_237_9" x="47.4094" y="92.6364" width="222.066" height="121.684" filterUnits="userSpaceOnUse" color-interpolation-filters="sRGB">
<feFlood flood-opacity="0" result="BackgroundImageFix"/>
<feColorMatrix in="SourceAlpha" type="matrix" values="0 0 0 0 0 0 0 0 0 0 0 0 0 0 0 0 0 0 127 0" result="hardAlpha"/>
<feOffset dy="4"/>
<feGaussianBlur stdDeviation="2"/>
<feComposite in2="hardAlpha" operator="out"/>
<feColorMatrix type="matrix" values="0 0 0 0 0 0 0 0 0 0 0 0 0 0 0 0 0 0 0.25 0"/>
<feBlend mode="normal" in2="BackgroundImageFix" result="effect1_dropShadow_237_9"/>
<feBlend mode="normal" in="SourceGraphic" in2="effect1_dropShadow_237_9" result="shape"/>
</filter>
</defs>
</svg>
