<svg width="351" height="253" viewBox="0 0 351 253" fill="none" xmlns="http://www.w3.org/2000/svg">
<g filter="url(#filter0_i_237_9)">
<path d="M153.046 30.0836C160.088 42.2801 134.39 70.2998 95.6481 92.6673C56.9064 115.035 19.7916 123.28 12.75 111.084C5.70837 98.8872 31.4064 70.8675 70.1481 48.5C108.89 26.1325 146.004 17.8872 153.046 30.0836Z" fill="#539FAD"/>
</g>
<g filter="url(#filter1_d_237_9)">
<path d="M32.4191 98.212L33.0791 99.3551L53.9936 87.2801L53.3336 86.137L32.4191 98.212ZM37.2181 100.464L37.8631 101.581L52.0486 93.3914L53.5786 96.0414L39.4711 104.186L42.0211 108.603L43.3201 107.853L41.4001 104.528L55.5336 96.3676L52.7286 91.5092L37.2181 100.464ZM41.7961 108.213L42.4411 109.331L58.6271 99.9856L57.9821 98.8684L41.7961 108.213ZM37.1369 83.8834L37.6169 84.7148C39.3719 87.7546 35.5825 92.4712 32.1962 94.9459L33.2898 95.7001C37.1357 92.8215 40.961 87.807 38.786 84.0398L38.306 83.2084L37.1369 83.8834ZM37.4226 83.7184L37.9027 84.5498C40.0627 88.291 46.3589 87.4965 50.7489 85.6201L50.6165 84.3109C46.7802 86.0062 40.7858 86.9036 39.0458 83.8898L38.5658 83.0584L37.4226 83.7184ZM29.0467 87.9308L29.6917 89.0479L46.787 79.1779L46.142 78.0608L29.0467 87.9308ZM75.7336 59.6597L82.9186 72.1045L84.2436 71.3395L77.0586 58.8947L75.7336 59.6597ZM73.6358 69.0461L74.2958 70.1893L80.2194 66.7693L79.5594 65.6261L73.6358 69.0461ZM69.5259 65.2875L69.8259 65.8072C72.5259 70.4837 70.6088 76.1632 65.4333 81.299L66.5829 82.0902C72.203 76.5244 74.1798 70.0484 70.9548 64.4625L69.5259 65.2875ZM60.6664 70.4025L61.3264 71.5457L71.0952 65.9057L70.4352 64.7625L60.6664 70.4025ZM70.2845 81.0615L75.5495 90.1808L90.2286 81.7058L84.9636 72.5865L83.6386 73.3515L85.5736 76.7031L73.5705 83.6331L71.6355 80.2815L70.2845 81.0615ZM74.2005 84.7242L86.2036 77.7942L88.2586 81.3536L76.2555 88.2836L74.2005 84.7242ZM106.181 42.0808L119.561 65.2557L120.886 64.4907L107.506 41.3158L106.181 42.0808ZM112.684 51.0048L113.359 52.1739L117.75 49.6389L117.075 48.4698L112.684 51.0048ZM100.308 66.9489L100.983 68.1181L102.698 67.1281C107.271 64.4881 110.116 62.6372 113.338 59.8767L112.481 58.8125C109.374 61.4721 106.544 63.3489 102.023 65.9589L100.308 66.9489ZM92.3583 53.1791L100.578 67.4166L101.877 66.6666L94.3023 53.5463L103.707 48.1163L103.062 46.9991L92.3583 53.1791ZM127.956 32.721L133.375 47.5403L131.862 48.4138L126.213 33.7278L127.956 32.721ZM135.102 53.9612C134.745 54.1672 134.379 54.2146 134.003 54.1035C133.627 53.9925 133.34 53.7647 133.141 53.4202C132.945 53.0661 132.907 52.6945 133.027 52.3055C133.146 51.9165 133.375 51.6243 133.714 51.429C134.058 51.2301 134.424 51.1827 134.813 51.2867C135.201 51.3906 135.486 51.6153 135.669 51.9607C135.792 52.2016 135.85 52.451 135.843 52.7092C135.836 52.9673 135.766 53.2086 135.633 53.4329C135.507 53.6537 135.33 53.8298 135.102 53.9612Z" fill="white"/>
<path d="M32.4191 98.212L31.9191 97.346L31.0531 97.846L31.5531 98.712L32.4191 98.212ZM33.0791 99.3551L32.2131 99.8551L32.7131 100.721L33.5791 100.221L33.0791 99.3551ZM53.9936 87.2801L54.4936 88.1462L55.3596 87.6462L54.8596 86.7801L53.9936 87.2801ZM53.3336 86.137L54.1996 85.637L53.6996 84.771L52.8336 85.271L53.3336 86.137ZM37.2181 100.464L36.7181 99.5982L35.8521 100.098L36.3521 100.964L37.2181 100.464ZM37.8631 101.581L36.9971 102.081L37.4971 102.947L38.3631 102.447L37.8631 101.581ZM52.0486 93.3914L52.9147 92.8914L52.4147 92.0253L51.5486 92.5253L52.0486 93.3914ZM53.5786 96.0414L54.0786 96.9074L54.9447 96.4074L54.4447 95.5414L53.5786 96.0414ZM39.4711 104.186L38.9711 103.32L38.1051 103.82L38.6051 104.686L39.4711 104.186ZM42.0211 108.603L41.1551 109.103L41.6551 109.969L42.5211 109.469L42.0211 108.603ZM43.3201 107.853L43.8201 108.719L44.6861 108.219L44.1861 107.353L43.3201 107.853ZM41.4001 104.528L40.9001 103.662L40.0341 104.162L40.5341 105.028L41.4001 104.528ZM55.5336 96.3676L56.0336 97.2336L56.8997 96.7336L56.3997 95.8676L55.5336 96.3676ZM52.7286 91.5092L53.5947 91.0092L53.0947 90.1432L52.2286 90.6432L52.7286 91.5092ZM41.7961 108.213L41.2961 107.347L40.4301 107.847L40.9301 108.713L41.7961 108.213ZM42.4411 109.331L41.5751 109.831L42.0751 110.697L42.9411 110.197L42.4411 109.331ZM58.6271 99.9856L59.1271 100.852L59.9931 100.352L59.4931 99.4856L58.6271 99.9856ZM57.9821 98.8684L58.8481 98.3684L58.3481 97.5024L57.4821 98.0024L57.9821 98.8684ZM37.1369 83.8834L36.6369 83.0174L35.7708 83.5174L36.2708 84.3834L37.1369 83.8834ZM32.1962 94.9459L31.6061 94.1385L30.469 94.9695L31.6284 95.7691L32.1962 94.9459ZM33.2898 95.7001L32.7221 96.5233L33.3137 96.9313L33.889 96.5007L33.2898 95.7001ZM38.306 83.2084L39.172 82.7084L38.672 81.8424L37.806 82.3424L38.306 83.2084ZM37.4226 83.7184L36.9226 82.8524L36.0566 83.3524L36.5566 84.2184L37.4226 83.7184ZM50.7489 85.6201L51.1419 86.5396L51.8177 86.2508L51.7438 85.5195L50.7489 85.6201ZM50.6165 84.3109L51.6114 84.2103L51.4728 82.8392L50.2123 83.3962L50.6165 84.3109ZM38.5658 83.0584L39.4318 82.5584L38.9318 81.6924L38.0658 82.1924L38.5658 83.0584ZM29.0467 87.9308L28.5467 87.0647L27.6806 87.5647L28.1806 88.4308L29.0467 87.9308ZM29.6917 89.0479L28.8256 89.5479L29.3256 90.414L30.1917 89.914L29.6917 89.0479ZM46.787 79.1779L47.287 80.044L48.153 79.544L47.653 78.6779L46.787 79.1779ZM46.142 78.0608L47.008 77.5608L46.508 76.6947L45.642 77.1947L46.142 78.0608ZM31.5531 98.712L32.2131 99.8551L33.9451 98.8551L33.2851 97.712L31.5531 98.712ZM33.5791 100.221L54.4936 88.1462L53.4936 86.4141L32.5791 98.4891L33.5791 100.221ZM54.8596 86.7801L54.1996 85.637L52.4676 86.637L53.1276 87.7801L54.8596 86.7801ZM52.8336 85.271L31.9191 97.346L32.9191 99.078L53.8336 87.003L52.8336 85.271ZM36.3521 100.964L36.9971 102.081L38.7292 101.081L38.0842 99.9642L36.3521 100.964ZM38.3631 102.447L52.5486 94.2574L51.5486 92.5253L37.3631 100.715L38.3631 102.447ZM51.1826 93.8914L52.7126 96.5414L54.4447 95.5414L52.9147 92.8914L51.1826 93.8914ZM53.0786 95.1754L38.9711 103.32L39.9711 105.052L54.0786 96.9074L53.0786 95.1754ZM38.6051 104.686L41.1551 109.103L42.8871 108.103L40.3371 103.686L38.6051 104.686ZM42.5211 109.469L43.8201 108.719L42.8201 106.987L41.5211 107.737L42.5211 109.469ZM44.1861 107.353L42.2661 104.028L40.5341 105.028L42.4541 108.353L44.1861 107.353ZM41.9001 105.394L56.0336 97.2336L55.0336 95.5016L40.9001 103.662L41.9001 105.394ZM56.3997 95.8676L53.5947 91.0092L51.8626 92.0092L54.6676 96.8676L56.3997 95.8676ZM52.2286 90.6432L36.7181 99.5982L37.7181 101.33L53.2286 92.3752L52.2286 90.6432ZM40.9301 108.713L41.5751 109.831L43.3071 108.831L42.6621 107.713L40.9301 108.713ZM42.9411 110.197L59.1271 100.852L58.1271 99.1196L41.9411 108.465L42.9411 110.197ZM59.4931 99.4856L58.8481 98.3684L57.1161 99.3684L57.7611 100.486L59.4931 99.4856ZM57.4821 98.0024L41.2961 107.347L42.2961 109.079L58.4821 99.7344L57.4821 98.0024ZM36.2708 84.3834L36.7508 85.2148L38.4829 84.2148L38.0029 83.3834L36.2708 84.3834ZM36.7508 85.2148C37.3367 86.2295 37.0904 87.7207 35.9831 89.5177C34.9127 91.2549 33.2165 92.9617 31.6061 94.1385L32.7862 95.7532C34.5622 94.4554 36.4538 92.5664 37.6859 90.5668C38.8812 88.6269 39.652 86.2399 38.4829 84.2148L36.7508 85.2148ZM31.6284 95.7691L32.7221 96.5233L33.8575 94.8769L32.7639 94.1227L31.6284 95.7691ZM33.889 96.5007C35.891 95.0023 37.9175 92.9293 39.1686 90.6911C40.4116 88.4676 40.9945 85.865 39.652 83.5398L37.92 84.5398C38.7525 85.9819 38.5103 87.77 37.4229 89.7152C36.3437 91.6458 34.5346 93.5193 32.6906 94.8995L33.889 96.5007ZM39.652 83.5398L39.172 82.7084L37.44 83.7084L37.92 84.5398L39.652 83.5398ZM37.806 82.3424L36.6369 83.0174L37.6369 84.7495L38.806 84.0745L37.806 82.3424ZM36.5566 84.2184L37.0366 85.0498L38.7687 84.0498L38.2887 83.2184L36.5566 84.2184ZM37.0366 85.0498C38.3732 87.3648 40.9283 88.1548 43.4751 88.1914C46.0423 88.2284 48.8542 87.5174 51.1419 86.5396L50.3558 84.7006C48.2535 85.5991 45.7223 86.2236 43.5039 86.1917C41.2651 86.1594 39.5921 85.4761 38.7687 84.0498L37.0366 85.0498ZM51.7438 85.5195L51.6114 84.2103L49.6216 84.4114L49.7539 85.7207L51.7438 85.5195ZM50.2123 83.3962C48.3901 84.2015 46.0605 84.8112 44.0179 84.8666C41.9024 84.924 40.4896 84.3905 39.9118 83.3898L38.1798 84.3898C39.3421 86.4029 41.7964 86.9276 44.0721 86.8659C46.4208 86.8022 49.0066 86.1156 51.0207 85.2255L50.2123 83.3962ZM39.9118 83.3898L39.4318 82.5584L37.6998 83.5584L38.1798 84.3898L39.9118 83.3898ZM38.0658 82.1924L36.9226 82.8524L37.9226 84.5845L39.0658 83.9245L38.0658 82.1924ZM28.1806 88.4308L28.8256 89.5479L30.5577 88.5479L29.9127 87.4308L28.1806 88.4308ZM30.1917 89.914L47.287 80.044L46.287 78.3119L29.1917 88.1819L30.1917 89.914ZM47.653 78.6779L47.008 77.5608L45.276 78.5608L45.921 79.6779L47.653 78.6779ZM45.642 77.1947L28.5467 87.0647L29.5467 88.7968L46.642 78.9268L45.642 77.1947ZM75.7336 59.6597L75.2336 58.7936L74.3676 59.2936L74.8676 60.1597L75.7336 59.6597ZM82.9186 72.1045L82.0526 72.6045L82.5526 73.4705L83.4186 72.9705L82.9186 72.1045ZM84.2436 71.3395L84.7436 72.2055L85.6097 71.7055L85.1097 70.8395L84.2436 71.3395ZM77.0586 58.8947L77.9247 58.3947L77.4247 57.5286L76.5586 58.0286L77.0586 58.8947ZM73.6358 69.0461L73.1358 68.1801L72.2698 68.6801L72.7698 69.5461L73.6358 69.0461ZM74.2958 70.1893L73.4298 70.6893L73.9298 71.5553L74.7958 71.0553L74.2958 70.1893ZM80.2194 66.7693L80.7194 67.6353L81.5854 67.1353L81.0854 66.2693L80.2194 66.7693ZM79.5594 65.6261L80.4254 65.1261L79.9254 64.2601L79.0594 64.7601L79.5594 65.6261ZM69.5259 65.2875L69.0259 64.4215L68.1599 64.9215L68.6599 65.7875L69.5259 65.2875ZM65.4333 81.299L64.7289 80.5891L63.8726 81.4388L64.8664 82.1227L65.4333 81.299ZM66.5829 82.0902L66.016 82.9139L66.6981 83.3834L67.2866 82.8007L66.5829 82.0902ZM70.9548 64.4625L71.8208 63.9625L71.3208 63.0965L70.4548 63.5965L70.9548 64.4625ZM60.6664 70.4025L60.1664 69.5365L59.3004 70.0365L59.8004 70.9025L60.6664 70.4025ZM61.3264 71.5457L60.4604 72.0457L60.9604 72.9117L61.8264 72.4117L61.3264 71.5457ZM71.0952 65.9057L71.5952 66.7717L72.4612 66.2717L71.9612 65.4057L71.0952 65.9057ZM70.4352 64.7625L71.3012 64.2625L70.8012 63.3965L69.9352 63.8965L70.4352 64.7625ZM70.2845 81.0615L69.7845 80.1955L68.9185 80.6955L69.4185 81.5615L70.2845 81.0615ZM75.5495 90.1808L74.6835 90.6808L75.1835 91.5468L76.0495 91.0468L75.5495 90.1808ZM90.2286 81.7058L90.7286 82.5718L91.5947 82.0718L91.0947 81.2058L90.2286 81.7058ZM84.9636 72.5865L85.8297 72.0865L85.3297 71.2205L84.4636 71.7205L84.9636 72.5865ZM83.6386 73.3515L83.1386 72.4855L82.2726 72.9855L82.7726 73.8515L83.6386 73.3515ZM85.5736 76.7031L86.0736 77.5691L86.9397 77.0691L86.4397 76.2031L85.5736 76.7031ZM73.5705 83.6331L72.7045 84.1331L73.2045 84.9991L74.0705 84.4991L73.5705 83.6331ZM71.6355 80.2815L72.5015 79.7815L72.0015 78.9155L71.1355 79.4155L71.6355 80.2815ZM74.2005 84.7242L73.7005 83.8582L72.8345 84.3582L73.3345 85.2242L74.2005 84.7242ZM86.2036 77.7942L87.0697 77.2942L86.5697 76.4282L85.7036 76.9282L86.2036 77.7942ZM88.2586 81.3536L88.7586 82.2196L89.6247 81.7196L89.1247 80.8536L88.2586 81.3536ZM76.2555 88.2836L75.3895 88.7836L75.8895 89.6496L76.7555 89.1496L76.2555 88.2836ZM74.8676 60.1597L82.0526 72.6045L83.7847 71.6045L76.5997 59.1597L74.8676 60.1597ZM83.4186 72.9705L84.7436 72.2055L83.7436 70.4734L82.4186 71.2384L83.4186 72.9705ZM85.1097 70.8395L77.9247 58.3947L76.1926 59.3947L83.3776 71.8395L85.1097 70.8395ZM76.5586 58.0286L75.2336 58.7936L76.2336 60.5257L77.5586 59.7607L76.5586 58.0286ZM72.7698 69.5461L73.4298 70.6893L75.1618 69.6893L74.5018 68.5461L72.7698 69.5461ZM74.7958 71.0553L80.7194 67.6353L79.7194 65.9033L73.7958 69.3233L74.7958 71.0553ZM81.0854 66.2693L80.4254 65.1261L78.6934 66.1261L79.3534 67.2693L81.0854 66.2693ZM79.0594 64.7601L73.1358 68.1801L74.1358 69.9122L80.0594 66.4922L79.0594 64.7601ZM68.6599 65.7875L68.9599 66.3072L70.6919 65.3072L70.3919 64.7875L68.6599 65.7875ZM68.9599 66.3072C71.3148 70.386 69.7877 75.5691 64.7289 80.5891L66.1377 82.0088C71.4298 76.7572 73.737 70.5813 70.6919 65.3072L68.9599 66.3072ZM64.8664 82.1227L66.016 82.9139L67.1498 81.2664L66.0002 80.4752L64.8664 82.1227ZM67.2866 82.8007C73.0694 77.0739 75.369 70.108 71.8208 63.9625L70.0888 64.9625C72.9907 69.9888 71.3366 75.975 65.8792 81.3796L67.2866 82.8007ZM70.4548 63.5965L69.0259 64.4215L70.0259 66.1536L71.4548 65.3286L70.4548 63.5965ZM59.8004 70.9025L60.4604 72.0457L62.1925 71.0457L61.5325 69.9025L59.8004 70.9025ZM61.8264 72.4117L71.5952 66.7717L70.5952 65.0397L60.8264 70.6797L61.8264 72.4117ZM71.9612 65.4057L71.3012 64.2625L69.5692 65.2625L70.2292 66.4057L71.9612 65.4057ZM69.9352 63.8965L60.1664 69.5365L61.1664 71.2686L70.9352 65.6286L69.9352 63.8965ZM69.4185 81.5615L74.6835 90.6808L76.4155 89.6808L71.1505 80.5615L69.4185 81.5615ZM76.0495 91.0468L90.7286 82.5718L89.7286 80.8398L75.0495 89.3148L76.0495 91.0468ZM91.0947 81.2058L85.8297 72.0865L84.0976 73.0865L89.3626 82.2058L91.0947 81.2058ZM84.4636 71.7205L83.1386 72.4855L84.1386 74.2176L85.4636 73.4526L84.4636 71.7205ZM82.7726 73.8515L84.7076 77.2031L86.4397 76.2031L84.5047 72.8515L82.7726 73.8515ZM85.0736 75.837L73.0705 82.767L74.0705 84.4991L86.0736 77.5691L85.0736 75.837ZM74.4365 83.1331L72.5015 79.7815L70.7695 80.7815L72.7045 84.1331L74.4365 83.1331ZM71.1355 79.4155L69.7845 80.1955L70.7845 81.9276L72.1355 81.1476L71.1355 79.4155ZM74.7005 85.5903L86.7036 78.6603L85.7036 76.9282L73.7005 83.8582L74.7005 85.5903ZM85.3376 78.2942L87.3926 81.8536L89.1247 80.8536L87.0697 77.2942L85.3376 78.2942ZM87.7586 80.4876L75.7555 87.4176L76.7555 89.1496L88.7586 82.2196L87.7586 80.4876ZM77.1215 87.7836L75.0665 84.2242L73.3345 85.2242L75.3895 88.7836L77.1215 87.7836ZM106.181 42.0808L105.681 41.2148L104.815 41.7148L105.315 42.5808L106.181 42.0808ZM119.561 65.2557L118.695 65.7557L119.195 66.6217L120.061 66.1217L119.561 65.2557ZM120.886 64.4907L121.386 65.3567L122.252 64.8567L121.752 63.9907L120.886 64.4907ZM107.506 41.3158L108.372 40.8158L107.872 39.9498L107.006 40.4498L107.506 41.3158ZM112.684 51.0048L112.184 50.1388L111.318 50.6388L111.818 51.5048L112.684 51.0048ZM113.359 52.1739L112.493 52.6739L112.993 53.54L113.859 53.04L113.359 52.1739ZM117.75 49.6389L118.25 50.505L119.116 50.005L118.616 49.1389L117.75 49.6389ZM117.075 48.4698L117.941 47.9698L117.441 47.1038L116.575 47.6038L117.075 48.4698ZM100.308 66.9489L99.8083 66.0829L98.9423 66.5829L99.4423 67.4489L100.308 66.9489ZM100.983 68.1181L100.117 68.6181L100.617 69.4841L101.483 68.9841L100.983 68.1181ZM113.338 59.8767L113.988 60.636L114.725 60.0049L114.117 59.2495L113.338 59.8767ZM112.481 58.8125L113.26 58.1854L112.613 57.3827L111.831 58.0529L112.481 58.8125ZM92.3583 53.1791L91.8583 52.3131L90.9923 52.8131L91.4923 53.6791L92.3583 53.1791ZM100.578 67.4166L99.7123 67.9166L100.212 68.7826L101.078 68.2826L100.578 67.4166ZM101.877 66.6666L102.377 67.5326L103.243 67.0326L102.743 66.1666L101.877 66.6666ZM94.3023 53.5463L93.8023 52.6803L92.9363 53.1803L93.4363 54.0463L94.3023 53.5463ZM103.707 48.1163L104.207 48.9823L105.073 48.4823L104.573 47.6163L103.707 48.1163ZM103.062 46.9991L103.928 46.4991L103.428 45.6331L102.562 46.1331L103.062 46.9991ZM105.315 42.5808L118.695 65.7557L120.427 64.7557L107.047 41.5808L105.315 42.5808ZM120.061 66.1217L121.386 65.3567L120.386 63.6247L119.061 64.3897L120.061 66.1217ZM121.752 63.9907L108.372 40.8158L106.64 41.8158L120.02 64.9907L121.752 63.9907ZM107.006 40.4498L105.681 41.2148L106.681 42.9469L108.006 42.1819L107.006 40.4498ZM111.818 51.5048L112.493 52.6739L114.225 51.6739L113.55 50.5048L111.818 51.5048ZM113.859 53.04L118.25 50.505L117.25 48.7729L112.859 51.3079L113.859 53.04ZM118.616 49.1389L117.941 47.9698L116.209 48.9698L116.884 50.1389L118.616 49.1389ZM116.575 47.6038L112.184 50.1388L113.184 51.8708L117.575 49.3358L116.575 47.6038ZM99.4423 67.4489L100.117 68.6181L101.849 67.6181L101.174 66.4489L99.4423 67.4489ZM101.483 68.9841L103.198 67.9941L102.198 66.262L100.483 67.252L101.483 68.9841ZM103.198 67.9941C107.795 65.34 110.7 63.4538 113.988 60.636L112.687 59.1173C109.533 61.8206 106.746 63.6361 102.198 66.262L103.198 67.9941ZM114.117 59.2495L113.26 58.1854L111.702 59.4397L112.559 60.5038L114.117 59.2495ZM111.831 58.0529C108.788 60.6573 106.015 62.4994 101.523 65.0929L102.523 66.8249C107.072 64.1985 109.961 62.2868 113.131 59.5722L111.831 58.0529ZM101.523 65.0929L99.8083 66.0829L100.808 67.8149L102.523 66.8249L101.523 65.0929ZM91.4923 53.6791L99.7123 67.9166L101.444 66.9166L93.2243 52.6791L91.4923 53.6791ZM101.078 68.2826L102.377 67.5326L101.377 65.8005L100.078 66.5505L101.078 68.2826ZM102.743 66.1666L95.1683 53.0463L93.4363 54.0463L101.011 67.1666L102.743 66.1666ZM94.8023 54.4123L104.207 48.9823L103.207 47.2503L93.8023 52.6803L94.8023 54.4123ZM104.573 47.6163L103.928 46.4991L102.196 47.4991L102.841 48.6163L104.573 47.6163ZM102.562 46.1331L91.8583 52.3131L92.8583 54.0451L103.562 47.8651L102.562 46.1331ZM127.956 32.721L128.896 32.3776L128.487 31.2601L127.456 31.855L127.956 32.721ZM133.375 47.5403L133.875 48.4063L134.603 47.9861L134.315 47.1968L133.375 47.5403ZM131.862 48.4138L130.929 48.7729L131.349 49.8649L132.362 49.2799L131.862 48.4138ZM126.213 33.7278L125.713 32.8618L124.972 33.2891L125.279 34.0868L126.213 33.7278ZM134.003 54.1035L134.287 53.1446L134.287 53.1446L134.003 54.1035ZM133.141 53.4202L132.267 53.905L132.271 53.9127L132.275 53.9202L133.141 53.4202ZM133.027 52.3055L133.982 52.5999L133.982 52.5999L133.027 52.3055ZM134.813 51.2867L135.071 50.3207L135.071 50.3207L134.813 51.2867ZM135.669 51.9607L136.56 51.5069L136.557 51.4997L136.553 51.4925L135.669 51.9607ZM135.633 53.4329L134.773 52.9232L134.766 52.9351L135.633 53.4329ZM127.017 33.0645L132.436 47.8837L134.315 47.1968L128.896 32.3776L127.017 33.0645ZM132.875 46.6742L131.362 47.5478L132.362 49.2799L133.875 48.4063L132.875 46.6742ZM132.796 48.0548L127.146 33.3687L125.279 34.0868L130.929 48.7729L132.796 48.0548ZM126.713 34.5938L128.456 33.5871L127.456 31.855L125.713 32.8618L126.713 34.5938ZM134.602 53.0952C134.469 53.172 134.385 53.1736 134.287 53.1446L133.72 55.0625C134.373 55.2557 135.021 55.1624 135.602 54.8272L134.602 53.0952ZM134.287 53.1446C134.161 53.1074 134.08 53.0464 134.007 52.9202L132.275 53.9202C132.6 54.483 133.094 54.8775 133.72 55.0625L134.287 53.1446ZM134.016 52.9355C133.952 52.8207 133.942 52.7306 133.982 52.5999L132.071 52.0111C131.871 52.6585 131.938 53.3115 132.267 53.905L134.016 52.9355ZM133.982 52.5999C134.031 52.4409 134.104 52.3584 134.214 52.295L133.214 50.563C132.647 50.8902 132.262 51.392 132.071 52.0111L133.982 52.5999ZM134.214 52.295C134.326 52.2303 134.419 52.2165 134.554 52.2526L135.071 50.3207C134.43 50.1489 133.79 50.23 133.214 50.563L134.214 52.295ZM134.554 52.2526C134.682 52.2869 134.737 52.3367 134.786 52.4289L136.553 51.4925C136.236 50.894 135.719 50.4944 135.071 50.3207L134.554 52.2526ZM134.778 52.4145C134.829 52.514 134.846 52.5992 134.843 52.6829L136.843 52.7354C136.854 52.3029 136.755 51.8891 136.56 51.5069L134.778 52.4145ZM134.843 52.6829C134.841 52.769 134.82 52.844 134.773 52.9233L136.494 53.9426C136.713 53.5731 136.831 53.1657 136.843 52.7354L134.843 52.6829ZM134.766 52.9351C134.73 52.9978 134.682 53.049 134.602 53.0952L135.602 54.8272C135.977 54.6106 136.283 54.3096 136.501 53.9308L134.766 52.9351Z" fill="white"/>
</g>
<g filter="url(#filter2_i_237_9)">
<ellipse cx="257" cy="227.5" rx="81" ry="25.5" fill="#539FAD"/>
</g>
<g filter="url(#filter3_d_237_9)">
<path d="M210.206 213.613V235.889H211.481V213.613H210.206ZM211.181 222.664V223.814H215.406V222.664H211.181ZM195.606 215.563V230.414H205.706V215.563H204.431V221.739H196.881V215.563H195.606ZM196.881 222.814H204.431V229.289H196.881V222.814ZM242.479 213.613V230.439H243.704V213.613H242.479ZM232.754 220.988V222.089H238.829V220.988H232.754ZM238.129 214.089V229.764H239.354V214.089H238.129ZM233.604 215.814V216.113C233.604 220.689 230.579 224.464 225.429 226.689L226.104 227.664C231.704 225.189 234.854 220.964 234.854 215.814H233.604ZM226.254 215.814V216.889H234.079V215.814H226.254ZM229.504 234.214V235.314H244.479V234.214H229.504ZM229.504 228.339V234.689H230.804V228.339H229.504ZM264.352 221.889V222.989H269.027V221.889H264.352ZM260.602 215.814V220.389C260.602 224.214 258.352 228.214 255.427 229.864L256.302 230.839C259.327 228.989 261.652 224.739 261.652 220.389V215.814H260.602ZM260.802 215.814V220.339C260.802 224.364 263.027 228.564 266.027 230.364L266.827 229.364C264.002 227.739 261.827 223.864 261.827 220.339V215.814H260.802ZM273.127 213.588V235.864H274.377V213.588H273.127ZM268.602 214.163V234.689H269.827V214.163H268.602ZM292.325 214.513C289.05 214.513 286.7 216.488 286.7 219.363C286.7 222.239 289.05 224.189 292.325 224.189C295.6 224.189 297.95 222.239 297.95 219.363C297.95 216.488 295.6 214.513 292.325 214.513ZM292.325 215.614C294.825 215.614 296.7 217.239 296.7 219.363C296.7 221.514 294.825 223.114 292.325 223.114C289.825 223.114 287.95 221.514 287.95 219.363C287.95 217.239 289.825 215.614 292.325 215.614ZM302.875 213.613V225.189H304.175V213.613H302.875ZM290.05 226.389V227.489H302.9V230.314H290.125V235.114H291.375V231.339H304.175V226.389H290.05ZM290.125 234.464V235.539H305.05V234.464H290.125ZM321.315 215.907L319.051 228.859H317.595L319.637 215.907H321.315ZM317.622 234.213C317.278 234.213 316.994 234.094 316.769 233.858C316.545 233.621 316.432 233.337 316.432 233.005C316.438 232.668 316.565 232.384 316.814 232.153C317.062 231.922 317.349 231.807 317.675 231.807C318.006 231.807 318.291 231.925 318.527 232.162C318.764 232.399 318.876 232.68 318.865 233.005C318.853 233.23 318.791 233.435 318.678 233.618C318.566 233.801 318.415 233.946 318.225 234.053C318.042 234.16 317.841 234.213 317.622 234.213Z" fill="white"/>
<path d="M210.206 213.613V212.613H209.206V213.613H210.206ZM210.206 235.889H209.206V236.889H210.206V235.889ZM211.481 235.889V236.889H212.481V235.889H211.481ZM211.481 213.613H212.481V212.613H211.481V213.613ZM211.181 222.664V221.664H210.181V222.664H211.181ZM211.181 223.814H210.181V224.814H211.181V223.814ZM215.406 223.814V224.814H216.406V223.814H215.406ZM215.406 222.664H216.406V221.664H215.406V222.664ZM195.606 215.563V214.563H194.606V215.563H195.606ZM195.606 230.414H194.606V231.414H195.606V230.414ZM205.706 230.414V231.414H206.706V230.414H205.706ZM205.706 215.563H206.706V214.563H205.706V215.563ZM204.431 215.563V214.563H203.431V215.563H204.431ZM204.431 221.739V222.739H205.431V221.739H204.431ZM196.881 221.739H195.881V222.739H196.881V221.739ZM196.881 215.563H197.881V214.563H196.881V215.563ZM196.881 222.814V221.814H195.881V222.814H196.881ZM204.431 222.814H205.431V221.814H204.431V222.814ZM204.431 229.289V230.289H205.431V229.289H204.431ZM196.881 229.289H195.881V230.289H196.881V229.289ZM209.206 213.613V235.889H211.206V213.613H209.206ZM210.206 236.889H211.481V234.889H210.206V236.889ZM212.481 235.889V213.613H210.481V235.889H212.481ZM211.481 212.613H210.206V214.613H211.481V212.613ZM210.181 222.664V223.814H212.181V222.664H210.181ZM211.181 224.814H215.406V222.814H211.181V224.814ZM216.406 223.814V222.664H214.406V223.814H216.406ZM215.406 221.664H211.181V223.664H215.406V221.664ZM194.606 215.563V230.414H196.606V215.563H194.606ZM195.606 231.414H205.706V229.414H195.606V231.414ZM206.706 230.414V215.563H204.706V230.414H206.706ZM205.706 214.563H204.431V216.563H205.706V214.563ZM203.431 215.563V221.739H205.431V215.563H203.431ZM204.431 220.739H196.881V222.739H204.431V220.739ZM197.881 221.739V215.563H195.881V221.739H197.881ZM196.881 214.563H195.606V216.563H196.881V214.563ZM196.881 223.814H204.431V221.814H196.881V223.814ZM203.431 222.814V229.289H205.431V222.814H203.431ZM204.431 228.289H196.881V230.289H204.431V228.289ZM197.881 229.289V222.814H195.881V229.289H197.881ZM242.479 213.613V212.613H241.479V213.613H242.479ZM242.479 230.439H241.479V231.439H242.479V230.439ZM243.704 230.439V231.439H244.704V230.439H243.704ZM243.704 213.613H244.704V212.613H243.704V213.613ZM232.754 220.988V219.988H231.754V220.988H232.754ZM232.754 222.089H231.754V223.089H232.754V222.089ZM238.829 222.089V223.089H239.829V222.089H238.829ZM238.829 220.988H239.829V219.988H238.829V220.988ZM238.129 214.089V213.089H237.129V214.089H238.129ZM238.129 229.764H237.129V230.764H238.129V229.764ZM239.354 229.764V230.764H240.354V229.764H239.354ZM239.354 214.089H240.354V213.089H239.354V214.089ZM233.604 215.814V214.814H232.604V215.814H233.604ZM225.429 226.689L225.032 225.771L223.912 226.254L224.607 227.258L225.429 226.689ZM226.104 227.664L225.282 228.233L225.752 228.912L226.508 228.578L226.104 227.664ZM234.854 215.814H235.854V214.814H234.854V215.814ZM226.254 215.814V214.814H225.254V215.814H226.254ZM226.254 216.889H225.254V217.889H226.254V216.889ZM234.079 216.889V217.889H235.079V216.889H234.079ZM234.079 215.814H235.079V214.814H234.079V215.814ZM229.504 234.214V233.214H228.504V234.214H229.504ZM229.504 235.314H228.504V236.314H229.504V235.314ZM244.479 235.314V236.314H245.479V235.314H244.479ZM244.479 234.214H245.479V233.214H244.479V234.214ZM229.504 228.339V227.339H228.504V228.339H229.504ZM229.504 234.689H228.504V235.689H229.504V234.689ZM230.804 234.689V235.689H231.804V234.689H230.804ZM230.804 228.339H231.804V227.339H230.804V228.339ZM241.479 213.613V230.439H243.479V213.613H241.479ZM242.479 231.439H243.704V229.439H242.479V231.439ZM244.704 230.439V213.613H242.704V230.439H244.704ZM243.704 212.613H242.479V214.613H243.704V212.613ZM231.754 220.988V222.089H233.754V220.988H231.754ZM232.754 223.089H238.829V221.089H232.754V223.089ZM239.829 222.089V220.988H237.829V222.089H239.829ZM238.829 219.988H232.754V221.988H238.829V219.988ZM237.129 214.089V229.764H239.129V214.089H237.129ZM238.129 230.764H239.354V228.764H238.129V230.764ZM240.354 229.764V214.089H238.354V229.764H240.354ZM239.354 213.089H238.129V215.089H239.354V213.089ZM232.604 215.814V216.113H234.604V215.814H232.604ZM232.604 216.113C232.604 220.168 229.942 223.649 225.032 225.771L225.826 227.606C231.216 225.278 234.604 221.209 234.604 216.113H232.604ZM224.607 227.258L225.282 228.233L226.926 227.094L226.251 226.119L224.607 227.258ZM226.508 228.578C232.379 225.983 235.854 221.45 235.854 215.814H233.854C233.854 220.477 231.029 224.394 225.7 226.749L226.508 228.578ZM234.854 214.814H233.604V216.814H234.854V214.814ZM225.254 215.814V216.889H227.254V215.814H225.254ZM226.254 217.889H234.079V215.889H226.254V217.889ZM235.079 216.889V215.814H233.079V216.889H235.079ZM234.079 214.814H226.254V216.814H234.079V214.814ZM228.504 234.214V235.314H230.504V234.214H228.504ZM229.504 236.314H244.479V234.314H229.504V236.314ZM245.479 235.314V234.214H243.479V235.314H245.479ZM244.479 233.214H229.504V235.214H244.479V233.214ZM228.504 228.339V234.689H230.504V228.339H228.504ZM229.504 235.689H230.804V233.689H229.504V235.689ZM231.804 234.689V228.339H229.804V234.689H231.804ZM230.804 227.339H229.504V229.339H230.804V227.339ZM264.352 221.889V220.889H263.352V221.889H264.352ZM264.352 222.989H263.352V223.989H264.352V222.989ZM269.027 222.989V223.989H270.027V222.989H269.027ZM269.027 221.889H270.027V220.889H269.027V221.889ZM260.602 215.814V214.814H259.602V215.814H260.602ZM255.427 229.864L254.936 228.993L253.851 229.604L254.683 230.531L255.427 229.864ZM256.302 230.839L255.558 231.506L256.114 232.126L256.824 231.692L256.302 230.839ZM261.652 215.814H262.652V214.814H261.652V215.814ZM260.802 215.814V214.814H259.802V215.814H260.802ZM266.027 230.364L265.512 231.221L266.262 231.671L266.808 230.988L266.027 230.364ZM266.827 229.364L267.608 229.988L268.336 229.078L267.326 228.497L266.827 229.364ZM261.827 215.814H262.827V214.814H261.827V215.814ZM273.127 213.588V212.588H272.127V213.588H273.127ZM273.127 235.864H272.127V236.864H273.127V235.864ZM274.377 235.864V236.864H275.377V235.864H274.377ZM274.377 213.588H275.377V212.588H274.377V213.588ZM268.602 214.163V213.163H267.602V214.163H268.602ZM268.602 234.689H267.602V235.689H268.602V234.689ZM269.827 234.689V235.689H270.827V234.689H269.827ZM269.827 214.163H270.827V213.163H269.827V214.163ZM263.352 221.889V222.989H265.352V221.889H263.352ZM264.352 223.989H269.027V221.989H264.352V223.989ZM270.027 222.989V221.889H268.027V222.989H270.027ZM269.027 220.889H264.352V222.889H269.027V220.889ZM259.602 215.814V220.389H261.602V215.814H259.602ZM259.602 220.389C259.602 223.892 257.514 227.538 254.936 228.993L255.918 230.734C259.19 228.889 261.602 224.535 261.602 220.389H259.602ZM254.683 230.531L255.558 231.506L257.046 230.171L256.171 229.196L254.683 230.531ZM256.824 231.692C260.184 229.637 262.652 225.04 262.652 220.389H260.652C260.652 224.437 258.47 228.34 255.78 229.985L256.824 231.692ZM262.652 220.389V215.814H260.652V220.389H262.652ZM261.652 214.814H260.602V216.814H261.652V214.814ZM259.802 215.814V220.339H261.802V215.814H259.802ZM259.802 220.339C259.802 224.663 262.169 229.215 265.512 231.221L266.541 229.506C263.884 227.912 261.802 224.064 261.802 220.339H259.802ZM266.808 230.988L267.608 229.988L266.046 228.739L265.246 229.739L266.808 230.988ZM267.326 228.497C266.104 227.794 264.971 226.569 264.142 225.077C263.314 223.589 262.827 221.905 262.827 220.339H260.827C260.827 222.297 261.428 224.313 262.394 226.05C263.358 227.783 264.725 229.308 266.328 230.23L267.326 228.497ZM262.827 220.339V215.814H260.827V220.339H262.827ZM261.827 214.814H260.802V216.814H261.827V214.814ZM272.127 213.588V235.864H274.127V213.588H272.127ZM273.127 236.864H274.377V234.864H273.127V236.864ZM275.377 235.864V213.588H273.377V235.864H275.377ZM274.377 212.588H273.127V214.588H274.377V212.588ZM267.602 214.163V234.689H269.602V214.163H267.602ZM268.602 235.689H269.827V233.689H268.602V235.689ZM270.827 234.689V214.163H268.827V234.689H270.827ZM269.827 213.163H268.602V215.163H269.827V213.163ZM302.875 213.613V212.613H301.875V213.613H302.875ZM302.875 225.189H301.875V226.189H302.875V225.189ZM304.175 225.189V226.189H305.175V225.189H304.175ZM304.175 213.613H305.175V212.613H304.175V213.613ZM290.05 226.389V225.389H289.05V226.389H290.05ZM290.05 227.489H289.05V228.489H290.05V227.489ZM302.9 227.489H303.9V226.489H302.9V227.489ZM302.9 230.314V231.314H303.9V230.314H302.9ZM290.125 230.314V229.314H289.125V230.314H290.125ZM290.125 235.114H289.125V236.114H290.125V235.114ZM291.375 235.114V236.114H292.375V235.114H291.375ZM291.375 231.339V230.339H290.375V231.339H291.375ZM304.175 231.339V232.339H305.175V231.339H304.175ZM304.175 226.389H305.175V225.389H304.175V226.389ZM290.125 234.464V233.464H289.125V234.464H290.125ZM290.125 235.539H289.125V236.539H290.125V235.539ZM305.05 235.539V236.539H306.05V235.539H305.05ZM305.05 234.464H306.05V233.464H305.05V234.464ZM292.325 213.513C290.49 213.513 288.841 214.068 287.634 215.101C286.415 216.144 285.7 217.634 285.7 219.363H287.7C287.7 218.218 288.16 217.283 288.935 216.62C289.721 215.947 290.885 215.513 292.325 215.513V213.513ZM285.7 219.363C285.7 221.094 286.416 222.579 287.637 223.616C288.845 224.643 290.494 225.189 292.325 225.189V223.189C290.881 223.189 289.717 222.759 288.932 222.092C288.159 221.435 287.7 220.508 287.7 219.363H285.7ZM292.325 225.189C294.156 225.189 295.805 224.643 297.013 223.616C298.234 222.579 298.95 221.094 298.95 219.363H296.95C296.95 220.508 296.491 221.435 295.718 222.092C294.933 222.759 293.769 223.189 292.325 223.189V225.189ZM298.95 219.363C298.95 217.634 298.235 216.144 297.016 215.101C295.809 214.068 294.16 213.513 292.325 213.513V215.513C293.765 215.513 294.929 215.947 295.715 216.62C296.49 217.283 296.95 218.218 296.95 219.363H298.95ZM292.325 216.614C294.42 216.614 295.7 217.927 295.7 219.363H297.7C297.7 216.55 295.23 214.614 292.325 214.614V216.614ZM295.7 219.363C295.7 220.821 294.424 222.114 292.325 222.114V224.114C295.226 224.114 297.7 222.206 297.7 219.363H295.7ZM292.325 222.114C290.226 222.114 288.95 220.821 288.95 219.363H286.95C286.95 222.206 289.424 224.114 292.325 224.114V222.114ZM288.95 219.363C288.95 217.927 290.23 216.614 292.325 216.614V214.614C289.42 214.614 286.95 216.55 286.95 219.363H288.95ZM301.875 213.613V225.189H303.875V213.613H301.875ZM302.875 226.189H304.175V224.189H302.875V226.189ZM305.175 225.189V213.613H303.175V225.189H305.175ZM304.175 212.613H302.875V214.613H304.175V212.613ZM289.05 226.389V227.489H291.05V226.389H289.05ZM290.05 228.489H302.9V226.489H290.05V228.489ZM301.9 227.489V230.314H303.9V227.489H301.9ZM302.9 229.314H290.125V231.314H302.9V229.314ZM289.125 230.314V235.114H291.125V230.314H289.125ZM290.125 236.114H291.375V234.114H290.125V236.114ZM292.375 235.114V231.339H290.375V235.114H292.375ZM291.375 232.339H304.175V230.339H291.375V232.339ZM305.175 231.339V226.389H303.175V231.339H305.175ZM304.175 225.389H290.05V227.389H304.175V225.389ZM289.125 234.464V235.539H291.125V234.464H289.125ZM290.125 236.539H305.05V234.539H290.125V236.539ZM306.05 235.539V234.464H304.05V235.539H306.05ZM305.05 233.464H290.125V235.464H305.05V233.464ZM321.315 215.907L322.3 216.079L322.505 214.907H321.315V215.907ZM319.051 228.859V229.859H319.891L320.036 229.032L319.051 228.859ZM317.595 228.859L316.607 228.704L316.425 229.859H317.595V228.859ZM319.637 215.907V214.907H318.782L318.649 215.751L319.637 215.907ZM316.769 233.858L317.494 233.169L317.494 233.169L316.769 233.858ZM316.432 233.005L315.432 232.988L315.432 232.997V233.005H316.432ZM316.814 232.153L317.494 232.886L317.494 232.886L316.814 232.153ZM318.527 232.162L319.234 231.455L319.234 231.455L318.527 232.162ZM318.865 233.005L319.863 233.058L319.864 233.05L319.864 233.042L318.865 233.005ZM318.225 234.053L317.735 233.181L317.723 233.188L318.225 234.053ZM320.33 215.735L318.066 228.687L320.036 229.032L322.3 216.079L320.33 215.735ZM319.051 227.859H317.595V229.859H319.051V227.859ZM318.583 229.015L320.625 216.062L318.649 215.751L316.607 228.704L318.583 229.015ZM319.637 216.907H321.315V214.907H319.637V216.907ZM317.622 233.213C317.567 233.213 317.543 233.204 317.536 233.201C317.53 233.199 317.517 233.193 317.494 233.169L316.044 234.546C316.469 234.993 317.02 235.213 317.622 235.213V233.213ZM317.494 233.169C317.449 233.121 317.432 233.085 317.432 233.005H315.432C315.432 233.589 315.64 234.121 316.044 234.546L317.494 233.169ZM317.432 233.023C317.433 232.978 317.441 232.957 317.445 232.948C317.449 232.939 317.459 232.918 317.494 232.886L316.133 231.42C315.687 231.835 315.443 232.377 315.432 232.988L317.432 233.023ZM317.494 232.886C317.566 232.819 317.613 232.807 317.675 232.807V230.807C317.086 230.807 316.558 231.026 316.133 231.42L317.494 232.886ZM317.675 232.807C317.738 232.807 317.769 232.818 317.82 232.869L319.234 231.455C318.812 231.033 318.275 230.807 317.675 230.807V232.807ZM317.82 232.869C317.853 232.902 317.86 232.92 317.861 232.922C317.861 232.923 317.867 232.935 317.865 232.969L319.864 233.042C319.886 232.43 319.661 231.882 319.234 231.455L317.82 232.869ZM317.866 232.953C317.862 233.019 317.847 233.061 317.826 233.095L319.531 234.141C319.734 233.808 319.843 233.441 319.863 233.058L317.866 232.953ZM317.826 233.095C317.803 233.132 317.778 233.158 317.735 233.181L318.716 234.925C319.052 234.735 319.328 234.471 319.531 234.141L317.826 233.095ZM317.723 233.188C317.697 233.203 317.67 233.213 317.622 233.213V235.213C318.011 235.213 318.386 235.116 318.728 234.918L317.723 233.188Z" fill="white"/>
</g>
<g filter="url(#filter4_i_237_9)">
<path d="M265.551 15.0206L275.888 41.0571L313.963 33.2535L297.579 55.026L340.568 63.3302L303.72 72.5223L335.202 93.7625L291.966 86.863L299.915 112.926L266.805 92.5706L248.186 113.501L237.849 87.4648L199.773 95.2684L216.157 73.4959L173.169 65.1917L210.016 55.9996L178.535 34.7594L221.771 41.6589L213.821 15.5958L246.932 35.9514L265.551 15.0206Z" fill="white"/>
</g>
<path d="M265.385 15.9588L275.423 41.2416L275.578 41.6311L275.988 41.5469L312.77 34.0086L297.18 54.7253L296.698 55.365L297.485 55.5169L338.253 63.3924L303.599 72.0371L302.51 72.3089L303.441 72.9367L333.048 92.9124L292.044 86.3693L291.254 86.2431L291.487 87.0089L299.051 111.808L267.067 92.1446L266.71 91.9252L266.431 92.2382L248.351 112.563L238.313 87.2803L238.159 86.8908L237.748 86.975L200.967 94.5133L216.557 73.7966L217.038 73.1569L216.252 73.005L175.483 65.1296L210.137 56.4848L211.226 56.213L210.296 55.5852L180.689 35.6095L221.692 42.1526L222.483 42.2788L222.249 41.513L214.685 16.7137L246.67 36.3773L247.027 36.5967L247.305 36.2837L265.385 15.9588Z" stroke="#539FAD"/>
<g filter="url(#filter5_d_237_9)">
<path d="M229.407 70.1221L227.487 69.7836L239.081 49.6732L241.064 50.0228L245.081 72.8859L243.161 72.5474L239.723 52.2311L239.586 52.2071L229.407 70.1221ZM232.437 62.197L243.023 64.0636L242.733 65.7108L232.147 63.8442L232.437 62.197ZM258.872 53.1629L255.084 74.6497L253.258 74.3278L257.047 52.8411L258.872 53.1629ZM271.222 55.3406L268.397 70.6256L266.666 70.3203L269.24 54.991L271.222 55.3406ZM266.411 76.7985C266.019 76.7294 265.708 76.5303 265.478 76.2012C265.248 75.8721 265.167 75.5117 265.236 75.12C265.306 74.7213 265.506 74.4068 265.835 74.1763C266.164 73.9459 266.525 73.8652 266.916 73.9343C267.315 74.0046 267.629 74.2043 267.86 74.5334C268.09 74.8625 268.17 75.2264 268.1 75.625C268.054 75.8838 267.946 76.1099 267.775 76.3033C267.611 76.4979 267.409 76.6426 267.168 76.7373C266.929 76.8249 266.677 76.8453 266.411 76.7985ZM283.675 57.5363L280.85 72.8213L279.119 72.516L281.692 57.1867L283.675 57.5363ZM278.864 78.9942C278.472 78.9251 278.161 78.726 277.93 78.3969C277.7 78.0678 277.619 77.7074 277.688 77.3157C277.759 76.917 277.958 76.6025 278.287 76.372C278.617 76.1416 278.977 76.0609 279.369 76.13C279.767 76.2003 280.082 76.4 280.312 76.7291C280.543 77.0582 280.623 77.4221 280.553 77.8207C280.507 78.0795 280.399 78.3056 280.227 78.499C280.063 78.6936 279.861 78.8383 279.621 78.933C279.382 79.0206 279.129 79.041 278.864 78.9942Z" fill="#539FAD"/>
<path d="M229.407 70.1221L229.233 71.1069L229.928 71.2294L230.276 70.6161L229.407 70.1221ZM227.487 69.7836L226.62 69.2841L225.907 70.5205L227.313 70.7684L227.487 69.7836ZM239.081 49.6732L239.255 48.6884L238.565 48.5667L238.215 49.1737L239.081 49.6732ZM241.064 50.0228L242.049 49.8498L241.928 49.1597L241.238 49.038L241.064 50.0228ZM245.081 72.8859L244.907 73.8707L246.313 74.1186L246.066 72.7129L245.081 72.8859ZM243.161 72.5474L242.175 72.7143L242.293 73.4097L242.987 73.5322L243.161 72.5474ZM239.723 52.2311L240.709 52.0643L240.591 51.3688L239.896 51.2463L239.723 52.2311ZM239.586 52.2071L239.76 51.2223L239.065 51.0998L238.717 51.7131L239.586 52.2071ZM232.437 62.197L232.611 61.2122L231.626 61.0386L231.453 62.0234L232.437 62.197ZM243.023 64.0636L244.008 64.2373L244.182 63.2525L243.197 63.0788L243.023 64.0636ZM242.733 65.7108L242.559 66.6956L243.544 66.8693L243.718 65.8845L242.733 65.7108ZM232.147 63.8442L231.162 63.6706L230.989 64.6554L231.973 64.829L232.147 63.8442ZM229.58 69.1373L227.66 68.7988L227.313 70.7684L229.233 71.1069L229.58 69.1373ZM228.353 70.283L239.947 50.1727L238.215 49.1737L226.62 69.2841L228.353 70.283ZM238.907 50.658L240.89 51.0077L241.238 49.038L239.255 48.6884L238.907 50.658ZM240.079 50.1959L244.096 73.059L246.066 72.7129L242.049 49.8498L240.079 50.1959ZM245.255 71.9011L243.335 71.5626L242.987 73.5322L244.907 73.8707L245.255 71.9011ZM244.147 72.3805L240.709 52.0643L238.737 52.398L242.175 72.7143L244.147 72.3805ZM239.896 51.2463L239.76 51.2223L239.413 53.1919L239.549 53.2159L239.896 51.2463ZM238.717 51.7131L228.537 69.6281L230.276 70.6161L240.456 52.7011L238.717 51.7131ZM232.264 63.1818L242.85 65.0484L243.197 63.0788L232.611 61.2122L232.264 63.1818ZM242.039 63.89L241.748 65.5372L243.718 65.8845L244.008 64.2373L242.039 63.89ZM242.907 64.726L232.321 62.8594L231.973 64.829L242.559 66.6956L242.907 64.726ZM233.132 64.0179L233.422 62.3707L231.453 62.0234L231.162 63.6706L233.132 64.0179ZM258.872 53.1629L259.857 53.3366L260.031 52.3518L259.046 52.1781L258.872 53.1629ZM255.084 74.6497L254.91 75.6345L255.895 75.8081L256.068 74.8233L255.084 74.6497ZM253.258 74.3278L252.273 74.1541L252.1 75.1389L253.084 75.3126L253.258 74.3278ZM257.047 52.8411L257.22 51.8562L256.236 51.6826L256.062 52.6674L257.047 52.8411ZM257.888 52.9893L254.099 74.476L256.068 74.8233L259.857 53.3366L257.888 52.9893ZM255.257 73.6648L253.432 73.343L253.084 75.3126L254.91 75.6345L255.257 73.6648ZM254.243 74.5014L258.032 53.0147L256.062 52.6674L252.273 74.1541L254.243 74.5014ZM256.873 53.8259L258.699 54.1477L259.046 52.1781L257.22 51.8562L256.873 53.8259ZM271.222 55.3406L272.206 55.5223L272.389 54.5309L271.396 54.3558L271.222 55.3406ZM268.397 70.6256L268.224 71.6104L269.201 71.7826L269.381 70.8073L268.397 70.6256ZM266.666 70.3203L265.68 70.1548L265.516 71.1329L266.493 71.3052L266.666 70.3203ZM269.24 54.991L269.413 54.0062L268.42 53.8311L268.253 54.8254L269.24 54.991ZM265.478 76.2012L264.659 76.7748L264.659 76.7748L265.478 76.2012ZM265.835 74.1763L265.261 73.3572L265.261 73.3572L265.835 74.1763ZM267.775 76.3033L267.026 75.6406L267.018 75.6496L267.011 75.6586L267.775 76.3033ZM267.168 76.7373L267.513 77.6761L267.524 77.672L267.535 77.6676L267.168 76.7373ZM270.239 55.1589L267.414 70.4438L269.381 70.8073L272.206 55.5223L270.239 55.1589ZM268.571 69.6408L266.84 69.3355L266.493 71.3052L268.224 71.6104L268.571 69.6408ZM267.653 70.4859L270.226 55.1565L268.253 54.8254L265.68 70.1548L267.653 70.4859ZM269.066 55.9758L271.049 56.3254L271.396 54.3558L269.413 54.0062L269.066 55.9758ZM266.585 75.8136C266.457 75.7912 266.377 75.742 266.297 75.6276L264.659 76.7748C265.04 77.3187 265.582 77.6676 266.238 77.7833L266.585 75.8136ZM266.297 75.6276C266.217 75.5133 266.198 75.4212 266.221 75.2937L264.251 74.9464C264.135 75.6022 264.278 76.2309 264.659 76.7748L266.297 75.6276ZM266.221 75.2937C266.245 75.1539 266.299 75.0725 266.409 74.9955L265.261 73.3572C264.713 73.741 264.367 74.2887 264.251 74.9464L266.221 75.2937ZM266.409 74.9955C266.523 74.9154 266.615 74.8966 266.743 74.9191L267.09 72.9495C266.434 72.8338 265.805 72.9763 265.261 73.3572L266.409 74.9955ZM266.743 74.9191C266.882 74.9437 266.964 74.9969 267.041 75.1069L268.679 73.9598C268.295 73.4116 267.747 73.0654 267.09 72.9495L266.743 74.9191ZM267.041 75.1069C267.118 75.2169 267.14 75.3117 267.115 75.4514L269.085 75.7987C269.201 75.1411 269.063 74.508 268.679 73.9598L267.041 75.1069ZM267.115 75.4514C267.101 75.5319 267.073 75.5879 267.026 75.6406L268.524 76.966C268.819 76.6319 269.008 76.2358 269.085 75.7987L267.115 75.4514ZM267.011 75.6586C266.955 75.7246 266.89 75.7721 266.802 75.8069L267.535 77.6676C267.927 77.5131 268.267 77.2713 268.539 76.948L267.011 75.6586ZM266.824 75.7984C266.761 75.8217 266.688 75.8318 266.585 75.8136L266.238 77.7833C266.666 77.8588 267.098 77.8282 267.513 77.6761L266.824 75.7984ZM283.675 57.5363L284.658 57.718L284.841 56.7266L283.849 56.5515L283.675 57.5363ZM280.85 72.8213L280.676 73.8061L281.653 73.9783L281.833 73.003L280.85 72.8213ZM279.119 72.516L278.133 72.3505L277.968 73.3286L278.945 73.5009L279.119 72.516ZM281.692 57.1867L281.866 56.2019L280.873 56.0268L280.706 57.0211L281.692 57.1867ZM277.93 78.3969L277.111 78.9705L277.111 78.9705L277.93 78.3969ZM278.287 76.372L277.714 75.5529L277.714 75.5529L278.287 76.372ZM280.227 78.499L279.478 77.8363L279.471 77.8453L279.463 77.8543L280.227 78.499ZM279.621 78.933L279.965 79.8718L279.976 79.8677L279.987 79.8633L279.621 78.933ZM282.692 57.3546L279.867 72.6395L281.833 73.003L284.658 57.718L282.692 57.3546ZM281.024 71.8365L279.292 71.5312L278.945 73.5009L280.676 73.8061L281.024 71.8365ZM280.105 72.6816L282.678 57.3522L280.706 57.0211L278.133 72.3505L280.105 72.6816ZM281.518 58.1715L283.501 58.5211L283.849 56.5515L281.866 56.2019L281.518 58.1715ZM279.037 78.0093C278.91 77.9869 278.83 77.9377 278.75 77.8233L277.111 78.9705C277.492 79.5144 278.034 79.8633 278.69 79.979L279.037 78.0093ZM278.75 77.8233C278.67 77.709 278.651 77.6169 278.673 77.4894L276.704 77.1421C276.588 77.7979 276.73 78.4266 277.111 78.9705L278.75 77.8233ZM278.673 77.4894C278.698 77.3496 278.751 77.2682 278.861 77.1912L277.714 75.5529C277.166 75.9367 276.819 76.4844 276.704 77.1421L278.673 77.4894ZM278.861 77.1912C278.975 77.1111 279.067 77.0923 279.195 77.1148L279.542 75.1452C278.886 75.0295 278.258 75.172 277.714 75.5529L278.861 77.1912ZM279.195 77.1148C279.335 77.1394 279.416 77.1926 279.493 77.3026L281.131 76.1555C280.748 75.6073 280.2 75.2611 279.542 75.1452L279.195 77.1148ZM279.493 77.3026C279.57 77.4126 279.592 77.5074 279.568 77.6471L281.537 77.9944C281.653 77.3368 281.515 76.7037 281.131 76.1555L279.493 77.3026ZM279.568 77.6471C279.554 77.7276 279.525 77.7836 279.478 77.8363L280.976 79.1617C281.272 78.8276 281.46 78.4315 281.537 77.9944L279.568 77.6471ZM279.463 77.8543C279.407 77.9203 279.343 77.9678 279.254 78.0026L279.987 79.8633C280.38 79.7088 280.719 79.467 280.992 79.1437L279.463 77.8543ZM279.276 77.9941C279.213 78.0174 279.14 78.0275 279.037 78.0093L278.69 79.979C279.119 80.0545 279.551 80.0239 279.965 79.8718L279.276 77.9941Z" fill="#539FAD"/>
</g>
<g filter="url(#filter6_d_237_9)">
<path d="M90.479 129L80.5004 92.6364H83.6609L92.0415 124.241H92.3079L100.635 92.6364H104.257L112.585 124.241H112.851L121.232 92.6364H124.392L114.414 129H111.076L102.553 97.7855H102.34L93.8171 129H90.479ZM134.815 129.604C133.181 129.604 131.69 129.284 130.341 128.645C128.991 128.006 127.914 127.076 127.109 125.857C126.316 124.638 125.919 123.152 125.919 121.401C125.919 120.098 126.162 118.992 126.647 118.08C127.133 117.169 127.831 116.417 128.743 115.825C129.666 115.222 130.767 114.742 132.045 114.387C133.335 114.02 134.779 113.742 136.377 113.553C137.881 113.363 139.165 113.197 140.23 113.055C141.296 112.913 142.113 112.688 142.681 112.381C143.249 112.061 143.533 111.552 143.533 110.854V110.126C143.533 108.232 142.965 106.74 141.828 105.651C140.692 104.562 139.076 104.018 136.981 104.018C135.016 104.018 133.406 104.45 132.152 105.314C130.897 106.178 130.015 107.214 129.506 108.421L126.701 107.391C127.292 105.947 128.121 104.781 129.186 103.893C130.264 103.006 131.465 102.361 132.791 101.958C134.128 101.544 135.496 101.337 136.892 101.337C137.97 101.337 139.07 101.485 140.195 101.781C141.319 102.065 142.355 102.544 143.302 103.219C144.261 103.893 145.03 104.817 145.61 105.989C146.202 107.149 146.498 108.611 146.498 110.374V129H143.533V124.561H143.338C142.947 125.413 142.367 126.224 141.598 126.994C140.84 127.763 139.893 128.39 138.757 128.876C137.632 129.361 136.318 129.604 134.815 129.604ZM135.206 126.905C136.886 126.905 138.348 126.526 139.591 125.768C140.846 124.999 141.817 123.975 142.503 122.697C143.19 121.406 143.533 119.98 143.533 118.418V114.476C143.284 114.701 142.888 114.902 142.343 115.08C141.799 115.257 141.177 115.417 140.479 115.559C139.781 115.689 139.076 115.802 138.366 115.896C137.656 115.991 137.011 116.074 136.431 116.145C134.797 116.346 133.418 116.66 132.294 117.086C131.169 117.5 130.317 118.068 129.737 118.79C129.169 119.513 128.885 120.424 128.885 121.525C128.885 123.229 129.482 124.555 130.678 125.502C131.885 126.437 133.395 126.905 135.206 126.905ZM157.986 111.83V129H155.003V101.727H157.897V106.024H158.164C158.803 104.616 159.803 103.491 161.164 102.651C162.538 101.798 164.218 101.372 166.207 101.372C168.042 101.372 169.652 101.757 171.037 102.526C172.433 103.296 173.516 104.414 174.286 105.882C175.067 107.35 175.458 109.149 175.458 111.28V129H172.493V111.44C172.493 109.191 171.853 107.403 170.575 106.077C169.308 104.752 167.61 104.089 165.479 104.089C164.035 104.089 162.745 104.402 161.608 105.03C160.484 105.657 159.596 106.551 158.945 107.711C158.306 108.871 157.986 110.244 157.986 111.83ZM194.439 101.727V104.32H181.637V101.727H194.439ZM185.703 95.1932H188.668V122.004C188.668 123.141 188.869 124.04 189.272 124.703C189.674 125.354 190.195 125.822 190.834 126.106C191.473 126.39 192.16 126.532 192.894 126.532C193.308 126.532 193.663 126.502 193.959 126.443C194.255 126.384 194.516 126.325 194.74 126.266L195.397 128.947C195.078 129.065 194.699 129.172 194.261 129.266C193.823 129.361 193.284 129.408 192.645 129.408C191.485 129.408 190.373 129.154 189.307 128.645C188.254 128.136 187.39 127.384 186.715 126.39C186.04 125.384 185.703 124.153 185.703 122.697V95.1932ZM212.443 129.568C209.922 129.568 207.732 128.97 205.873 127.775C204.027 126.579 202.594 124.928 201.576 122.821C200.57 120.702 200.067 118.27 200.067 115.523C200.067 112.777 200.57 110.339 201.576 108.208C202.594 106.066 203.997 104.385 205.784 103.165C207.572 101.946 209.632 101.337 211.963 101.337C213.455 101.337 214.887 101.615 216.26 102.171C217.633 102.728 218.859 103.562 219.936 104.675C221.025 105.787 221.883 107.178 222.51 108.847C223.138 110.516 223.451 112.464 223.451 114.689V116.216H202.091V113.588H220.451C220.451 111.789 220.084 110.173 219.35 108.741C218.628 107.297 217.627 106.154 216.349 105.314C215.071 104.473 213.609 104.053 211.963 104.053C210.212 104.053 208.667 104.527 207.329 105.474C206.003 106.409 204.962 107.658 204.204 109.22C203.447 110.771 203.062 112.475 203.05 114.334V115.843C203.05 118.033 203.429 119.956 204.186 121.614C204.956 123.259 206.039 124.543 207.436 125.467C208.844 126.39 210.513 126.852 212.443 126.852C213.78 126.852 214.946 126.638 215.941 126.212C216.935 125.786 217.764 125.23 218.426 124.543C219.089 123.857 219.598 123.123 219.953 122.342L222.741 123.283C222.327 124.372 221.658 125.396 220.735 126.354C219.811 127.313 218.651 128.089 217.255 128.68C215.87 129.272 214.266 129.568 212.443 129.568ZM240.222 129.568C237.996 129.568 236.049 128.976 234.38 127.793C232.711 126.597 231.409 124.94 230.474 122.821C229.539 120.702 229.071 118.24 229.071 115.435C229.071 112.641 229.539 110.191 230.474 108.084C231.409 105.965 232.717 104.314 234.398 103.13C236.079 101.934 238.038 101.337 240.275 101.337C241.92 101.337 243.293 101.633 244.394 102.224C245.507 102.816 246.406 103.556 247.093 104.444C247.791 105.332 248.324 106.219 248.691 107.107H248.957V92.6364H251.94V129H249.046V123.762H248.691C248.312 124.662 247.774 125.561 247.075 126.461C246.377 127.349 245.465 128.089 244.341 128.68C243.228 129.272 241.855 129.568 240.222 129.568ZM240.577 126.852C242.352 126.852 243.867 126.36 245.122 125.378C246.377 124.395 247.336 123.04 247.999 121.312C248.673 119.584 249.011 117.613 249.011 115.399C249.011 113.186 248.679 111.227 248.016 109.522C247.353 107.817 246.395 106.48 245.14 105.509C243.885 104.539 242.364 104.053 240.577 104.053C238.742 104.053 237.191 104.556 235.925 105.562C234.658 106.557 233.693 107.912 233.031 109.629C232.379 111.333 232.054 113.257 232.054 115.399C232.054 117.542 232.379 119.483 233.031 121.223C233.693 122.951 234.658 124.324 235.925 125.342C237.203 126.348 238.754 126.852 240.577 126.852ZM109.729 152.86V206.32H112.789V152.86H109.729ZM70.7294 159.1V161.74H101.149V159.1H70.7294ZM69.8294 192.4C79.6694 192.4 92.8094 192.28 104.509 190.48L104.269 188.14C92.8094 189.52 79.4894 189.64 69.4094 189.64L69.8294 192.4ZM77.5094 160.96V190.36H80.5094V160.96H77.5094ZM91.3694 160.96V190.36H94.4294V160.96H91.3694ZM131.205 182.5V185.08H167.325V182.5H131.205ZM124.605 196.24V198.88H173.085V196.24H124.605ZM131.205 157.9V183.4H134.265V160.48H166.665V157.9H131.205ZM133.245 169.9V172.48H165.585V169.9H133.245ZM219.94 152.8V206.26H222.94V152.8H219.94ZM183.58 158.14V191.2H186.58V158.14H183.58ZM183.58 189.34V192.1H187.72C196.36 192.1 204.58 191.44 213.94 189.52L213.52 186.76C204.34 188.68 196.06 189.34 187.72 189.34H183.58ZM257.435 156.88V161.14C257.435 171.22 245.195 179.08 237.575 180.7L239.015 183.28C247.595 181 260.135 172.78 260.135 161.14V156.88H257.435ZM257.915 156.88V161.14C257.915 172.78 270.575 181.06 279.035 183.28L280.595 180.7C273.035 179.14 260.615 171.1 260.615 161.14V156.88H257.915ZM234.995 196V198.64H283.475V196H234.995Z" fill="#3DA2FF"/>
<path d="M90.479 129L88.5503 129.529C88.7887 130.398 89.5783 131 90.479 131V129ZM80.5004 92.6364V90.6364C79.8765 90.6364 79.2883 90.9275 78.91 91.4236C78.5317 91.9197 78.4066 92.564 78.5717 93.1656L80.5004 92.6364ZM83.6609 92.6364L85.5941 92.1237C85.3615 91.2469 84.568 90.6364 83.6609 90.6364V92.6364ZM92.0415 124.241L90.1084 124.754C90.3409 125.631 91.1344 126.241 92.0415 126.241V124.241ZM92.3079 124.241V126.241C93.2162 126.241 94.0105 125.629 94.2419 124.751L92.3079 124.241ZM100.635 92.6364V90.6364C99.727 90.6364 98.9327 91.2485 98.7013 92.1268L100.635 92.6364ZM104.257 92.6364L106.191 92.1268C105.96 91.2485 105.166 90.6364 104.257 90.6364V92.6364ZM112.585 124.241L110.651 124.751C110.882 125.629 111.677 126.241 112.585 126.241V124.241ZM112.851 124.241V126.241C113.758 126.241 114.552 125.631 114.784 124.754L112.851 124.241ZM121.232 92.6364V90.6364C120.325 90.6364 119.531 91.2469 119.299 92.1237L121.232 92.6364ZM124.392 92.6364L126.321 93.1656C126.486 92.564 126.361 91.9197 125.983 91.4236C125.604 90.9275 125.016 90.6364 124.392 90.6364V92.6364ZM114.414 129V131C115.314 131 116.104 130.398 116.342 129.529L114.414 129ZM111.076 129L109.146 129.527C109.384 130.397 110.174 131 111.076 131V129ZM102.553 97.7855L104.482 97.2587C104.245 96.3889 103.455 95.7855 102.553 95.7855V97.7855ZM102.34 97.7855V95.7855C101.438 95.7855 100.648 96.3889 100.41 97.2587L102.34 97.7855ZM93.8171 129V131C94.7188 131 95.509 130.397 95.7465 129.527L93.8171 129ZM92.4077 128.471L82.4291 92.1071L78.5717 93.1656L88.5503 129.529L92.4077 128.471ZM80.5004 94.6364H83.6609V90.6364H80.5004V94.6364ZM81.7277 93.149L90.1084 124.754L93.9747 123.729L85.5941 92.1237L81.7277 93.149ZM92.0415 126.241H92.3079V122.241H92.0415V126.241ZM94.2419 124.751L102.569 93.1459L98.7013 92.1268L90.3739 123.732L94.2419 124.751ZM100.635 94.6364H104.257V90.6364H100.635V94.6364ZM102.323 93.1459L110.651 124.751L114.519 123.732L106.191 92.1268L102.323 93.1459ZM112.585 126.241H112.851V122.241H112.585V126.241ZM114.784 124.754L123.165 93.149L119.299 92.1237L110.918 123.729L114.784 124.754ZM121.232 94.6364H124.392V90.6364H121.232V94.6364ZM122.464 92.1071L112.485 128.471L116.342 129.529L126.321 93.1656L122.464 92.1071ZM114.414 127H111.076V131H114.414V127ZM113.005 128.473L104.482 97.2587L100.624 98.3123L109.146 129.527L113.005 128.473ZM102.553 95.7855H102.34V99.7855H102.553V95.7855ZM100.41 97.2587L91.8877 128.473L95.7465 129.527L104.269 98.3123L100.41 97.2587ZM93.8171 127H90.479V131H93.8171V127ZM130.341 128.645L129.484 130.452L129.484 130.452L130.341 128.645ZM127.109 125.857L125.432 126.948L125.44 126.959L127.109 125.857ZM126.647 118.08L128.413 119.02L128.413 119.02L126.647 118.08ZM128.743 115.825L129.832 117.503L129.837 117.499L128.743 115.825ZM132.045 114.387L132.58 116.314L132.592 116.311L132.045 114.387ZM136.377 113.553L136.613 115.539C136.618 115.538 136.623 115.537 136.627 115.537L136.377 113.553ZM140.23 113.055L139.966 111.073L139.966 111.073L140.23 113.055ZM142.681 112.381L143.633 114.139C143.643 114.134 143.652 114.129 143.661 114.124L142.681 112.381ZM141.828 105.651L140.445 107.095L140.445 107.095L141.828 105.651ZM132.152 105.314L133.286 106.961L133.286 106.961L132.152 105.314ZM129.506 108.421L128.817 110.299C129.819 110.667 130.934 110.182 131.349 109.198L129.506 108.421ZM126.701 107.391L124.85 106.633C124.644 107.136 124.651 107.701 124.87 108.198C125.089 108.695 125.501 109.082 126.011 109.269L126.701 107.391ZM129.186 103.893L127.914 102.35L127.906 102.357L129.186 103.893ZM132.791 101.958L133.372 103.872L133.383 103.869L132.791 101.958ZM140.195 101.781L139.686 103.715C139.692 103.716 139.699 103.718 139.705 103.72L140.195 101.781ZM143.302 103.219L142.142 104.848L142.151 104.854L143.302 103.219ZM145.61 105.989L143.818 106.876C143.822 106.883 143.825 106.89 143.829 106.898L145.61 105.989ZM146.498 129V131C147.603 131 148.498 130.105 148.498 129H146.498ZM143.533 129H141.533C141.533 130.105 142.428 131 143.533 131V129ZM143.533 124.561H145.533C145.533 123.457 144.638 122.561 143.533 122.561V124.561ZM143.338 124.561V122.561C142.556 122.561 141.845 123.017 141.52 123.728L143.338 124.561ZM141.598 126.994L140.183 125.579C140.18 125.583 140.176 125.587 140.173 125.59L141.598 126.994ZM138.757 128.876L137.971 127.036L137.964 127.039L138.757 128.876ZM139.591 125.768L140.632 127.476L140.637 127.473L139.591 125.768ZM142.503 122.697L144.265 123.643L144.269 123.636L142.503 122.697ZM143.533 114.476H145.533C145.533 113.685 145.067 112.969 144.344 112.648C143.622 112.327 142.778 112.462 142.191 112.993L143.533 114.476ZM142.343 115.08L142.963 116.981L142.963 116.981L142.343 115.08ZM140.479 115.559L140.846 117.525C140.856 117.523 140.867 117.521 140.878 117.519L140.479 115.559ZM138.366 115.896L138.102 113.914L138.102 113.914L138.366 115.896ZM136.431 116.145L136.188 114.16L136.186 114.16L136.431 116.145ZM132.294 117.086L132.985 118.963C132.991 118.96 132.997 118.958 133.002 118.956L132.294 117.086ZM129.737 118.79L128.178 117.538C128.173 117.543 128.169 117.548 128.165 117.554L129.737 118.79ZM130.678 125.502L129.436 127.07C129.442 127.074 129.448 127.079 129.453 127.083L130.678 125.502ZM134.815 127.604C133.449 127.604 132.254 127.338 131.197 126.837L129.484 130.452C131.126 131.23 132.914 131.604 134.815 131.604V127.604ZM131.197 126.837C130.17 126.351 129.377 125.663 128.778 124.755L125.44 126.959C126.451 128.49 127.812 129.66 129.484 130.452L131.197 126.837ZM128.786 124.767C128.243 123.933 127.919 122.845 127.919 121.401H123.919C123.919 123.46 124.389 125.343 125.433 126.948L128.786 124.767ZM127.919 121.401C127.919 120.343 128.117 119.576 128.413 119.02L124.882 117.14C124.208 118.407 123.919 119.854 123.919 121.401H127.919ZM128.413 119.02C128.73 118.424 129.189 117.92 129.832 117.503L127.653 114.148C126.473 114.914 125.535 115.914 124.882 117.14L128.413 119.02ZM129.837 117.499C130.557 117.028 131.461 116.625 132.58 116.314L131.51 112.46C130.072 112.859 128.774 113.415 127.648 114.151L129.837 117.499ZM132.592 116.311C133.763 115.978 135.1 115.718 136.613 115.539L136.142 111.566C134.459 111.766 132.908 112.062 131.498 112.463L132.592 116.311ZM136.627 115.537C138.134 115.347 139.423 115.181 140.495 115.038L139.966 111.073C138.907 111.214 137.628 111.379 136.127 111.568L136.627 115.537ZM140.495 115.038C141.663 114.882 142.756 114.615 143.633 114.139L141.728 110.622C141.469 110.762 140.929 110.945 139.966 111.073L140.495 115.038ZM143.661 114.124C144.912 113.42 145.533 112.211 145.533 110.854H141.533C141.533 110.929 141.519 110.882 141.574 110.784C141.599 110.739 141.63 110.7 141.659 110.671C141.688 110.644 141.706 110.634 141.7 110.638L143.661 114.124ZM145.533 110.854V110.126H141.533V110.854H145.533ZM145.533 110.126C145.533 107.806 144.821 105.749 143.212 104.207L140.445 107.095C141.109 107.732 141.533 108.658 141.533 110.126H145.533ZM143.212 104.207C141.594 102.656 139.417 102.018 136.981 102.018V106.018C138.736 106.018 139.79 106.468 140.445 107.095L143.212 104.207ZM136.981 102.018C134.728 102.018 132.69 102.514 131.017 103.667L133.286 106.961C134.122 106.385 135.305 106.018 136.981 106.018V102.018ZM131.017 103.667C129.5 104.711 128.343 106.031 127.663 107.644L131.349 109.198C131.687 108.397 132.293 107.645 133.286 106.961L131.017 103.667ZM130.195 106.544L127.39 105.514L126.011 109.269L128.817 110.299L130.195 106.544ZM128.551 108.15C129.035 106.969 129.682 106.084 130.467 105.43L127.906 102.357C126.56 103.479 125.55 104.925 124.85 106.633L128.551 108.15ZM130.458 105.437C131.334 104.716 132.301 104.197 133.372 103.872L132.21 100.044C130.63 100.524 129.194 101.296 127.914 102.35L130.458 105.437ZM133.383 103.869C134.529 103.513 135.697 103.337 136.892 103.337V99.3366C135.294 99.3366 133.728 99.5741 132.199 100.048L133.383 103.869ZM136.892 103.337C137.785 103.337 138.714 103.459 139.686 103.715L140.704 99.8464C139.426 99.5102 138.154 99.3366 136.892 99.3366V103.337ZM139.705 103.72C140.588 103.943 141.397 104.317 142.142 104.848L144.463 101.59C143.314 100.771 142.051 100.187 140.685 99.8415L139.705 103.72ZM142.151 104.854C142.807 105.316 143.369 105.968 143.818 106.876L147.403 105.101C146.692 103.666 145.715 102.471 144.453 101.583L142.151 104.854ZM143.829 106.898C144.235 107.694 144.498 108.82 144.498 110.374H148.498C148.498 108.401 148.169 106.603 147.392 105.08L143.829 106.898ZM144.498 110.374V129H148.498V110.374H144.498ZM146.498 127H143.533V131H146.498V127ZM145.533 129V124.561H141.533V129H145.533ZM143.533 122.561H143.338V126.561H143.533V122.561ZM141.52 123.728C141.243 124.332 140.811 124.952 140.183 125.579L143.012 128.408C143.923 127.497 144.652 126.494 145.156 125.394L141.52 123.728ZM140.173 125.59C139.622 126.149 138.902 126.639 137.971 127.036L139.542 130.715C140.884 130.142 142.058 129.377 143.023 128.397L140.173 125.59ZM137.964 127.039C137.14 127.395 136.106 127.604 134.815 127.604V131.604C136.531 131.604 138.124 131.327 139.549 130.712L137.964 127.039ZM135.206 128.905C137.196 128.905 139.03 128.453 140.632 127.476L138.55 124.061C137.667 124.599 136.577 124.905 135.206 124.905V128.905ZM140.637 127.473C142.189 126.522 143.409 125.238 144.265 123.643L140.741 121.75C140.225 122.712 139.503 123.476 138.546 124.063L140.637 127.473ZM144.269 123.636C145.12 122.037 145.533 120.284 145.533 118.418H141.533C141.533 119.676 141.26 120.776 140.738 121.757L144.269 123.636ZM145.533 118.418V114.476H141.533V118.418H145.533ZM142.191 112.993C142.233 112.955 142.232 112.967 142.144 113.012C142.059 113.055 141.924 113.113 141.723 113.178L142.963 116.981C143.612 116.77 144.32 116.461 144.875 115.959L142.191 112.993ZM141.723 113.178C141.266 113.327 140.721 113.469 140.08 113.599L140.878 117.519C141.634 117.365 142.331 117.187 142.963 116.981L141.723 113.178ZM140.112 113.593C139.448 113.717 138.778 113.824 138.102 113.914L138.63 117.879C139.375 117.78 140.113 117.662 140.846 117.525L140.112 113.593ZM138.102 113.914C137.397 114.008 136.759 114.09 136.188 114.16L136.674 118.13C137.262 118.058 137.915 117.974 138.63 117.879L138.102 113.914ZM136.186 114.16C134.448 114.374 132.902 114.716 131.585 115.216L133.002 118.956C133.934 118.603 135.147 118.318 136.675 118.13L136.186 114.16ZM131.602 115.209C130.235 115.713 129.043 116.461 128.178 117.538L131.296 120.043C131.591 119.676 132.103 119.288 132.985 118.963L131.602 115.209ZM128.165 117.554C127.268 118.694 126.885 120.067 126.885 121.525H130.885C130.885 120.781 131.07 120.331 131.309 120.027L128.165 117.554ZM126.885 121.525C126.885 123.759 127.701 125.696 129.436 127.07L131.92 123.934C131.264 123.415 130.885 122.7 130.885 121.525H126.885ZM129.453 127.083C131.073 128.338 133.037 128.905 135.206 128.905V124.905C133.752 124.905 132.697 124.537 131.903 123.921L129.453 127.083ZM157.986 129V131C159.091 131 159.986 130.105 159.986 129H157.986ZM155.003 129H153.003C153.003 130.105 153.899 131 155.003 131V129ZM155.003 101.727V99.7273C153.899 99.7273 153.003 100.623 153.003 101.727H155.003ZM157.897 101.727H159.897C159.897 100.623 159.002 99.7273 157.897 99.7273V101.727ZM157.897 106.024H155.897C155.897 107.129 156.793 108.024 157.897 108.024V106.024ZM158.164 106.024V108.024C158.948 108.024 159.661 107.565 159.985 106.851L158.164 106.024ZM161.164 102.651L162.215 104.352L162.219 104.35L161.164 102.651ZM171.037 102.526L170.065 104.275L170.072 104.278L171.037 102.526ZM174.286 105.882L172.514 106.811L172.52 106.822L174.286 105.882ZM175.458 129V131C176.562 131 177.458 130.105 177.458 129H175.458ZM172.493 129H170.493C170.493 130.105 171.388 131 172.493 131V129ZM170.575 106.077L169.129 107.459L169.135 107.466L170.575 106.077ZM161.608 105.03L160.642 103.279L160.634 103.283L161.608 105.03ZM158.945 107.711L157.201 106.732C157.198 106.737 157.196 106.741 157.193 106.746L158.945 107.711ZM155.986 111.83V129H159.986V111.83H155.986ZM157.986 127H155.003V131H157.986V127ZM157.003 129V101.727H153.003V129H157.003ZM155.003 103.727H157.897V99.7273H155.003V103.727ZM155.897 101.727V106.024H159.897V101.727H155.897ZM157.897 108.024H158.164V104.024H157.897V108.024ZM159.985 106.851C160.454 105.817 161.18 104.992 162.215 104.352L160.114 100.949C158.427 101.99 157.152 103.414 156.342 105.198L159.985 106.851ZM162.219 104.35C163.21 103.735 164.505 103.372 166.207 103.372V99.3722C163.932 99.3722 161.865 99.8616 160.11 100.951L162.219 104.35ZM166.207 103.372C167.756 103.372 169.021 103.695 170.065 104.275L172.008 100.778C170.282 99.819 168.327 99.3722 166.207 99.3722V103.372ZM170.072 104.278C171.111 104.85 171.92 105.676 172.514 106.811L176.057 104.954C175.113 103.153 173.756 101.741 172.002 100.774L170.072 104.278ZM172.52 106.822C173.11 107.93 173.458 109.387 173.458 111.28H177.458C177.458 108.911 177.024 106.77 176.051 104.942L172.52 106.822ZM173.458 111.28V129H177.458V111.28H173.458ZM175.458 127H172.493V131H175.458V127ZM174.493 129V111.44H170.493V129H174.493ZM174.493 111.44C174.493 108.794 173.729 106.467 172.015 104.689L169.135 107.466C169.978 108.34 170.493 109.587 170.493 111.44H174.493ZM172.021 104.696C170.315 102.91 168.06 102.089 165.479 102.089V106.089C167.16 106.089 168.301 106.593 169.129 107.459L172.021 104.696ZM165.479 102.089C163.736 102.089 162.106 102.47 160.642 103.279L162.575 106.781C163.383 106.335 164.334 106.089 165.479 106.089V102.089ZM160.634 103.283C159.176 104.097 158.026 105.261 157.201 106.732L160.689 108.69C161.166 107.841 161.792 107.218 162.583 106.776L160.634 103.283ZM157.193 106.746C156.362 108.255 155.986 109.973 155.986 111.83H159.986C159.986 110.515 160.25 109.487 160.697 108.676L157.193 106.746ZM194.439 101.727H196.439C196.439 100.623 195.543 99.7273 194.439 99.7273V101.727ZM194.439 104.32V106.32C195.543 106.32 196.439 105.424 196.439 104.32H194.439ZM181.637 104.32H179.637C179.637 105.424 180.532 106.32 181.637 106.32V104.32ZM181.637 101.727V99.7273C180.532 99.7273 179.637 100.623 179.637 101.727H181.637ZM185.703 95.1932V93.1932C184.598 93.1932 183.703 94.0886 183.703 95.1932H185.703ZM188.668 95.1932H190.668C190.668 94.0886 189.773 93.1932 188.668 93.1932V95.1932ZM189.272 124.703L187.562 125.741C187.565 125.746 187.568 125.75 187.57 125.755L189.272 124.703ZM190.834 126.106L191.646 124.278L191.646 124.278L190.834 126.106ZM193.959 126.443L193.567 124.482L193.567 124.482L193.959 126.443ZM194.74 126.266L196.683 125.79C196.555 125.269 196.224 124.821 195.763 124.547C195.302 124.273 194.75 124.195 194.231 124.331L194.74 126.266ZM195.397 128.947L196.092 130.822C197.045 130.469 197.582 129.458 197.34 128.471L195.397 128.947ZM194.261 129.266L194.684 131.221L194.684 131.221L194.261 129.266ZM189.307 128.645L188.437 130.446L188.445 130.449L189.307 128.645ZM186.715 126.39L185.054 127.504L185.06 127.513L186.715 126.39ZM192.439 101.727V104.32H196.439V101.727H192.439ZM194.439 102.32H181.637V106.32H194.439V102.32ZM183.637 104.32V101.727H179.637V104.32H183.637ZM181.637 103.727H194.439V99.7273H181.637V103.727ZM185.703 97.1932H188.668V93.1932H185.703V97.1932ZM186.668 95.1932V122.004H190.668V95.1932H186.668ZM186.668 122.004C186.668 123.347 186.901 124.652 187.562 125.741L190.981 123.665C190.837 123.428 190.668 122.934 190.668 122.004H186.668ZM187.57 125.755C188.164 126.714 188.98 127.471 190.022 127.933L191.646 124.278C191.409 124.173 191.185 123.994 190.973 123.651L187.57 125.755ZM190.022 127.933C190.929 128.337 191.894 128.532 192.894 128.532V124.532C192.426 124.532 192.017 124.443 191.646 124.278L190.022 127.933ZM192.894 128.532C193.395 128.532 193.889 128.497 194.351 128.404L193.567 124.482C193.438 124.508 193.221 124.532 192.894 124.532V128.532ZM194.351 128.404C194.676 128.339 194.976 128.272 195.249 128.2L194.231 124.331C194.055 124.378 193.834 124.429 193.567 124.482L194.351 128.404ZM192.798 126.742L193.455 129.423L197.34 128.471L196.683 125.79L192.798 126.742ZM194.703 127.071C194.494 127.148 194.211 127.231 193.838 127.312L194.684 131.221C195.187 131.112 195.661 130.982 196.092 130.822L194.703 127.071ZM193.838 127.312C193.584 127.366 193.197 127.408 192.645 127.408V131.408C193.372 131.408 194.062 131.356 194.684 131.221L193.838 127.312ZM192.645 127.408C191.789 127.408 190.97 127.223 190.169 126.84L188.445 130.449C189.775 131.085 191.181 131.408 192.645 131.408V127.408ZM190.177 126.844C189.449 126.492 188.853 125.978 188.37 125.267L185.06 127.513C185.927 128.79 187.058 129.779 188.437 130.446L190.177 126.844ZM188.376 125.276C187.963 124.661 187.703 123.837 187.703 122.697H183.703C183.703 124.468 184.117 126.107 185.054 127.504L188.376 125.276ZM187.703 122.697V95.1932H183.703V122.697H187.703ZM205.873 127.775L204.786 129.454L204.791 129.457L205.873 127.775ZM201.576 122.821L199.77 123.679L199.776 123.691L201.576 122.821ZM201.576 108.208L199.77 107.35L199.768 107.354L201.576 108.208ZM205.784 103.165L204.657 101.513L204.657 101.513L205.784 103.165ZM216.26 102.171L217.011 100.318L217.011 100.318L216.26 102.171ZM219.936 104.675L218.499 106.066L218.506 106.074L219.936 104.675ZM222.51 108.847L224.382 108.144L224.382 108.144L222.51 108.847ZM223.451 116.216V118.216C224.556 118.216 225.451 117.32 225.451 116.216H223.451ZM202.091 116.216H200.091C200.091 117.32 200.987 118.216 202.091 118.216V116.216ZM202.091 113.588V111.588C200.987 111.588 200.091 112.483 200.091 113.588H202.091ZM220.451 113.588V115.588C221.555 115.588 222.451 114.693 222.451 113.588H220.451ZM219.35 108.741L217.561 109.635C217.564 109.641 217.567 109.647 217.57 109.653L219.35 108.741ZM216.349 105.314L215.25 106.985L215.25 106.985L216.349 105.314ZM207.329 105.474L208.482 107.108L208.485 107.106L207.329 105.474ZM204.204 109.22L206.001 110.098L206.004 110.093L204.204 109.22ZM203.05 114.334L201.05 114.321V114.334H203.05ZM204.186 121.614L202.367 122.445C202.37 122.45 202.372 122.456 202.375 122.461L204.186 121.614ZM207.436 125.467L206.333 127.135L206.339 127.139L207.436 125.467ZM215.941 126.212L216.729 128.051L216.729 128.051L215.941 126.212ZM218.426 124.543L219.865 125.933L219.865 125.933L218.426 124.543ZM219.953 122.342L220.593 120.447C219.621 120.118 218.557 120.58 218.133 121.514L219.953 122.342ZM222.741 123.283L224.61 123.994C224.804 123.486 224.782 122.921 224.55 122.429C224.318 121.938 223.896 121.562 223.381 121.388L222.741 123.283ZM220.735 126.354L222.175 127.742L222.175 127.742L220.735 126.354ZM217.255 128.68L216.474 126.839L216.469 126.841L217.255 128.68ZM212.443 127.568C210.25 127.568 208.447 127.053 206.955 126.093L204.791 129.457C207.016 130.888 209.593 131.568 212.443 131.568V127.568ZM206.96 126.096C205.441 125.112 204.246 123.75 203.377 121.951L199.776 123.691C200.942 126.106 202.612 128.046 204.786 129.454L206.96 126.096ZM203.383 121.963C202.524 120.154 202.067 118.023 202.067 115.523H198.067C198.067 118.516 198.616 121.25 199.77 123.679L203.383 121.963ZM202.067 115.523C202.067 113.024 202.524 110.885 203.385 109.062L199.768 107.354C198.616 109.793 198.067 112.531 198.067 115.523H202.067ZM203.383 109.066C204.264 107.212 205.445 105.818 206.911 104.818L204.657 101.513C202.549 102.951 200.925 104.919 199.77 107.35L203.383 109.066ZM206.911 104.818C208.341 103.843 210.001 103.337 211.963 103.337V99.3366C209.262 99.3366 206.803 100.05 204.657 101.513L206.911 104.818ZM211.963 103.337C213.199 103.337 214.376 103.566 215.509 104.025L217.011 100.318C215.398 99.6639 213.711 99.3366 211.963 99.3366V103.337ZM215.509 104.025C216.612 104.472 217.607 105.144 218.499 106.066L221.373 103.284C220.111 101.98 218.655 100.983 217.011 100.318L215.509 104.025ZM218.506 106.074C219.375 106.961 220.094 108.104 220.638 109.551L224.382 108.144C223.671 106.252 222.675 104.614 221.365 103.276L218.506 106.074ZM220.638 109.551C221.163 110.947 221.451 112.647 221.451 114.689H225.451C225.451 112.281 225.112 110.086 224.382 108.144L220.638 109.551ZM221.451 114.689V116.216H225.451V114.689H221.451ZM223.451 114.216H202.091V118.216H223.451V114.216ZM204.091 116.216V113.588H200.091V116.216H204.091ZM202.091 115.588H220.451V111.588H202.091V115.588ZM222.451 113.588C222.451 111.51 222.025 109.575 221.13 107.829L217.57 109.653C218.143 110.771 218.451 112.068 218.451 113.588H222.451ZM221.139 107.846C220.268 106.105 219.037 104.688 217.448 103.643L215.25 106.985C216.218 107.621 216.987 108.488 217.561 109.635L221.139 107.846ZM217.448 103.643C215.818 102.571 213.968 102.053 211.963 102.053V106.053C213.249 106.053 214.323 106.376 215.25 106.985L217.448 103.643ZM211.963 102.053C209.828 102.053 207.873 102.638 206.174 103.841L208.485 107.106C209.461 106.415 210.595 106.053 211.963 106.053V102.053ZM206.176 103.839C204.555 104.983 203.299 106.503 202.405 108.348L206.004 110.093C206.624 108.813 207.452 107.834 208.482 107.108L206.176 103.839ZM202.407 108.342C201.508 110.183 201.064 112.186 201.05 114.321L205.05 114.347C205.06 112.765 205.385 111.359 206.001 110.098L202.407 108.342ZM201.05 114.334V115.843H205.05V114.334H201.05ZM201.05 115.843C201.05 118.263 201.469 120.48 202.367 122.445L206.005 120.782C205.389 119.433 205.05 117.803 205.05 115.843H201.05ZM202.375 122.461C203.287 124.411 204.603 125.991 206.333 127.135L208.539 123.798C207.475 123.095 206.625 122.107 205.998 120.766L202.375 122.461ZM206.339 127.139C208.119 128.306 210.182 128.852 212.443 128.852V124.852C210.845 124.852 209.569 124.474 208.532 123.794L206.339 127.139ZM212.443 128.852C213.989 128.852 215.434 128.606 216.729 128.051L215.153 124.374C214.459 124.671 213.572 124.852 212.443 124.852V128.852ZM216.729 128.051C217.935 127.534 218.994 126.835 219.865 125.933L216.988 123.154C216.533 123.625 215.935 124.039 215.153 124.374L216.729 128.051ZM219.865 125.933C220.669 125.1 221.315 124.18 221.774 123.169L218.133 121.514C217.882 122.066 217.51 122.613 216.988 123.154L219.865 125.933ZM219.314 124.237L222.101 125.178L223.381 121.388L220.593 120.447L219.314 124.237ZM220.872 122.572C220.566 123.375 220.057 124.175 219.294 124.967L222.175 127.742C223.259 126.616 224.088 125.368 224.61 123.994L220.872 122.572ZM219.294 124.967C218.582 125.706 217.657 126.338 216.474 126.839L218.035 130.522C219.646 129.839 221.04 128.92 222.175 127.742L219.294 124.967ZM216.469 126.841C215.379 127.307 214.051 127.568 212.443 127.568V131.568C214.48 131.568 216.361 131.237 218.041 130.519L216.469 126.841ZM234.38 127.793L233.215 129.419L233.223 129.424L234.38 127.793ZM230.474 122.821L232.303 122.013L232.303 122.013L230.474 122.821ZM230.474 108.084L232.302 108.895L232.303 108.891L230.474 108.084ZM234.398 103.13L235.549 104.765L235.557 104.76L234.398 103.13ZM244.394 102.224L243.447 103.986L243.455 103.99L244.394 102.224ZM247.093 104.444L245.511 105.667C245.514 105.672 245.518 105.676 245.521 105.68L247.093 104.444ZM248.691 107.107L246.843 107.871C247.152 108.619 247.882 109.107 248.691 109.107V107.107ZM248.957 107.107V109.107C250.062 109.107 250.957 108.212 250.957 107.107H248.957ZM248.957 92.6364V90.6364C247.853 90.6364 246.957 91.5318 246.957 92.6364H248.957ZM251.94 92.6364H253.94C253.94 91.5318 253.045 90.6364 251.94 90.6364V92.6364ZM251.94 129V131C253.045 131 253.94 130.105 253.94 129H251.94ZM249.046 129H247.046C247.046 130.105 247.942 131 249.046 131V129ZM249.046 123.762H251.046C251.046 122.658 250.151 121.762 249.046 121.762V123.762ZM248.691 123.762V121.762C247.886 121.762 247.16 122.244 246.848 122.986L248.691 123.762ZM247.075 126.461L248.647 127.698L248.655 127.687L247.075 126.461ZM244.341 128.68L243.409 126.911L243.402 126.915L244.341 128.68ZM245.122 125.378L243.889 123.803L243.889 123.803L245.122 125.378ZM247.999 121.312L246.135 120.584L246.131 120.596L247.999 121.312ZM248.016 109.522L246.152 110.247L246.152 110.247L248.016 109.522ZM245.14 105.509L243.916 107.091L243.916 107.091L245.14 105.509ZM235.925 105.562L237.16 107.136L237.169 107.129L235.925 105.562ZM233.031 109.629L231.165 108.908L231.162 108.915L233.031 109.629ZM233.031 121.223L231.157 121.924C231.159 121.929 231.161 121.934 231.163 121.939L233.031 121.223ZM235.925 125.342L234.672 126.901C234.677 126.905 234.682 126.91 234.688 126.914L235.925 125.342ZM240.222 127.568C238.373 127.568 236.838 127.084 235.537 126.161L233.223 129.424C235.26 130.869 237.62 131.568 240.222 131.568V127.568ZM235.545 126.167C234.202 125.205 233.113 123.848 232.303 122.013L228.644 123.629C229.705 126.032 231.22 127.989 233.215 129.419L235.545 126.167ZM232.303 122.013C231.502 120.197 231.071 118.019 231.071 115.435H227.071C227.071 118.461 227.575 121.207 228.644 123.629L232.303 122.013ZM231.071 115.435C231.071 112.863 231.501 110.699 232.302 108.895L228.646 107.272C227.576 109.683 227.071 112.42 227.071 115.435H231.071ZM232.303 108.891C233.111 107.062 234.202 105.714 235.549 104.765L233.246 101.495C231.232 102.913 229.707 104.868 228.644 107.276L232.303 108.891ZM235.557 104.76C236.87 103.826 238.416 103.337 240.275 103.337V99.3366C237.659 99.3366 235.287 100.043 233.239 101.5L235.557 104.76ZM240.275 103.337C241.691 103.337 242.715 103.592 243.447 103.986L245.341 100.463C243.872 99.6728 242.15 99.3366 240.275 99.3366V103.337ZM243.455 103.99C244.348 104.465 245.018 105.03 245.511 105.667L248.675 103.22C247.795 102.082 246.666 101.167 245.333 100.459L243.455 103.99ZM245.521 105.68C246.125 106.449 246.557 107.18 246.843 107.871L250.539 106.343C250.091 105.259 249.457 104.215 248.665 103.207L245.521 105.68ZM248.691 109.107H248.957V105.107H248.691V109.107ZM250.957 107.107V92.6364H246.957V107.107H250.957ZM248.957 94.6364H251.94V90.6364H248.957V94.6364ZM249.94 92.6364V129H253.94V92.6364H249.94ZM251.94 127H249.046V131H251.94V127ZM251.046 129V123.762H247.046V129H251.046ZM249.046 121.762H248.691V125.762H249.046V121.762ZM246.848 122.986C246.547 123.7 246.104 124.45 245.495 125.234L248.655 127.687C249.443 126.672 250.078 125.623 250.534 124.538L246.848 122.986ZM245.503 125.224C244.999 125.865 244.317 126.433 243.409 126.911L245.272 130.45C246.614 129.744 247.755 128.832 248.647 127.698L245.503 125.224ZM243.402 126.915C242.651 127.314 241.622 127.568 240.222 127.568V131.568C242.089 131.568 243.805 131.231 245.28 130.446L243.402 126.915ZM240.577 128.852C242.745 128.852 244.708 128.242 246.355 126.953L243.889 123.803C243.027 124.479 241.959 124.852 240.577 124.852V128.852ZM246.355 126.953C247.939 125.713 249.095 124.039 249.866 122.028L246.131 120.596C245.577 122.041 244.815 123.078 243.889 123.803L246.355 126.953ZM249.862 122.039C250.642 120.039 251.011 117.815 251.011 115.399H247.011C247.011 117.411 246.704 119.128 246.136 120.584L249.862 122.039ZM251.011 115.399C251.011 112.988 250.65 110.776 249.88 108.797L246.152 110.247C246.709 111.677 247.011 113.383 247.011 115.399H251.011ZM249.88 108.797C249.106 106.807 247.947 105.152 246.364 103.927L243.916 107.091C244.842 107.807 245.601 108.828 246.152 110.247L249.88 108.797ZM246.364 103.927C244.715 102.652 242.748 102.053 240.577 102.053V106.053C241.98 106.053 243.056 106.426 243.916 107.091L246.364 103.927ZM240.577 102.053C238.354 102.053 236.348 102.672 234.681 103.996L237.169 107.129C238.035 106.441 239.13 106.053 240.577 106.053V102.053ZM234.69 103.989C233.102 105.236 231.939 106.905 231.165 108.908L234.896 110.349C235.448 108.92 236.215 107.877 237.16 107.136L234.69 103.989ZM231.162 108.915C230.41 110.883 230.054 113.054 230.054 115.399H234.054C234.054 113.459 234.349 111.783 234.899 110.342L231.162 108.915ZM230.054 115.399C230.054 117.745 230.411 119.928 231.157 121.924L234.904 120.522C234.348 119.038 234.054 117.338 234.054 115.399H230.054ZM231.163 121.939C231.935 123.951 233.093 125.632 234.672 126.901L237.178 123.783C236.223 123.016 235.452 121.951 234.898 120.507L231.163 121.939ZM234.688 126.914C236.361 128.231 238.362 128.852 240.577 128.852V124.852C239.145 124.852 238.045 124.466 237.162 123.771L234.688 126.914ZM109.729 152.86V150.86C108.625 150.86 107.729 151.755 107.729 152.86H109.729ZM109.729 206.32H107.729C107.729 207.425 108.625 208.32 109.729 208.32V206.32ZM112.789 206.32V208.32C113.894 208.32 114.789 207.425 114.789 206.32H112.789ZM112.789 152.86H114.789C114.789 151.755 113.894 150.86 112.789 150.86V152.86ZM70.7294 159.1V157.1C69.6248 157.1 68.7294 157.995 68.7294 159.1H70.7294ZM70.7294 161.74H68.7294C68.7294 162.845 69.6248 163.74 70.7294 163.74V161.74ZM101.149 161.74V163.74C102.254 163.74 103.149 162.845 103.149 161.74H101.149ZM101.149 159.1H103.149C103.149 157.995 102.254 157.1 101.149 157.1V159.1ZM69.8294 192.4L67.8521 192.701C68.0008 193.678 68.841 194.4 69.8294 194.4V192.4ZM104.509 190.48L104.813 192.457C105.866 192.295 106.608 191.336 106.499 190.276L104.509 190.48ZM104.269 188.14L106.259 187.936C106.204 187.402 105.937 186.913 105.518 186.578C105.099 186.243 104.563 186.09 104.03 186.154L104.269 188.14ZM69.4094 189.64V187.64C68.8264 187.64 68.2725 187.894 67.8925 188.336C67.5126 188.779 67.3444 189.365 67.4321 189.941L69.4094 189.64ZM77.5094 160.96V158.96C76.4048 158.96 75.5094 159.855 75.5094 160.96H77.5094ZM77.5094 190.36H75.5094C75.5094 191.465 76.4048 192.36 77.5094 192.36V190.36ZM80.5094 190.36V192.36C81.6139 192.36 82.5094 191.465 82.5094 190.36H80.5094ZM80.5094 160.96H82.5094C82.5094 159.855 81.6139 158.96 80.5094 158.96V160.96ZM91.3694 160.96V158.96C90.2648 158.96 89.3694 159.855 89.3694 160.96H91.3694ZM91.3694 190.36H89.3694C89.3694 191.465 90.2648 192.36 91.3694 192.36V190.36ZM94.4294 190.36V192.36C95.5339 192.36 96.4294 191.465 96.4294 190.36H94.4294ZM94.4294 160.96H96.4294C96.4294 159.855 95.5339 158.96 94.4294 158.96V160.96ZM107.729 152.86V206.32H111.729V152.86H107.729ZM109.729 208.32H112.789V204.32H109.729V208.32ZM114.789 206.32V152.86H110.789V206.32H114.789ZM112.789 150.86H109.729V154.86H112.789V150.86ZM68.7294 159.1V161.74H72.7294V159.1H68.7294ZM70.7294 163.74H101.149V159.74H70.7294V163.74ZM103.149 161.74V159.1H99.1494V161.74H103.149ZM101.149 157.1H70.7294V161.1H101.149V157.1ZM69.8294 194.4C79.6613 194.4 92.9434 194.283 104.813 192.457L104.205 188.503C92.6753 190.277 79.6775 190.4 69.8294 190.4V194.4ZM106.499 190.276L106.259 187.936L102.28 188.344L102.52 190.684L106.499 190.276ZM104.03 186.154C92.7041 187.518 79.4951 187.64 69.4094 187.64V191.64C79.4836 191.64 92.9147 191.522 104.508 190.126L104.03 186.154ZM67.4321 189.941L67.8521 192.701L71.8066 192.099L71.3866 189.339L67.4321 189.941ZM75.5094 160.96V190.36H79.5094V160.96H75.5094ZM77.5094 192.36H80.5094V188.36H77.5094V192.36ZM82.5094 190.36V160.96H78.5094V190.36H82.5094ZM80.5094 158.96H77.5094V162.96H80.5094V158.96ZM89.3694 160.96V190.36H93.3694V160.96H89.3694ZM91.3694 192.36H94.4294V188.36H91.3694V192.36ZM96.4294 190.36V160.96H92.4294V190.36H96.4294ZM94.4294 158.96H91.3694V162.96H94.4294V158.96ZM131.205 182.5V180.5C130.1 180.5 129.205 181.395 129.205 182.5H131.205ZM131.205 185.08H129.205C129.205 186.185 130.1 187.08 131.205 187.08V185.08ZM167.325 185.08V187.08C168.429 187.08 169.325 186.185 169.325 185.08H167.325ZM167.325 182.5H169.325C169.325 181.395 168.429 180.5 167.325 180.5V182.5ZM124.605 196.24V194.24C123.5 194.24 122.605 195.135 122.605 196.24H124.605ZM124.605 198.88H122.605C122.605 199.985 123.5 200.88 124.605 200.88V198.88ZM173.085 198.88V200.88C174.189 200.88 175.085 199.985 175.085 198.88H173.085ZM173.085 196.24H175.085C175.085 195.135 174.189 194.24 173.085 194.24V196.24ZM131.205 157.9V155.9C130.1 155.9 129.205 156.795 129.205 157.9H131.205ZM131.205 183.4H129.205C129.205 184.505 130.1 185.4 131.205 185.4V183.4ZM134.265 183.4V185.4C135.369 185.4 136.265 184.505 136.265 183.4H134.265ZM134.265 160.48V158.48C133.16 158.48 132.265 159.375 132.265 160.48H134.265ZM166.665 160.48V162.48C167.769 162.48 168.665 161.585 168.665 160.48H166.665ZM166.665 157.9H168.665C168.665 156.795 167.769 155.9 166.665 155.9V157.9ZM133.245 169.9V167.9C132.14 167.9 131.245 168.795 131.245 169.9H133.245ZM133.245 172.48H131.245C131.245 173.585 132.14 174.48 133.245 174.48V172.48ZM165.585 172.48V174.48C166.689 174.48 167.585 173.585 167.585 172.48H165.585ZM165.585 169.9H167.585C167.585 168.795 166.689 167.9 165.585 167.9V169.9ZM129.205 182.5V185.08H133.205V182.5H129.205ZM131.205 187.08H167.325V183.08H131.205V187.08ZM169.325 185.08V182.5H165.325V185.08H169.325ZM167.325 180.5H131.205V184.5H167.325V180.5ZM122.605 196.24V198.88H126.605V196.24H122.605ZM124.605 200.88H173.085V196.88H124.605V200.88ZM175.085 198.88V196.24H171.085V198.88H175.085ZM173.085 194.24H124.605V198.24H173.085V194.24ZM129.205 157.9V183.4H133.205V157.9H129.205ZM131.205 185.4H134.265V181.4H131.205V185.4ZM136.265 183.4V160.48H132.265V183.4H136.265ZM134.265 162.48H166.665V158.48H134.265V162.48ZM168.665 160.48V157.9H164.665V160.48H168.665ZM166.665 155.9H131.205V159.9H166.665V155.9ZM131.245 169.9V172.48H135.245V169.9H131.245ZM133.245 174.48H165.585V170.48H133.245V174.48ZM167.585 172.48V169.9H163.585V172.48H167.585ZM165.585 167.9H133.245V171.9H165.585V167.9ZM219.94 152.8V150.8C218.835 150.8 217.94 151.695 217.94 152.8H219.94ZM219.94 206.26H217.94C217.94 207.365 218.835 208.26 219.94 208.26V206.26ZM222.94 206.26V208.26C224.045 208.26 224.94 207.365 224.94 206.26H222.94ZM222.94 152.8H224.94C224.94 151.695 224.045 150.8 222.94 150.8V152.8ZM183.58 158.14V156.14C182.475 156.14 181.58 157.035 181.58 158.14H183.58ZM183.58 191.2H181.58C181.58 192.305 182.475 193.2 183.58 193.2V191.2ZM186.58 191.2V193.2C187.685 193.2 188.58 192.305 188.58 191.2H186.58ZM186.58 158.14H188.58C188.58 157.035 187.685 156.14 186.58 156.14V158.14ZM183.58 189.34V187.34C182.475 187.34 181.58 188.235 181.58 189.34H183.58ZM183.58 192.1H181.58C181.58 193.205 182.475 194.1 183.58 194.1V192.1ZM213.94 189.52L214.342 191.479C215.385 191.265 216.077 190.272 215.917 189.219L213.94 189.52ZM213.52 186.76L215.497 186.459C215.415 185.916 215.112 185.43 214.66 185.117C214.209 184.804 213.648 184.69 213.111 184.802L213.52 186.76ZM217.94 152.8V206.26H221.94V152.8H217.94ZM219.94 208.26H222.94V204.26H219.94V208.26ZM224.94 206.26V152.8H220.94V206.26H224.94ZM222.94 150.8H219.94V154.8H222.94V150.8ZM181.58 158.14V191.2H185.58V158.14H181.58ZM183.58 193.2H186.58V189.2H183.58V193.2ZM188.58 191.2V158.14H184.58V191.2H188.58ZM186.58 156.14H183.58V160.14H186.58V156.14ZM181.58 189.34V192.1H185.58V189.34H181.58ZM183.58 194.1H187.72V190.1H183.58V194.1ZM187.72 194.1C196.475 194.1 204.831 193.43 214.342 191.479L213.538 187.561C204.329 189.45 196.245 190.1 187.72 190.1V194.1ZM215.917 189.219L215.497 186.459L211.543 187.061L211.963 189.821L215.917 189.219ZM213.111 184.802C204.086 186.69 195.946 187.34 187.72 187.34V191.34C196.174 191.34 204.594 190.67 213.929 188.718L213.111 184.802ZM187.72 187.34H183.58V191.34H187.72V187.34ZM257.435 156.88V154.88C256.331 154.88 255.435 155.775 255.435 156.88H257.435ZM237.575 180.7L237.159 178.744C236.538 178.876 236.017 179.295 235.754 179.873C235.492 180.452 235.519 181.12 235.829 181.675L237.575 180.7ZM239.015 183.28L237.269 184.255C237.715 185.053 238.645 185.448 239.529 185.213L239.015 183.28ZM260.135 156.88H262.135C262.135 155.775 261.24 154.88 260.135 154.88V156.88ZM257.915 156.88V154.88C256.811 154.88 255.915 155.775 255.915 156.88H257.915ZM279.035 183.28L278.528 185.215C279.385 185.439 280.288 185.073 280.747 184.315L279.035 183.28ZM280.595 180.7L282.307 181.735C282.643 181.179 282.688 180.495 282.428 179.9C282.168 179.304 281.636 178.873 280.999 178.741L280.595 180.7ZM260.615 156.88H262.615C262.615 155.775 261.72 154.88 260.615 154.88V156.88ZM234.995 196V194C233.891 194 232.995 194.895 232.995 196H234.995ZM234.995 198.64H232.995C232.995 199.745 233.891 200.64 234.995 200.64V198.64ZM283.475 198.64V200.64C284.58 200.64 285.475 199.745 285.475 198.64H283.475ZM283.475 196H285.475C285.475 194.895 284.58 194 283.475 194V196ZM255.435 156.88V161.14H259.435V156.88H255.435ZM255.435 161.14C255.435 165.346 252.864 169.326 249.064 172.572C245.283 175.801 240.617 178.009 237.159 178.744L237.991 182.656C242.154 181.771 247.417 179.239 251.662 175.613C255.887 172.004 259.435 167.014 259.435 161.14H255.435ZM235.829 181.675L237.269 184.255L240.762 182.305L239.322 179.725L235.829 181.675ZM239.529 185.213C244.11 183.996 249.677 181.224 254.132 177.205C258.588 173.187 262.135 167.723 262.135 161.14H258.135C258.135 166.197 255.413 170.663 251.453 174.235C247.494 177.806 242.501 180.284 238.502 181.347L239.529 185.213ZM262.135 161.14V156.88H258.135V161.14H262.135ZM260.135 154.88H257.435V158.88H260.135V154.88ZM255.915 156.88V161.14H259.915V156.88H255.915ZM255.915 161.14C255.915 167.728 259.498 173.207 263.964 177.229C268.432 181.252 274 184.026 278.528 185.215L279.543 181.345C275.611 180.314 270.618 177.838 266.641 174.256C262.663 170.673 259.915 166.192 259.915 161.14H255.915ZM280.747 184.315L282.307 181.735L278.884 179.665L277.324 182.245L280.747 184.315ZM280.999 178.741C277.587 178.037 272.892 175.806 269.067 172.548C265.218 169.268 262.615 165.274 262.615 161.14H258.615C258.615 166.966 262.223 171.972 266.473 175.592C270.748 179.234 276.044 181.803 280.191 182.659L280.999 178.741ZM262.615 161.14V156.88H258.615V161.14H262.615ZM260.615 154.88H257.915V158.88H260.615V154.88ZM232.995 196V198.64H236.995V196H232.995ZM234.995 200.64H283.475V196.64H234.995V200.64ZM285.475 198.64V196H281.475V198.64H285.475ZM283.475 194H234.995V198H283.475V194Z" fill="#3DA2FF"/>
</g>
<defs>
<filter id="filter0_i_237_9" x="11.5883" y="24.4454" width="142.619" height="96.2766" filterUnits="userSpaceOnUse" color-interpolation-filters="sRGB">
<feFlood flood-opacity="0" result="BackgroundImageFix"/>
<feBlend mode="normal" in="SourceGraphic" in2="BackgroundImageFix" result="shape"/>
<feColorMatrix in="SourceAlpha" type="matrix" values="0 0 0 0 0 0 0 0 0 0 0 0 0 0 0 0 0 0 127 0" result="hardAlpha"/>
<feOffset dy="4"/>
<feGaussianBlur stdDeviation="2"/>
<feComposite in2="hardAlpha" operator="arithmetic" k2="-1" k3="1"/>
<feColorMatrix type="matrix" values="0 0 0 0 0 0 0 0 0 0 0 0 0 0 0 0 0 0 0.25 0"/>
<feBlend mode="normal" in2="shape" result="effect1_innerShadow_237_9"/>
</filter>
<filter id="filter1_d_237_9" x="22.5541" y="30.3119" width="121.391" height="88.9164" filterUnits="userSpaceOnUse" color-interpolation-filters="sRGB">
<feFlood flood-opacity="0" result="BackgroundImageFix"/>
<feColorMatrix in="SourceAlpha" type="matrix" values="0 0 0 0 0 0 0 0 0 0 0 0 0 0 0 0 0 0 127 0" result="hardAlpha"/>
<feOffset dy="4"/>
<feGaussianBlur stdDeviation="2"/>
<feComposite in2="hardAlpha" operator="out"/>
<feColorMatrix type="matrix" values="0 0 0 0 0 0 0 0 0 0 0 0 0 0 0 0 0 0 0.25 0"/>
<feBlend mode="normal" in2="BackgroundImageFix" result="effect1_dropShadow_237_9"/>
<feBlend mode="normal" in="SourceGraphic" in2="effect1_dropShadow_237_9" result="shape"/>
</filter>
<filter id="filter2_i_237_9" x="176" y="202" width="162" height="55" filterUnits="userSpaceOnUse" color-interpolation-filters="sRGB">
<feFlood flood-opacity="0" result="BackgroundImageFix"/>
<feBlend mode="normal" in="SourceGraphic" in2="BackgroundImageFix" result="shape"/>
<feColorMatrix in="SourceAlpha" type="matrix" values="0 0 0 0 0 0 0 0 0 0 0 0 0 0 0 0 0 0 127 0" result="hardAlpha"/>
<feOffset dy="4"/>
<feGaussianBlur stdDeviation="2"/>
<feComposite in2="hardAlpha" operator="arithmetic" k2="-1" k3="1"/>
<feColorMatrix type="matrix" values="0 0 0 0 0 0 0 0 0 0 0 0 0 0 0 0 0 0 0.25 0"/>
<feBlend mode="normal" in2="shape" result="effect1_innerShadow_237_9"/>
</filter>
<filter id="filter3_d_237_9" x="191.606" y="213.589" width="133.709" height="30.3" filterUnits="userSpaceOnUse" color-interpolation-filters="sRGB">
<feFlood flood-opacity="0" result="BackgroundImageFix"/>
<feColorMatrix in="SourceAlpha" type="matrix" values="0 0 0 0 0 0 0 0 0 0 0 0 0 0 0 0 0 0 127 0" result="hardAlpha"/>
<feOffset dy="4"/>
<feGaussianBlur stdDeviation="2"/>
<feComposite in2="hardAlpha" operator="out"/>
<feColorMatrix type="matrix" values="0 0 0 0 0 0 0 0 0 0 0 0 0 0 0 0 0 0 0.25 0"/>
<feBlend mode="normal" in2="BackgroundImageFix" result="effect1_dropShadow_237_9"/>
<feBlend mode="normal" in="SourceGraphic" in2="effect1_dropShadow_237_9" result="shape"/>
</filter>
<filter id="filter4_i_237_9" x="173.169" y="15.0206" width="167.399" height="102.481" filterUnits="userSpaceOnUse" color-interpolation-filters="sRGB">
<feFlood flood-opacity="0" result="BackgroundImageFix"/>
<feBlend mode="normal" in="SourceGraphic" in2="BackgroundImageFix" result="shape"/>
<feColorMatrix in="SourceAlpha" type="matrix" values="0 0 0 0 0 0 0 0 0 0 0 0 0 0 0 0 0 0 127 0" result="hardAlpha"/>
<feOffset dy="4"/>
<feGaussianBlur stdDeviation="2"/>
<feComposite in2="hardAlpha" operator="arithmetic" k2="-1" k3="1"/>
<feColorMatrix type="matrix" values="0 0 0 0 0 0 0 0 0 0 0 0 0 0 0 0 0 0 0.25 0"/>
<feBlend mode="normal" in2="shape" result="effect1_innerShadow_237_9"/>
</filter>
<filter id="filter5_d_237_9" x="223.461" y="48.2969" width="64.6548" height="38.9507" filterUnits="userSpaceOnUse" color-interpolation-filters="sRGB">
<feFlood flood-opacity="0" result="BackgroundImageFix"/>
<feColorMatrix in="SourceAlpha" type="matrix" values="0 0 0 0 0 0 0 0 0 0 0 0 0 0 0 0 0 0 127 0" result="hardAlpha"/>
<feOffset dy="4"/>
<feGaussianBlur stdDeviation="2"/>
<feComposite in2="hardAlpha" operator="out"/>
<feColorMatrix type="matrix" values="0 0 0 0 0 0 0 0 0 0 0 0 0 0 0 0 0 0 0.25 0"/>
<feBlend mode="normal" in2="BackgroundImageFix" result="effect1_dropShadow_237_9"/>
<feBlend mode="normal" in="SourceGraphic" in2="effect1_dropShadow_237_9" result="shape"/>
</filter>
<filter id="filter6_d_237_9" x="65.4094" y="92.6364" width="222.066" height="121.684" filterUnits="userSpaceOnUse" color-interpolation-filters="sRGB">
<feFlood flood-opacity="0" result="BackgroundImageFix"/>
<feColorMatrix in="SourceAlpha" type="matrix" values="0 0 0 0 0 0 0 0 0 0 0 0 0 0 0 0 0 0 127 0" result="hardAlpha"/>
<feOffset dy="4"/>
<feGaussianBlur stdDeviation="2"/>
<feComposite in2="hardAlpha" operator="out"/>
<feColorMatrix type="matrix" values="0 0 0 0 0 0 0 0 0 0 0 0 0 0 0 0 0 0 0.25 0"/>
<feBlend mode="normal" in2="BackgroundImageFix" result="effect1_dropShadow_237_9"/>
<feBlend mode="normal" in="SourceGraphic" in2="effect1_dropShadow_237_9" result="shape"/>
</filter>
</defs>
</svg>
